<svg width="149" height="151" viewBox="0 0 149 151" fill="none" xmlns="http://www.w3.org/2000/svg">
<ellipse cx="74.7633" cy="75.2071" rx="74.1324" ry="75.2071" fill="#1F9EDD"/>
<path d="M47.5336 66.3374V85.9432C47.5336 86.1726 47.4936 86.3997 47.4157 86.6117C47.3379 86.8236 47.2239 87.0162 47.0801 87.1784C46.9363 87.3406 46.7656 87.4692 46.5777 87.557C46.3898 87.6448 46.1884 87.69 45.9851 87.69C45.7817 87.69 45.5804 87.6448 45.3925 87.557C45.2046 87.4692 45.0339 87.3406 44.8901 87.1784C44.7463 87.0162 44.6322 86.8236 44.5544 86.6117C44.4766 86.3997 44.4365 86.1726 44.4365 85.9432V64.4299L42.1447 63.022C41.9004 62.8718 41.6965 62.65 41.5544 62.3802C41.4124 62.1103 41.3374 61.8022 41.3374 61.4883C41.3374 61.1744 41.4124 60.8664 41.5544 60.5965C41.6965 60.3266 41.9004 60.1049 42.1447 59.9546L76.2125 38.9933C76.4404 38.8527 76.696 38.7789 76.9558 38.7789C77.2156 38.7789 77.4712 38.8527 77.6991 38.9933L111.767 59.9546C112.011 60.1049 112.215 60.3266 112.357 60.5965C112.499 60.8664 112.574 61.1744 112.574 61.4883C112.574 61.8022 112.499 62.1103 112.357 62.3802C112.215 62.65 112.011 62.8718 111.767 63.022L77.6991 83.9833C77.4712 84.124 77.2156 84.1977 76.9558 84.1977C76.696 84.1977 76.4404 84.124 76.2125 83.9833L47.5336 66.3374ZM97.0867 78.9561C97.0867 78.4928 97.2499 78.0485 97.5403 77.7209C97.8307 77.3934 98.2246 77.2093 98.6353 77.2093C99.046 77.2093 99.4398 77.3934 99.7302 77.7209C100.021 78.0485 100.184 78.4928 100.184 78.9561V98.1707C100.184 98.4948 100.104 98.8125 99.9529 99.0883C99.8019 99.3641 99.5859 99.5871 99.329 99.7323L77.6495 111.96C77.4342 112.081 77.1966 112.145 76.9558 112.145C76.7149 112.145 76.4774 112.081 76.262 111.96L54.5825 99.7323C54.3257 99.5871 54.1096 99.3641 53.9587 99.0883C53.8077 98.8125 53.7278 98.4948 53.7278 98.1707V78.9561C53.7278 78.4928 53.8909 78.0485 54.1813 77.7209C54.4717 77.3934 54.8656 77.2093 55.2763 77.2093C55.687 77.2093 56.0809 77.3934 56.3713 77.7209C56.6617 78.0485 56.8248 78.4928 56.8248 78.9561V97.0911L76.9558 108.445L97.0867 97.0911V78.9561ZM76.9558 42.5183L46.1214 61.4883L76.9558 80.4583L107.79 61.4883L76.9558 42.5183Z" fill="white"/>
</svg>
