<svg width="532" height="750" viewBox="0 0 532 750" fill="none" xmlns="http://www.w3.org/2000/svg">
<path d="M532 63H0V65H532V63Z" fill="#218C0F" mask="url(#path-1-inside-1_1761_3963)"/>
<path d="M23.49 19.464C21.134 19.464 19.3733 20.1227 18.208 21.44C17.1693 22.58 16.536 24.4547 16.308 27.064C16.2067 28.1533 16.156 29.496 16.156 31.092C16.156 32.688 16.2067 34.056 16.308 35.196C16.4093 36.3107 16.612 37.3747 16.916 38.388C17.2453 39.4013 17.676 40.212 18.208 40.82C19.3733 42.1373 21.134 42.796 23.49 42.796C27.3913 42.796 29.4053 40.7187 29.532 36.564L32.268 36.716C32.0907 39.528 31.318 41.7067 29.95 43.252C28.6073 44.772 26.454 45.532 23.49 45.532C19.31 45.532 16.46 44.24 14.94 41.656C14.1547 40.364 13.5973 38.882 13.268 37.21C12.964 35.538 12.812 33.5113 12.812 31.13C12.812 28.7233 12.964 26.684 13.268 25.012C13.5973 23.34 14.1547 21.858 14.94 20.566C16.46 18.0073 19.31 16.728 23.49 16.728C26.2513 16.728 28.3033 17.3613 29.646 18.628C30.9887 19.8693 31.812 21.6553 32.116 23.986L29.418 24.48C28.886 21.136 26.91 19.464 23.49 19.464ZM50.5724 24.176C52.0924 25.2653 52.8524 27.3173 52.8524 30.332V45H50.6864L49.8504 41.618C47.4184 44.2273 44.7458 45.532 41.8324 45.532C39.9071 45.532 38.4884 45.0253 37.5764 44.012C36.6898 42.9987 36.2464 41.6307 36.2464 39.908C36.2464 38.1853 36.7784 36.792 37.8424 35.728C38.9318 34.664 40.9584 33.8913 43.9224 33.41L49.5844 32.498V30.332C49.5844 28.4573 49.1791 27.1653 48.3684 26.456C47.5831 25.7467 46.4938 25.392 45.1004 25.392C42.3138 25.392 40.6544 26.7473 40.1224 29.458L37.4624 28.66C37.8678 26.7853 38.7164 25.3287 40.0084 24.29C41.3004 23.2513 43.0484 22.732 45.2524 22.732C47.4818 22.732 49.2551 23.2133 50.5724 24.176ZM42.7444 43.024C45.0244 43.024 47.3044 41.7953 49.5844 39.338V34.778L44.2264 35.69C42.4278 36.0193 41.1864 36.5387 40.5024 37.248C39.8184 37.932 39.4764 38.7807 39.4764 39.794C39.4764 40.782 39.7424 41.5673 40.2744 42.15C40.8064 42.7327 41.6298 43.024 42.7444 43.024ZM63.794 45H60.526V23.264H62.464L63.642 27.14C65.4154 24.328 68.012 22.8587 71.432 22.732V25.734C68.012 25.8607 65.466 27.3047 63.794 30.066V45ZM85.316 45.532C82.9347 45.532 80.642 44.7593 78.438 43.214L77.716 45H75.778V16.196L79.046 15.816V24.518C81.2247 23.3273 83.3147 22.732 85.316 22.732C90.788 22.732 93.524 26.532 93.524 34.132C93.524 41.732 90.788 45.532 85.316 45.532ZM84.708 25.392C82.7573 25.392 80.87 25.9367 79.046 27.026V41.086C80.794 42.2767 82.58 42.872 84.404 42.872C88.3053 42.872 90.256 39.9587 90.256 34.132C90.256 32.536 90.0913 31.1173 89.762 29.876C89.458 28.6347 88.8753 27.5833 88.014 26.722C87.1527 25.8353 86.0507 25.392 84.708 25.392ZM107.468 32.878C109.748 33.4353 111.37 34.1827 112.332 35.12C113.32 36.032 113.814 37.4127 113.814 39.262C113.814 41.086 113.13 42.568 111.762 43.708C110.394 44.848 108.368 45.418 105.682 45.418C102.997 45.418 101.046 44.9113 99.8302 43.898C98.6396 42.8593 97.8796 41.3647 97.5502 39.414L100.21 38.996C100.59 41.5547 102.326 42.834 105.416 42.834C108.836 42.834 110.546 41.6813 110.546 39.376C110.546 38.3627 110.23 37.6153 109.596 37.134C108.988 36.6527 107.886 36.2093 106.29 35.804L104.124 35.272C101.92 34.7147 100.35 33.98 99.4122 33.068C98.5002 32.156 98.0442 30.7753 98.0442 28.926C98.0442 27.0513 98.7029 25.5567 100.02 24.442C101.338 23.302 103.276 22.732 105.834 22.732C108.418 22.732 110.28 23.2513 111.42 24.29C112.586 25.3033 113.333 26.7853 113.662 28.736L110.964 29.154C110.635 26.5953 109.014 25.316 106.1 25.316C102.908 25.316 101.312 26.4687 101.312 28.774C101.312 29.7873 101.604 30.5473 102.186 31.054C102.769 31.5353 103.795 31.966 105.264 32.346L107.468 32.878ZM414.973 19.426C412.617 19.426 410.971 20.452 410.033 22.504C409.248 24.2013 408.805 26.7093 408.703 30.028C410.933 29.3693 413.073 29.04 415.125 29.04C421.332 29.04 424.435 31.586 424.435 36.678C424.41 39.4647 423.625 41.6433 422.079 43.214C420.534 44.7593 418.254 45.532 415.239 45.532C411.769 45.532 409.261 44.3793 407.715 42.074C406.195 39.7433 405.435 36.4247 405.435 32.118C405.435 24.518 407.069 19.7553 410.337 17.83C411.604 17.0953 413.124 16.728 414.897 16.728C420.521 16.728 423.485 19.2613 423.789 24.328L420.939 24.632C420.762 21.1613 418.773 19.426 414.973 19.426ZM421.167 36.678C421.167 35.158 420.673 33.9293 419.685 32.992C418.697 32.0547 417.139 31.586 415.011 31.586C412.883 31.586 410.781 31.9027 408.703 32.536C408.805 36.184 409.349 38.8187 410.337 40.44C411.325 42.0613 412.909 42.872 415.087 42.872C419.141 42.872 421.167 40.8073 421.167 36.678ZM442.515 44.772C441.35 45.2787 439.995 45.532 438.449 45.532C436.904 45.532 435.549 45.2787 434.383 44.772C433.243 44.2653 432.306 43.594 431.571 42.758C430.862 41.8967 430.292 40.8327 429.861 39.566C429.431 38.2993 429.127 36.9947 428.949 35.652C428.797 34.3093 428.721 32.802 428.721 31.13C428.721 29.458 428.797 27.9507 428.949 26.608C429.127 25.2653 429.431 23.9607 429.861 22.694C430.292 21.4273 430.862 20.376 431.571 19.54C432.281 18.6787 433.218 17.9947 434.383 17.488C435.549 16.9813 436.904 16.728 438.449 16.728C439.995 16.728 441.35 16.9813 442.515 17.488C443.681 17.9947 444.618 18.6787 445.327 19.54C446.062 20.376 446.645 21.4273 447.075 22.694C447.506 23.9607 447.797 25.2653 447.949 26.608C448.127 27.9507 448.215 29.458 448.215 31.13C448.215 32.802 448.127 34.3093 447.949 35.652C447.797 36.9947 447.506 38.2993 447.075 39.566C446.645 40.8327 446.062 41.8967 445.327 42.758C444.618 43.594 443.681 44.2653 442.515 44.772ZM438.449 42.872C440.907 42.872 442.604 41.8713 443.541 39.87C444.504 37.8433 444.985 34.93 444.985 31.13C444.985 25.3033 443.871 21.6807 441.641 20.262C440.78 19.7047 439.716 19.426 438.449 19.426C437.183 19.426 436.119 19.7047 435.257 20.262C434.396 20.8193 433.737 21.6427 433.281 22.732C432.42 24.708 431.989 27.5073 431.989 31.13C431.989 36.982 433.079 40.6173 435.257 42.036C436.119 42.5933 437.183 42.872 438.449 42.872ZM456.795 44.126C456.745 44.4047 456.555 44.6707 456.225 44.924C455.896 45.1773 455.427 45.304 454.819 45.304C454.237 45.304 453.781 45.1773 453.451 44.924C453.147 44.6707 452.957 44.4047 452.881 44.126C452.831 43.822 452.805 43.48 452.805 43.1C452.805 42.6947 452.818 42.378 452.843 42.15C452.894 41.922 452.983 41.6813 453.109 41.428C453.312 40.896 453.869 40.63 454.781 40.63C455.693 40.63 456.276 40.8453 456.529 41.276C456.783 41.6813 456.909 42.188 456.909 42.796C456.909 43.3787 456.871 43.822 456.795 44.126ZM464.72 21.402V19.35C467.481 19.046 469.635 18.3493 471.18 17.26H473.65V42.302H479.426V45H464.568V42.302H470.306V21.402H464.72ZM500.584 35.652C500.027 36.412 499.191 37.02 498.076 37.476C496.987 37.932 495.682 38.16 494.162 38.16C492.642 38.16 491.299 37.932 490.134 37.476L488.424 39.148C487.841 39.7053 487.55 40.3387 487.55 41.048C487.55 41.9853 488.133 42.454 489.298 42.454H497.81C499.659 42.454 501.103 42.948 502.142 43.936C503.206 44.8987 503.738 46.0893 503.738 47.508C503.738 48.952 503.459 50.092 502.902 50.928C502.345 51.7893 501.547 52.4227 500.508 52.828C498.709 53.512 496.379 53.854 493.516 53.854C490.653 53.854 488.437 53.474 486.866 52.714C485.321 51.9793 484.548 50.7253 484.548 48.952C484.548 47.204 485.308 45.7853 486.828 44.696C485.384 44.1387 484.662 43.0493 484.662 41.428C484.662 40.212 485.194 39.072 486.258 38.008L488.082 36.184C486.739 34.8667 486.068 32.954 486.068 30.446C486.068 28.4193 486.587 26.684 487.626 25.24C488.183 24.48 489.007 23.872 490.096 23.416C491.211 22.96 492.49 22.732 493.934 22.732C495.403 22.732 496.645 22.9093 497.658 23.264H503.396V25.43H500.698C501.661 26.7473 502.142 28.4193 502.142 30.446C502.142 32.4727 501.623 34.208 500.584 35.652ZM494.086 25.088C490.843 25.088 489.222 26.874 489.222 30.446C489.222 34.018 490.843 35.804 494.086 35.804C497.354 35.804 498.988 34.018 498.988 30.446C498.988 26.874 497.354 25.088 494.086 25.088ZM487.626 48.116C487.626 49.3827 488.145 50.2187 489.184 50.624C490.223 51.0293 491.831 51.232 494.01 51.232C496.214 51.232 497.823 51.004 498.836 50.548C499.875 50.1173 500.394 49.1927 500.394 47.774C500.394 46.786 500.027 46.0767 499.292 45.646C498.583 45.2153 497.747 45 496.784 45H489.184C488.145 45.836 487.626 46.8747 487.626 48.116Z" fill="black"/>
<path d="M12.544 107.48H17.872C20.624 107.48 22.488 108.344 23.464 110.072C23.944 110.904 24.272 111.808 24.448 112.784C24.64 113.76 24.736 114.848 24.736 116.048C24.736 117.232 24.68 118.232 24.568 119.048C24.472 119.864 24.272 120.664 23.968 121.448C23.664 122.216 23.264 122.848 22.768 123.344C21.632 124.448 20 125 17.872 125H12.544V107.48ZM17.776 109.16H14.656V123.32H17.776C19.344 123.32 20.512 122.872 21.28 121.976C22.176 120.888 22.624 118.976 22.624 116.24C22.624 113.504 22.176 111.592 21.28 110.504C20.512 109.608 19.344 109.16 17.776 109.16ZM29.3018 111.272H31.3658V125H29.3018V111.272ZM30.3338 108.968C29.5178 108.968 29.1098 108.528 29.1098 107.648C29.1098 106.752 29.5178 106.304 30.3338 106.304C31.1818 106.304 31.6058 106.752 31.6058 107.648C31.6058 108.528 31.1818 108.968 30.3338 108.968ZM41.0343 125.336C38.9383 125.336 37.4423 124.744 36.5463 123.56C35.6503 122.36 35.2023 120.552 35.2023 118.136C35.2023 113.336 37.1143 110.936 40.9383 110.936C44.7143 110.936 46.6023 113.24 46.6023 117.848V118.352H37.2423C37.2583 120.24 37.5463 121.6 38.1063 122.432C38.6663 123.248 39.6423 123.656 41.0343 123.656C43.3063 123.656 44.5223 122.736 44.6823 120.896L46.3863 120.992C46.0823 123.888 44.2983 125.336 41.0343 125.336ZM44.5383 116.816C44.4583 115.472 44.1543 114.44 43.6263 113.72C43.0983 112.984 42.2103 112.616 40.9622 112.616C39.7143 112.616 38.8183 112.992 38.2743 113.744C37.7303 114.48 37.4023 115.504 37.2903 116.816H44.5383ZM48.2853 112.688V111.272H50.6373V108.776L52.7013 107.96V111.272H55.6053V112.688H52.7013V121.784C52.7013 122.504 52.7973 123.016 52.9893 123.32C53.1973 123.608 53.4933 123.752 53.8773 123.752C54.2613 123.752 54.7333 123.688 55.2933 123.56L55.5333 124.952C54.6693 125.208 53.9333 125.336 53.3253 125.336C52.7333 125.336 52.2453 125.24 51.8613 125.048C51.4773 124.856 51.2053 124.568 51.0453 124.184C50.7733 123.608 50.6373 122.832 50.6373 121.856V112.688H48.2853ZM66.3747 111.848C67.3347 112.536 67.8147 113.832 67.8147 115.736V125H66.4467L65.9187 122.864C64.3827 124.512 62.6947 125.336 60.8547 125.336C59.6387 125.336 58.7427 125.016 58.1667 124.376C57.6067 123.736 57.3267 122.872 57.3267 121.784C57.3267 120.696 57.6627 119.816 58.3347 119.144C59.0227 118.472 60.3027 117.984 62.1747 117.68L65.7507 117.104V115.736C65.7507 114.552 65.4947 113.736 64.9827 113.288C64.4867 112.84 63.7987 112.616 62.9187 112.616C61.1587 112.616 60.1107 113.472 59.7747 115.184L58.0947 114.68C58.3507 113.496 58.8867 112.576 59.7027 111.92C60.5187 111.264 61.6227 110.936 63.0147 110.936C64.4227 110.936 65.5427 111.24 66.3747 111.848ZM61.4307 123.752C62.8707 123.752 64.3107 122.976 65.7507 121.424V118.544L62.3667 119.12C61.2307 119.328 60.4467 119.656 60.0147 120.104C59.5827 120.536 59.3667 121.072 59.3667 121.712C59.3667 122.336 59.5347 122.832 59.8707 123.2C60.2067 123.568 60.7267 123.752 61.4307 123.752ZM74.7252 125H72.6612V111.272H73.8852L74.6292 113.72C75.7492 111.944 77.3892 111.016 79.5492 110.936V112.832C77.3892 112.912 75.7812 113.824 74.7252 115.568V125ZM85.078 130.88L83.206 130.544L85.318 125.096L80.134 111.272H82.27L86.326 122.384L90.262 111.272H92.374L85.078 130.88ZM102.286 107.48H111.118V109.16H104.398V115.256H110.566V116.936H104.398V125H102.286V107.48ZM114.708 111.272H116.772V125H114.708V111.272ZM115.74 108.968C114.924 108.968 114.516 108.528 114.516 107.648C114.516 106.752 114.924 106.304 115.74 106.304C116.588 106.304 117.012 106.752 117.012 107.648C117.012 108.528 116.588 108.968 115.74 108.968ZM127.881 125.336C126.377 125.336 124.929 124.848 123.537 123.872L123.081 125H121.857V106.808L123.921 106.568V112.064C125.297 111.312 126.617 110.936 127.881 110.936C131.337 110.936 133.065 113.336 133.065 118.136C133.065 122.936 131.337 125.336 127.881 125.336ZM127.497 112.616C126.265 112.616 125.072 112.96 123.921 113.648V122.528C125.025 123.28 126.153 123.656 127.305 123.656C129.769 123.656 131.001 121.816 131.001 118.136C131.001 117.128 130.897 116.232 130.689 115.448C130.497 114.664 130.129 114 129.585 113.456C129.041 112.896 128.345 112.616 127.497 112.616ZM138.967 125H136.903V111.272H138.127L138.871 113.72C139.991 111.944 141.631 111.016 143.791 110.936V112.832C141.631 112.912 140.023 113.824 138.967 115.568V125ZM151.12 125.336C149.024 125.336 147.528 124.744 146.632 123.56C145.736 122.36 145.288 120.552 145.288 118.136C145.288 113.336 147.2 110.936 151.024 110.936C154.8 110.936 156.688 113.24 156.688 117.848V118.352H147.328C147.344 120.24 147.632 121.6 148.192 122.432C148.752 123.248 149.728 123.656 151.12 123.656C153.392 123.656 154.608 122.736 154.768 120.896L156.472 120.992C156.168 123.888 154.384 125.336 151.12 125.336ZM154.624 116.816C154.544 115.472 154.24 114.44 153.712 113.72C153.184 112.984 152.296 112.616 151.048 112.616C149.8 112.616 148.904 112.992 148.36 113.744C147.816 114.48 147.488 115.504 147.376 116.816H154.624ZM438.249 109.184V107.48H449.601V109.064L442.737 125H440.481L447.345 109.184H438.249ZM455.476 124.448C455.444 124.624 455.324 124.792 455.116 124.952C454.908 125.112 454.612 125.192 454.228 125.192C453.86 125.192 453.572 125.112 453.364 124.952C453.172 124.792 453.052 124.624 453.004 124.448C452.972 124.256 452.956 124.04 452.956 123.8C452.956 123.544 452.964 123.344 452.98 123.2C453.012 123.056 453.068 122.904 453.148 122.744C453.276 122.408 453.628 122.24 454.204 122.24C454.78 122.24 455.148 122.376 455.308 122.648C455.468 122.904 455.548 123.224 455.548 123.608C455.548 123.976 455.524 124.256 455.476 124.448ZM464.945 108.848C463.457 108.848 462.417 109.496 461.825 110.792C461.329 111.864 461.049 113.448 460.985 115.544C462.393 115.128 463.745 114.92 465.041 114.92C468.961 114.92 470.921 116.528 470.921 119.744C470.905 121.504 470.409 122.88 469.433 123.872C468.457 124.848 467.017 125.336 465.113 125.336C462.921 125.336 461.337 124.608 460.361 123.152C459.401 121.68 458.921 119.584 458.921 116.864C458.921 112.064 459.953 109.056 462.017 107.84C462.817 107.376 463.777 107.144 464.897 107.144C468.449 107.144 470.321 108.744 470.513 111.944L468.713 112.136C468.601 109.944 467.345 108.848 464.945 108.848ZM468.857 119.744C468.857 118.784 468.545 118.008 467.921 117.416C467.297 116.824 466.313 116.528 464.969 116.528C463.625 116.528 462.297 116.728 460.985 117.128C461.049 119.432 461.393 121.096 462.017 122.12C462.641 123.144 463.641 123.656 465.017 123.656C467.577 123.656 468.857 122.352 468.857 119.744ZM483.132 119.096C482.78 119.576 482.252 119.96 481.548 120.248C480.86 120.536 480.036 120.68 479.076 120.68C478.116 120.68 477.268 120.536 476.532 120.248L475.452 121.304C475.084 121.656 474.9 122.056 474.9 122.504C474.9 123.096 475.268 123.392 476.004 123.392H481.38C482.548 123.392 483.46 123.704 484.116 124.328C484.788 124.936 485.124 125.688 485.124 126.584C485.124 127.496 484.948 128.216 484.596 128.744C484.244 129.288 483.74 129.688 483.084 129.944C481.948 130.376 480.476 130.592 478.668 130.592C476.86 130.592 475.46 130.352 474.468 129.872C473.492 129.408 473.004 128.616 473.004 127.496C473.004 126.392 473.484 125.496 474.444 124.808C473.532 124.456 473.076 123.768 473.076 122.744C473.076 121.976 473.412 121.256 474.084 120.584L475.236 119.432C474.388 118.6 473.964 117.392 473.964 115.808C473.964 114.528 474.292 113.432 474.948 112.52C475.3 112.04 475.82 111.656 476.508 111.368C477.212 111.08 478.02 110.936 478.932 110.936C479.86 110.936 480.644 111.048 481.284 111.272H484.908V112.64H483.204C483.812 113.472 484.116 114.528 484.116 115.808C484.116 117.088 483.788 118.184 483.132 119.096ZM479.028 112.424C476.98 112.424 475.956 113.552 475.956 115.808C475.956 118.064 476.98 119.192 479.028 119.192C481.092 119.192 482.124 118.064 482.124 115.808C482.124 113.552 481.092 112.424 479.028 112.424ZM474.948 126.968C474.948 127.768 475.276 128.296 475.932 128.552C476.588 128.808 477.604 128.936 478.98 128.936C480.372 128.936 481.388 128.792 482.028 128.504C482.684 128.232 483.012 127.648 483.012 126.752C483.012 126.128 482.78 125.68 482.316 125.408C481.868 125.136 481.34 125 480.732 125H475.932C475.276 125.528 474.948 126.184 474.948 126.968Z" fill="black"/>
<path d="M18.376 193.496C20.072 193.976 21.264 194.56 21.952 195.248C22.656 195.936 23.008 197 23.008 198.44C23.008 199.864 22.504 201.04 21.496 201.968C20.504 202.88 19.056 203.336 17.152 203.336C15.264 203.336 13.88 202.944 13 202.16C12.12 201.376 11.568 200.248 11.344 198.776L13.072 198.464C13.376 200.576 14.68 201.632 16.984 201.632C19.592 201.632 20.896 200.6 20.896 198.536C20.896 197.64 20.656 196.976 20.176 196.544C19.696 196.112 18.896 195.744 17.776 195.44L16.192 194.984C14.544 194.536 13.384 193.968 12.712 193.28C12.04 192.576 11.704 191.512 11.704 190.088C11.704 188.648 12.184 187.464 13.144 186.536C14.104 185.608 15.496 185.144 17.32 185.144C19.16 185.144 20.496 185.536 21.328 186.32C22.16 187.104 22.688 188.232 22.912 189.704L21.184 190.016C20.88 187.904 19.664 186.848 17.536 186.848C15.056 186.848 13.816 187.88 13.816 189.944C13.816 190.84 14.032 191.512 14.464 191.96C14.912 192.392 15.664 192.752 16.72 193.04L18.376 193.496ZM30.7038 203.336C29.2798 203.336 28.2478 202.984 27.6078 202.28C26.9678 201.56 26.6478 200.488 26.6478 199.064V189.272H28.7118V198.92C28.7118 199.864 28.9118 200.56 29.3118 201.008C29.7278 201.44 30.3678 201.656 31.2318 201.656C32.7838 201.656 34.2318 200.864 35.5758 199.28V189.272H37.6398V203H36.2718L35.6238 200.96C34.1358 202.544 32.4958 203.336 30.7038 203.336ZM51.1315 197.096C50.7795 197.576 50.2515 197.96 49.5475 198.248C48.8595 198.536 48.0355 198.68 47.0755 198.68C46.1155 198.68 45.2675 198.536 44.5315 198.248L43.4515 199.304C43.0835 199.656 42.8995 200.056 42.8995 200.504C42.8995 201.096 43.2675 201.392 44.0035 201.392H49.3795C50.5475 201.392 51.4595 201.704 52.1155 202.328C52.7875 202.936 53.1235 203.688 53.1235 204.584C53.1235 205.496 52.9475 206.216 52.5955 206.744C52.2435 207.288 51.7395 207.688 51.0835 207.944C49.9475 208.376 48.4755 208.592 46.6675 208.592C44.8595 208.592 43.4595 208.352 42.4675 207.872C41.4915 207.408 41.0035 206.616 41.0035 205.496C41.0035 204.392 41.4835 203.496 42.4435 202.808C41.5315 202.456 41.0755 201.768 41.0755 200.744C41.0755 199.976 41.4115 199.256 42.0835 198.584L43.2355 197.432C42.3875 196.6 41.9635 195.392 41.9635 193.808C41.9635 192.528 42.2915 191.432 42.9475 190.52C43.2995 190.04 43.8195 189.656 44.5075 189.368C45.2115 189.08 46.0195 188.936 46.9315 188.936C47.8595 188.936 48.6435 189.048 49.2835 189.272H52.9075V190.64H51.2035C51.8115 191.472 52.1155 192.528 52.1155 193.808C52.1155 195.088 51.7875 196.184 51.1315 197.096ZM47.0275 190.424C44.9795 190.424 43.9555 191.552 43.9555 193.808C43.9555 196.064 44.9795 197.192 47.0275 197.192C49.0915 197.192 50.1235 196.064 50.1235 193.808C50.1235 191.552 49.0915 190.424 47.0275 190.424ZM42.9475 204.968C42.9475 205.768 43.2755 206.296 43.9315 206.552C44.5875 206.808 45.6035 206.936 46.9795 206.936C48.3715 206.936 49.3875 206.792 50.0275 206.504C50.6835 206.232 51.0115 205.648 51.0115 204.752C51.0115 204.128 50.7795 203.68 50.3155 203.408C49.8675 203.136 49.3395 203 48.7315 203H43.9315C43.2755 203.528 42.9475 204.184 42.9475 204.968ZM64.2419 189.848C65.2019 190.536 65.6819 191.832 65.6819 193.736V203H64.3139L63.7859 200.864C62.2499 202.512 60.5619 203.336 58.7219 203.336C57.5059 203.336 56.6099 203.016 56.0339 202.376C55.4739 201.736 55.1939 200.872 55.1939 199.784C55.1939 198.696 55.5299 197.816 56.2019 197.144C56.8899 196.472 58.1699 195.984 60.0419 195.68L63.6179 195.104V193.736C63.6179 192.552 63.3619 191.736 62.8499 191.288C62.3539 190.84 61.6659 190.616 60.7859 190.616C59.0259 190.616 57.9779 191.472 57.6419 193.184L55.9619 192.68C56.2179 191.496 56.7539 190.576 57.5699 189.92C58.3859 189.264 59.4899 188.936 60.8819 188.936C62.2899 188.936 63.4099 189.24 64.2419 189.848ZM59.2979 201.752C60.7379 201.752 62.1779 200.976 63.6179 199.424V196.544L60.2339 197.12C59.0979 197.328 58.3139 197.656 57.8819 198.104C57.4499 198.536 57.2339 199.072 57.2339 199.712C57.2339 200.336 57.4019 200.832 57.7379 201.2C58.0739 201.568 58.5939 201.752 59.2979 201.752ZM72.5924 203H70.5284V189.272H71.7524L72.4964 191.72C73.6164 189.944 75.2564 189.016 77.4164 188.936V190.832C75.2564 190.912 73.6484 191.824 72.5924 193.568V203ZM429.168 188.096V186.8C430.912 186.608 432.272 186.168 433.248 185.48H434.808V201.296H438.456V203H429.072V201.296H432.696V188.096H429.168ZM452.395 203H450.331V199.088H441.643V197.408L449.371 185.48H452.395V197.384H454.531V199.088H452.395V203ZM450.331 197.384V187.448L443.971 197.384H450.331ZM460.046 202.448C460.014 202.624 459.894 202.792 459.686 202.952C459.478 203.112 459.182 203.192 458.798 203.192C458.43 203.192 458.142 203.112 457.934 202.952C457.742 202.792 457.622 202.624 457.574 202.448C457.542 202.256 457.526 202.04 457.526 201.8C457.526 201.544 457.534 201.344 457.55 201.2C457.582 201.056 457.638 200.904 457.718 200.744C457.846 200.408 458.198 200.24 458.774 200.24C459.35 200.24 459.718 200.376 459.878 200.648C460.038 200.904 460.118 201.224 460.118 201.608C460.118 201.976 460.094 202.256 460.046 202.448ZM465.075 198.824C465.315 200.696 466.619 201.632 468.987 201.632C470.203 201.632 471.147 201.368 471.819 200.84C472.491 200.312 472.827 199.536 472.827 198.512C472.827 197.488 472.531 196.672 471.939 196.064C471.363 195.44 470.459 195.128 469.227 195.128H467.043V193.544H469.251C470.323 193.544 471.147 193.24 471.723 192.632C472.299 192.008 472.587 191.184 472.587 190.16C472.587 189.136 472.283 188.328 471.675 187.736C471.067 187.144 470.179 186.848 469.011 186.848C467.843 186.848 466.963 187.12 466.371 187.664C465.779 188.208 465.443 188.968 465.363 189.944L463.563 189.704C463.675 188.264 464.187 187.144 465.099 186.344C466.011 185.544 467.339 185.144 469.083 185.144C470.843 185.144 472.211 185.6 473.187 186.512C474.163 187.408 474.651 188.648 474.651 190.232C474.651 191.144 474.403 191.952 473.907 192.656C473.427 193.36 472.779 193.896 471.963 194.264C472.859 194.584 473.563 195.112 474.075 195.848C474.603 196.584 474.867 197.504 474.867 198.608C474.867 200.096 474.339 201.256 473.283 202.088C472.227 202.92 470.771 203.336 468.915 203.336C465.443 203.336 463.555 201.904 463.251 199.04L465.075 198.824ZM487.702 197.096C487.35 197.576 486.822 197.96 486.118 198.248C485.43 198.536 484.606 198.68 483.646 198.68C482.686 198.68 481.838 198.536 481.102 198.248L480.022 199.304C479.654 199.656 479.47 200.056 479.47 200.504C479.47 201.096 479.838 201.392 480.574 201.392H485.95C487.118 201.392 488.03 201.704 488.686 202.328C489.358 202.936 489.694 203.688 489.694 204.584C489.694 205.496 489.518 206.216 489.166 206.744C488.814 207.288 488.31 207.688 487.654 207.944C486.518 208.376 485.046 208.592 483.238 208.592C481.43 208.592 480.03 208.352 479.038 207.872C478.062 207.408 477.574 206.616 477.574 205.496C477.574 204.392 478.054 203.496 479.014 202.808C478.102 202.456 477.646 201.768 477.646 200.744C477.646 199.976 477.982 199.256 478.654 198.584L479.806 197.432C478.958 196.6 478.534 195.392 478.534 193.808C478.534 192.528 478.862 191.432 479.518 190.52C479.87 190.04 480.39 189.656 481.078 189.368C481.782 189.08 482.59 188.936 483.502 188.936C484.43 188.936 485.214 189.048 485.854 189.272H489.478V190.64H487.774C488.382 191.472 488.686 192.528 488.686 193.808C488.686 195.088 488.358 196.184 487.702 197.096ZM483.598 190.424C481.55 190.424 480.526 191.552 480.526 193.808C480.526 196.064 481.55 197.192 483.598 197.192C485.662 197.192 486.694 196.064 486.694 193.808C486.694 191.552 485.662 190.424 483.598 190.424ZM479.518 204.968C479.518 205.768 479.846 206.296 480.502 206.552C481.158 206.808 482.174 206.936 483.55 206.936C484.942 206.936 485.958 206.792 486.598 206.504C487.254 206.232 487.582 205.648 487.582 204.752C487.582 204.128 487.35 203.68 486.886 203.408C486.438 203.136 485.91 203 485.302 203H480.502C479.846 203.528 479.518 204.184 479.518 204.968Z" fill="black"/>
<path d="M532 345H0V347H532V345Z" fill="#218C0F" mask="url(#path-6-inside-2_1761_3963)"/>
<path d="M14.028 299.26H28.012V301.92H17.372V311.572H27.138V314.232H17.372V327H14.028V299.26ZM46.008 306.176C47.528 307.265 48.288 309.317 48.288 312.332V327H46.122L45.286 323.618C42.854 326.227 40.1813 327.532 37.268 327.532C35.3426 327.532 33.924 327.025 33.012 326.012C32.1253 324.999 31.682 323.631 31.682 321.908C31.682 320.185 32.214 318.792 33.278 317.728C34.3673 316.664 36.394 315.891 39.358 315.41L45.02 314.498V312.332C45.02 310.457 44.6146 309.165 43.804 308.456C43.0186 307.747 41.9293 307.392 40.536 307.392C37.7493 307.392 36.09 308.747 35.558 311.458L32.898 310.66C33.3033 308.785 34.152 307.329 35.444 306.29C36.736 305.251 38.484 304.732 40.688 304.732C42.9173 304.732 44.6906 305.213 46.008 306.176ZM38.18 325.024C40.46 325.024 42.74 323.795 45.02 321.338V316.778L39.662 317.69C37.8633 318.019 36.622 318.539 35.938 319.248C35.254 319.932 34.912 320.781 34.912 321.794C34.912 322.782 35.178 323.567 35.71 324.15C36.242 324.733 37.0653 325.024 38.18 325.024ZM52.7316 307.506V305.264H56.4556V301.312L59.7236 300.02V305.264H64.3216V307.506H59.7236V321.908C59.7236 323.048 59.8756 323.859 60.1796 324.34C60.5089 324.796 60.9776 325.024 61.5856 325.024C62.1936 325.024 62.9409 324.923 63.8276 324.72L64.2076 326.924C62.8396 327.329 61.6743 327.532 60.7116 327.532C59.7743 327.532 59.0016 327.38 58.3936 327.076C57.7856 326.772 57.3549 326.316 57.1016 325.708C56.6709 324.796 56.4556 323.567 56.4556 322.022V307.506H52.7316ZM76.9272 314.878C79.2072 315.435 80.8285 316.183 81.7912 317.12C82.7792 318.032 83.2732 319.413 83.2732 321.262C83.2732 323.086 82.5892 324.568 81.2212 325.708C79.8532 326.848 77.8265 327.418 75.1412 327.418C72.4559 327.418 70.5052 326.911 69.2892 325.898C68.0985 324.859 67.3385 323.365 67.0092 321.414L69.6692 320.996C70.0492 323.555 71.7845 324.834 74.8752 324.834C78.2952 324.834 80.0052 323.681 80.0052 321.376C80.0052 320.363 79.6885 319.615 79.0552 319.134C78.4472 318.653 77.3452 318.209 75.7492 317.804L73.5832 317.272C71.3792 316.715 69.8085 315.98 68.8712 315.068C67.9592 314.156 67.5032 312.775 67.5032 310.926C67.5032 309.051 68.1619 307.557 69.4792 306.442C70.7965 305.302 72.7345 304.732 75.2932 304.732C77.8772 304.732 79.7392 305.251 80.8792 306.29C82.0445 307.303 82.7919 308.785 83.1212 310.736L80.4232 311.154C80.0939 308.595 78.4725 307.316 75.5592 307.316C72.3672 307.316 70.7712 308.469 70.7712 310.774C70.7712 311.787 71.0625 312.547 71.6452 313.054C72.2279 313.535 73.2539 313.966 74.7232 314.346L76.9272 314.878ZM408.491 305.834C408.694 303.579 409.504 301.831 410.923 300.59C412.342 299.349 414.406 298.728 417.117 298.728C419.853 298.728 421.943 299.399 423.387 300.742C424.856 302.059 425.591 303.871 425.591 306.176C425.591 307.772 425.16 309.279 424.299 310.698C423.463 312.117 422.285 313.649 420.765 315.296L412.367 324.302H425.895V327H407.921V324.454L418.637 312.864C419.904 311.521 420.828 310.356 421.411 309.368C422.019 308.38 422.323 307.227 422.323 305.91C422.323 304.593 421.867 303.516 420.955 302.68C420.068 301.844 418.726 301.426 416.927 301.426C413.431 301.426 411.582 303.047 411.379 306.29L408.491 305.834ZM434.361 319.704C434.513 323.149 436.565 324.872 440.517 324.872C442.518 324.872 444.013 324.087 445.001 322.516C446.014 320.92 446.584 318.298 446.711 314.65C444.608 315.258 442.594 315.562 440.669 315.562C438.769 315.562 437.198 315.347 435.957 314.916C434.716 314.46 433.753 313.839 433.069 313.054C431.802 311.559 431.169 309.634 431.169 307.278C431.169 304.897 432.018 302.883 433.715 301.236C435.412 299.564 437.857 298.728 441.049 298.728C444.241 298.728 446.521 299.919 447.889 302.3C449.282 304.656 449.979 308.165 449.979 312.826C449.979 317.259 449.333 320.743 448.041 323.276C446.622 326.113 444.038 327.532 440.289 327.532C437.528 327.532 435.412 326.886 433.943 325.594C432.474 324.302 431.663 322.453 431.511 320.046L434.361 319.704ZM434.437 307.24C434.437 308.861 434.931 310.217 435.919 311.306C436.932 312.395 438.49 312.94 440.593 312.94C442.696 312.94 444.748 312.687 446.749 312.18C446.698 308.329 446.217 305.581 445.305 303.934C444.418 302.262 442.924 301.426 440.821 301.426C438.744 301.426 437.16 301.983 436.071 303.098C434.982 304.213 434.437 305.593 434.437 307.24ZM459.319 326.126C459.268 326.405 459.078 326.671 458.749 326.924C458.419 327.177 457.951 327.304 457.343 327.304C456.76 327.304 456.304 327.177 455.975 326.924C455.671 326.671 455.481 326.405 455.405 326.126C455.354 325.822 455.329 325.48 455.329 325.1C455.329 324.695 455.341 324.378 455.367 324.15C455.417 323.922 455.506 323.681 455.633 323.428C455.835 322.896 456.393 322.63 457.305 322.63C458.217 322.63 458.799 322.845 459.053 323.276C459.306 323.681 459.433 324.188 459.433 324.796C459.433 325.379 459.395 325.822 459.319 326.126ZM474.311 301.426C471.955 301.426 470.309 302.452 469.371 304.504C468.586 306.201 468.143 308.709 468.041 312.028C470.271 311.369 472.411 311.04 474.463 311.04C480.67 311.04 483.773 313.586 483.773 318.678C483.748 321.465 482.963 323.643 481.417 325.214C479.872 326.759 477.592 327.532 474.577 327.532C471.107 327.532 468.599 326.379 467.053 324.074C465.533 321.743 464.773 318.425 464.773 314.118C464.773 306.518 466.407 301.755 469.675 299.83C470.942 299.095 472.462 298.728 474.235 298.728C479.859 298.728 482.823 301.261 483.127 306.328L480.277 306.632C480.1 303.161 478.111 301.426 474.311 301.426ZM480.505 318.678C480.505 317.158 480.011 315.929 479.023 314.992C478.035 314.055 476.477 313.586 474.349 313.586C472.221 313.586 470.119 313.903 468.041 314.536C468.143 318.184 468.687 320.819 469.675 322.44C470.663 324.061 472.247 324.872 474.425 324.872C478.479 324.872 480.505 322.807 480.505 318.678ZM503.107 317.652C502.55 318.412 501.714 319.02 500.599 319.476C499.51 319.932 498.205 320.16 496.685 320.16C495.165 320.16 493.823 319.932 492.657 319.476L490.947 321.148C490.365 321.705 490.073 322.339 490.073 323.048C490.073 323.985 490.656 324.454 491.821 324.454H500.333C502.183 324.454 503.627 324.948 504.665 325.936C505.729 326.899 506.261 328.089 506.261 329.508C506.261 330.952 505.983 332.092 505.425 332.928C504.868 333.789 504.07 334.423 503.031 334.828C501.233 335.512 498.902 335.854 496.039 335.854C493.177 335.854 490.96 335.474 489.389 334.714C487.844 333.979 487.071 332.725 487.071 330.952C487.071 329.204 487.831 327.785 489.351 326.696C487.907 326.139 487.185 325.049 487.185 323.428C487.185 322.212 487.717 321.072 488.781 320.008L490.605 318.184C489.263 316.867 488.591 314.954 488.591 312.446C488.591 310.419 489.111 308.684 490.149 307.24C490.707 306.48 491.53 305.872 492.619 305.416C493.734 304.96 495.013 304.732 496.457 304.732C497.927 304.732 499.168 304.909 500.181 305.264H505.919V307.43H503.221C504.184 308.747 504.665 310.419 504.665 312.446C504.665 314.473 504.146 316.208 503.107 317.652ZM496.609 307.088C493.367 307.088 491.745 308.874 491.745 312.446C491.745 316.018 493.367 317.804 496.609 317.804C499.877 317.804 501.511 316.018 501.511 312.446C501.511 308.874 499.877 307.088 496.609 307.088ZM490.149 330.116C490.149 331.383 490.669 332.219 491.707 332.624C492.746 333.029 494.355 333.232 496.533 333.232C498.737 333.232 500.346 333.004 501.359 332.548C502.398 332.117 502.917 331.193 502.917 329.774C502.917 328.786 502.55 328.077 501.815 327.646C501.106 327.215 500.27 327 499.307 327H491.707C490.669 327.836 490.149 328.875 490.149 330.116Z" fill="black"/>
<path d="M18.376 397.496C20.072 397.976 21.264 398.56 21.952 399.248C22.656 399.936 23.008 401 23.008 402.44C23.008 403.864 22.504 405.04 21.496 405.968C20.504 406.88 19.056 407.336 17.152 407.336C15.264 407.336 13.88 406.944 13 406.16C12.12 405.376 11.568 404.248 11.344 402.776L13.072 402.464C13.376 404.576 14.68 405.632 16.984 405.632C19.592 405.632 20.896 404.6 20.896 402.536C20.896 401.64 20.656 400.976 20.176 400.544C19.696 400.112 18.896 399.744 17.776 399.44L16.192 398.984C14.544 398.536 13.384 397.968 12.712 397.28C12.04 396.576 11.704 395.512 11.704 394.088C11.704 392.648 12.184 391.464 13.144 390.536C14.104 389.608 15.496 389.144 17.32 389.144C19.16 389.144 20.496 389.536 21.328 390.32C22.16 391.104 22.688 392.232 22.912 393.704L21.184 394.016C20.88 391.904 19.664 390.848 17.536 390.848C15.056 390.848 13.816 391.88 13.816 393.944C13.816 394.84 14.032 395.512 14.464 395.96C14.912 396.392 15.664 396.752 16.72 397.04L18.376 397.496ZM34.6638 393.848C35.6238 394.536 36.1038 395.832 36.1038 397.736V407H34.7358L34.2078 404.864C32.6718 406.512 30.9838 407.336 29.1438 407.336C27.9278 407.336 27.0318 407.016 26.4558 406.376C25.8958 405.736 25.6158 404.872 25.6158 403.784C25.6158 402.696 25.9518 401.816 26.6238 401.144C27.3118 400.472 28.5918 399.984 30.4638 399.68L34.0398 399.104V397.736C34.0398 396.552 33.7838 395.736 33.2718 395.288C32.7758 394.84 32.0878 394.616 31.2078 394.616C29.4478 394.616 28.3998 395.472 28.0638 397.184L26.3838 396.68C26.6398 395.496 27.1758 394.576 27.9918 393.92C28.8078 393.264 29.9118 392.936 31.3038 392.936C32.7118 392.936 33.8318 393.24 34.6638 393.848ZM29.7198 405.752C31.1598 405.752 32.5998 404.976 34.0398 403.424V400.544L30.6558 401.12C29.5198 401.328 28.7358 401.656 28.3038 402.104C27.8718 402.536 27.6558 403.072 27.6558 403.712C27.6558 404.336 27.8238 404.832 28.1598 405.2C28.4958 405.568 29.0158 405.752 29.7198 405.752ZM38.9103 394.688V393.272H41.2623V390.776L43.3263 389.96V393.272H46.2303V394.688H43.3263V403.784C43.3263 404.504 43.4223 405.016 43.6143 405.32C43.8223 405.608 44.1183 405.752 44.5023 405.752C44.8863 405.752 45.3583 405.688 45.9183 405.56L46.1583 406.952C45.2943 407.208 44.5583 407.336 43.9503 407.336C43.3583 407.336 42.8703 407.24 42.4863 407.048C42.1023 406.856 41.8303 406.568 41.6703 406.184C41.3983 405.608 41.2623 404.832 41.2623 403.856V394.688H38.9103ZM53.0397 407.336C51.6157 407.336 50.5837 406.984 49.9437 406.28C49.3037 405.56 48.9837 404.488 48.9837 403.064V393.272H51.0477V402.92C51.0477 403.864 51.2477 404.56 51.6477 405.008C52.0637 405.44 52.7037 405.656 53.5677 405.656C55.1197 405.656 56.5677 404.864 57.9117 403.28V393.272H59.9757V407H58.6077L57.9597 404.96C56.4717 406.544 54.8317 407.336 53.0397 407.336ZM67.1314 407H65.0674V393.272H66.2914L67.0354 395.72C68.1554 393.944 69.7954 393.016 71.9554 392.936V394.832C69.7954 394.912 68.1874 395.824 67.1314 397.568V407ZM82.4763 393.848C83.4363 394.536 83.9163 395.832 83.9163 397.736V407H82.5483L82.0203 404.864C80.4843 406.512 78.7963 407.336 76.9563 407.336C75.7403 407.336 74.8443 407.016 74.2683 406.376C73.7083 405.736 73.4283 404.872 73.4283 403.784C73.4283 402.696 73.7643 401.816 74.4363 401.144C75.1243 400.472 76.4043 399.984 78.2763 399.68L81.8523 399.104V397.736C81.8523 396.552 81.5963 395.736 81.0843 395.288C80.5883 394.84 79.9003 394.616 79.0203 394.616C77.2603 394.616 76.2123 395.472 75.8763 397.184L74.1963 396.68C74.4523 395.496 74.9883 394.576 75.8043 393.92C76.6203 393.264 77.7243 392.936 79.1163 392.936C80.5243 392.936 81.6443 393.24 82.4763 393.848ZM77.5323 405.752C78.9723 405.752 80.4123 404.976 81.8523 403.424V400.544L78.4683 401.12C77.3323 401.328 76.5483 401.656 76.1163 402.104C75.6843 402.536 75.4683 403.072 75.4683 403.712C75.4683 404.336 75.6363 404.832 75.9723 405.2C76.3083 405.568 76.8283 405.752 77.5323 405.752ZM86.7228 394.688V393.272H89.0748V390.776L91.1388 389.96V393.272H94.0428V394.688H91.1388V403.784C91.1388 404.504 91.2348 405.016 91.4268 405.32C91.6348 405.608 91.9308 405.752 92.3148 405.752C92.6988 405.752 93.1708 405.688 93.7308 405.56L93.9708 406.952C93.1068 407.208 92.3708 407.336 91.7628 407.336C91.1708 407.336 90.6828 407.24 90.2988 407.048C89.9148 406.856 89.6428 406.568 89.4828 406.184C89.2108 405.608 89.0748 404.832 89.0748 403.856V394.688H86.7228ZM101.62 407.336C99.5242 407.336 98.0282 406.744 97.1322 405.56C96.2362 404.36 95.7882 402.552 95.7882 400.136C95.7882 395.336 97.7002 392.936 101.524 392.936C105.3 392.936 107.188 395.24 107.188 399.848V400.352H97.8282C97.8442 402.24 98.1322 403.6 98.6922 404.432C99.2522 405.248 100.228 405.656 101.62 405.656C103.892 405.656 105.108 404.736 105.268 402.896L106.972 402.992C106.668 405.888 104.884 407.336 101.62 407.336ZM105.124 398.816C105.044 397.472 104.74 396.44 104.212 395.72C103.684 394.984 102.796 394.616 101.548 394.616C100.3 394.616 99.4042 394.992 98.8602 395.744C98.3162 396.48 97.9882 397.504 97.8762 398.816H105.124ZM114.079 407.336C111.135 407.336 109.663 404.936 109.663 400.136C109.663 395.336 111.447 392.936 115.015 392.936C116.247 392.936 117.511 393.248 118.807 393.872V388.808L120.871 388.568V407H119.503L118.903 404.912C117.447 406.528 115.839 407.336 114.079 407.336ZM114.751 405.656C116.191 405.656 117.543 404.888 118.807 403.352V395.504C117.655 394.88 116.527 394.568 115.423 394.568C114.079 394.568 113.127 395.056 112.567 396.032C112.007 397.008 111.727 398.376 111.727 400.136C111.727 403.816 112.735 405.656 114.751 405.656ZM444.504 405.656C445.784 405.656 446.736 405.312 447.36 404.624C448 403.92 448.32 402.984 448.32 401.816C448.32 400.648 447.864 399.752 446.952 399.128C446.04 398.504 444.464 398.192 442.224 398.192H439.344L439.896 389.48H449.4V391.184H441.648L441.288 396.464H442.416C445.136 396.464 447.144 396.912 448.44 397.808C449.752 398.704 450.408 400.008 450.408 401.72C450.408 403.416 449.896 404.776 448.872 405.8C447.864 406.824 446.448 407.336 444.624 407.336C442.816 407.336 441.448 406.912 440.52 406.064C439.608 405.216 439.104 404 439.008 402.416L440.832 402.248C440.96 404.52 442.184 405.656 444.504 405.656ZM455.827 406.448C455.795 406.624 455.675 406.792 455.467 406.952C455.259 407.112 454.963 407.192 454.579 407.192C454.211 407.192 453.923 407.112 453.715 406.952C453.523 406.792 453.403 406.624 453.355 406.448C453.323 406.256 453.307 406.04 453.307 405.8C453.307 405.544 453.315 405.344 453.331 405.2C453.363 405.056 453.419 404.904 453.499 404.744C453.627 404.408 453.979 404.24 454.555 404.24C455.131 404.24 455.499 404.376 455.659 404.648C455.819 404.904 455.899 405.224 455.899 405.608C455.899 405.976 455.875 406.256 455.827 406.448ZM465.296 390.848C463.808 390.848 462.768 391.496 462.176 392.792C461.68 393.864 461.4 395.448 461.336 397.544C462.744 397.128 464.096 396.92 465.392 396.92C469.312 396.92 471.272 398.528 471.272 401.744C471.256 403.504 470.76 404.88 469.784 405.872C468.808 406.848 467.368 407.336 465.464 407.336C463.272 407.336 461.688 406.608 460.712 405.152C459.752 403.68 459.272 401.584 459.272 398.864C459.272 394.064 460.304 391.056 462.368 389.84C463.168 389.376 464.128 389.144 465.248 389.144C468.8 389.144 470.672 390.744 470.864 393.944L469.064 394.136C468.952 391.944 467.696 390.848 465.296 390.848ZM469.208 401.744C469.208 400.784 468.896 400.008 468.272 399.416C467.648 398.824 466.664 398.528 465.32 398.528C463.976 398.528 462.648 398.728 461.336 399.128C461.4 401.432 461.744 403.096 462.368 404.12C462.992 405.144 463.992 405.656 465.368 405.656C467.928 405.656 469.208 404.352 469.208 401.744ZM483.483 401.096C483.131 401.576 482.603 401.96 481.899 402.248C481.211 402.536 480.387 402.68 479.427 402.68C478.467 402.68 477.619 402.536 476.883 402.248L475.803 403.304C475.435 403.656 475.251 404.056 475.251 404.504C475.251 405.096 475.619 405.392 476.355 405.392H481.731C482.899 405.392 483.811 405.704 484.467 406.328C485.139 406.936 485.475 407.688 485.475 408.584C485.475 409.496 485.299 410.216 484.947 410.744C484.595 411.288 484.091 411.688 483.435 411.944C482.299 412.376 480.827 412.592 479.019 412.592C477.211 412.592 475.811 412.352 474.819 411.872C473.843 411.408 473.355 410.616 473.355 409.496C473.355 408.392 473.835 407.496 474.795 406.808C473.883 406.456 473.427 405.768 473.427 404.744C473.427 403.976 473.763 403.256 474.435 402.584L475.587 401.432C474.739 400.6 474.315 399.392 474.315 397.808C474.315 396.528 474.643 395.432 475.299 394.52C475.651 394.04 476.171 393.656 476.859 393.368C477.563 393.08 478.371 392.936 479.283 392.936C480.211 392.936 480.995 393.048 481.635 393.272H485.259V394.64H483.555C484.163 395.472 484.467 396.528 484.467 397.808C484.467 399.088 484.139 400.184 483.483 401.096ZM479.379 394.424C477.331 394.424 476.307 395.552 476.307 397.808C476.307 400.064 477.331 401.192 479.379 401.192C481.443 401.192 482.475 400.064 482.475 397.808C482.475 395.552 481.443 394.424 479.379 394.424ZM475.299 408.968C475.299 409.768 475.627 410.296 476.283 410.552C476.939 410.808 477.955 410.936 479.331 410.936C480.723 410.936 481.739 410.792 482.379 410.504C483.035 410.232 483.363 409.648 483.363 408.752C483.363 408.128 483.131 407.68 482.667 407.408C482.219 407.136 481.691 407 481.083 407H476.283C475.627 407.528 475.299 408.184 475.299 408.968Z" fill="black"/>
<path d="M17.704 478.496H14.656V485H12.544V467.48H17.704C21.32 467.48 23.128 469.32 23.128 473C23.128 476.664 21.32 478.496 17.704 478.496ZM14.656 476.816H17.584C19.872 476.816 21.016 475.544 21.016 473C21.016 470.44 19.872 469.16 17.584 469.16H14.656V476.816ZM29.3648 483.224C29.9088 483.512 30.5808 483.656 31.3808 483.656C32.1808 483.656 32.8448 483.512 33.3728 483.224C33.9168 482.92 34.3168 482.496 34.5728 481.952C34.8288 481.392 35.0048 480.816 35.1008 480.224C35.2128 479.616 35.2688 478.92 35.2688 478.136C35.2688 477.352 35.2128 476.664 35.1008 476.072C35.0048 475.464 34.8288 474.888 34.5728 474.344C34.3168 473.784 33.9168 473.36 33.3728 473.072C32.8448 472.768 32.1808 472.616 31.3808 472.616C30.5808 472.616 29.9088 472.768 29.3648 473.072C28.8368 473.36 28.4368 473.784 28.1648 474.344C27.9088 474.888 27.7328 475.456 27.6368 476.048C27.5408 476.64 27.4928 477.336 27.4928 478.136C27.4928 478.936 27.5408 479.632 27.6368 480.224C27.7328 480.816 27.9088 481.392 28.1648 481.952C28.4368 482.496 28.8368 482.92 29.3648 483.224ZM37.3328 478.136C37.3328 482.936 35.3488 485.336 31.3808 485.336C27.4128 485.336 25.4288 482.936 25.4288 478.136C25.4288 473.336 27.4128 470.936 31.3808 470.936C35.3488 470.936 37.3328 473.336 37.3328 478.136ZM43.2252 485H41.1612V466.808L43.2252 466.52V485ZM51.0936 490.88L49.2216 490.544L51.3336 485.096L46.1496 471.272H48.2856L52.3416 482.384L56.2776 471.272H58.3896L51.0936 490.88ZM65.1569 485.336C63.7329 485.336 62.7009 484.984 62.0609 484.28C61.4209 483.56 61.1009 482.488 61.1009 481.064V471.272H63.1649V480.92C63.1649 481.864 63.3649 482.56 63.7649 483.008C64.1809 483.44 64.8209 483.656 65.6849 483.656C67.2369 483.656 68.6849 482.864 70.0289 481.28V471.272H72.0929V485H70.7249L70.0769 482.96C68.5889 484.544 66.9489 485.336 65.1569 485.336ZM78.9846 472.712C80.6006 471.528 82.1926 470.936 83.7606 470.936C85.3286 470.936 86.4326 471.296 87.0726 472.016C87.7126 472.72 88.0326 473.8 88.0326 475.256V485H85.9686V475.304C85.9686 474.344 85.7846 473.656 85.4166 473.24C85.0486 472.824 84.4326 472.616 83.5686 472.616C82.0806 472.616 80.6406 473.152 79.2486 474.224V485H77.1846V471.272H78.4086L78.9846 472.712ZM97.8558 477.344C99.2958 477.696 100.32 478.168 100.928 478.76C101.552 479.336 101.864 480.208 101.864 481.376C101.864 482.528 101.432 483.464 100.568 484.184C99.7038 484.904 98.4238 485.264 96.7278 485.264C95.0318 485.264 93.7998 484.944 93.0318 484.304C92.2798 483.648 91.7998 482.704 91.5918 481.472L93.2718 481.208C93.5118 482.824 94.6078 483.632 96.5598 483.632C98.7198 483.632 99.7998 482.904 99.7998 481.448C99.7998 480.808 99.5998 480.336 99.1998 480.032C98.8158 479.728 98.1198 479.448 97.1118 479.192L95.7438 478.856C94.3518 478.504 93.3598 478.04 92.7678 477.464C92.1918 476.888 91.9038 476.016 91.9038 474.848C91.9038 473.664 92.3198 472.72 93.1518 472.016C93.9838 471.296 95.2078 470.936 96.8238 470.936C98.4558 470.936 99.6318 471.264 100.352 471.92C101.088 472.56 101.56 473.496 101.768 474.728L100.064 474.992C99.8558 473.376 98.8318 472.568 96.9918 472.568C94.9758 472.568 93.9678 473.296 93.9678 474.752C93.9678 475.392 94.1518 475.872 94.5198 476.192C94.8878 476.496 95.5358 476.768 96.4638 477.008L97.8558 477.344ZM113.437 471.848C114.397 472.536 114.877 473.832 114.877 475.736V485H113.509L112.981 482.864C111.445 484.512 109.757 485.336 107.917 485.336C106.701 485.336 105.805 485.016 105.229 484.376C104.669 483.736 104.389 482.872 104.389 481.784C104.389 480.696 104.725 479.816 105.397 479.144C106.085 478.472 107.365 477.984 109.237 477.68L112.813 477.104V475.736C112.813 474.552 112.557 473.736 112.045 473.288C111.549 472.84 110.861 472.616 109.981 472.616C108.221 472.616 107.173 473.472 106.837 475.184L105.157 474.68C105.413 473.496 105.949 472.576 106.765 471.92C107.581 471.264 108.685 470.936 110.077 470.936C111.485 470.936 112.605 471.24 113.437 471.848ZM108.493 483.752C109.933 483.752 111.373 482.976 112.813 481.424V478.544L109.429 479.12C108.293 479.328 107.509 479.656 107.077 480.104C106.645 480.536 106.429 481.072 106.429 481.712C106.429 482.336 106.597 482.832 106.933 483.2C107.269 483.568 107.789 483.752 108.493 483.752ZM117.684 472.688V471.272H120.036V468.776L122.1 467.96V471.272H125.004V472.688H122.1V481.784C122.1 482.504 122.196 483.016 122.388 483.32C122.596 483.608 122.892 483.752 123.276 483.752C123.66 483.752 124.132 483.688 124.692 483.56L124.932 484.952C124.068 485.208 123.332 485.336 122.724 485.336C122.132 485.336 121.644 485.24 121.26 485.048C120.876 484.856 120.604 484.568 120.444 484.184C120.172 483.608 120.036 482.832 120.036 481.856V472.688H117.684ZM131.813 485.336C130.389 485.336 129.357 484.984 128.717 484.28C128.077 483.56 127.757 482.488 127.757 481.064V471.272H129.821V480.92C129.821 481.864 130.021 482.56 130.421 483.008C130.837 483.44 131.477 483.656 132.341 483.656C133.893 483.656 135.341 482.864 136.685 481.28V471.272H138.749V485H137.381L136.733 482.96C135.245 484.544 133.605 485.336 131.813 485.336ZM145.905 485H143.841V471.272H145.065L145.809 473.72C146.929 471.944 148.569 471.016 150.729 470.936V472.832C148.569 472.912 146.961 473.824 145.905 475.568V485ZM161.25 471.848C162.21 472.536 162.69 473.832 162.69 475.736V485H161.322L160.794 482.864C159.258 484.512 157.57 485.336 155.73 485.336C154.514 485.336 153.618 485.016 153.042 484.376C152.482 483.736 152.202 482.872 152.202 481.784C152.202 480.696 152.538 479.816 153.21 479.144C153.898 478.472 155.178 477.984 157.05 477.68L160.626 477.104V475.736C160.626 474.552 160.37 473.736 159.858 473.288C159.362 472.84 158.674 472.616 157.794 472.616C156.034 472.616 154.986 473.472 154.65 475.184L152.97 474.68C153.226 473.496 153.762 472.576 154.578 471.92C155.394 471.264 156.498 470.936 157.89 470.936C159.298 470.936 160.418 471.24 161.25 471.848ZM156.306 483.752C157.746 483.752 159.186 482.976 160.626 481.424V478.544L157.242 479.12C156.106 479.328 155.322 479.656 154.89 480.104C154.458 480.536 154.242 481.072 154.242 481.712C154.242 482.336 154.41 482.832 154.746 483.2C155.082 483.568 155.602 483.752 156.306 483.752ZM165.496 472.688V471.272H167.848V468.776L169.912 467.96V471.272H172.816V472.688H169.912V481.784C169.912 482.504 170.008 483.016 170.2 483.32C170.408 483.608 170.704 483.752 171.088 483.752C171.472 483.752 171.944 483.688 172.504 483.56L172.744 484.952C171.88 485.208 171.144 485.336 170.536 485.336C169.944 485.336 169.456 485.24 169.072 485.048C168.688 484.856 168.416 484.568 168.256 484.184C167.984 483.608 167.848 482.832 167.848 481.856V472.688H165.496ZM180.394 485.336C178.298 485.336 176.802 484.744 175.906 483.56C175.01 482.36 174.562 480.552 174.562 478.136C174.562 473.336 176.474 470.936 180.298 470.936C184.074 470.936 185.962 473.24 185.962 477.848V478.352H176.602C176.618 480.24 176.906 481.6 177.466 482.432C178.026 483.248 179.002 483.656 180.394 483.656C182.666 483.656 183.882 482.736 184.042 480.896L185.746 480.992C185.442 483.888 183.658 485.336 180.394 485.336ZM183.898 476.816C183.818 475.472 183.514 474.44 182.986 473.72C182.458 472.984 181.57 472.616 180.322 472.616C179.074 472.616 178.178 472.992 177.634 473.744C177.09 474.48 176.762 475.504 176.65 476.816H183.898ZM192.853 485.336C189.909 485.336 188.437 482.936 188.437 478.136C188.437 473.336 190.221 470.936 193.789 470.936C195.021 470.936 196.285 471.248 197.581 471.872V466.808L199.645 466.568V485H198.277L197.677 482.912C196.221 484.528 194.613 485.336 192.853 485.336ZM193.525 483.656C194.965 483.656 196.317 482.888 197.581 481.352V473.504C196.429 472.88 195.301 472.568 194.197 472.568C192.853 472.568 191.901 473.056 191.341 474.032C190.781 475.008 190.501 476.376 190.501 478.136C190.501 481.816 191.509 483.656 193.525 483.656ZM447.452 478.184V476.552H455.9V478.184H447.452ZM459.171 478.184V476.552H467.619V478.184H459.171Z" fill="black"/>
<path d="M25.408 545.48H28.288L28.744 563H26.68L26.32 548.24L21.304 561.512H19.384L14.728 548.384L14.368 563H12.304L12.784 545.48H15.64L20.368 558.896L25.408 545.48ZM36.2789 561.224C36.8229 561.512 37.4949 561.656 38.2949 561.656C39.0949 561.656 39.7589 561.512 40.2869 561.224C40.8309 560.92 41.2309 560.496 41.4869 559.952C41.7429 559.392 41.9189 558.816 42.0149 558.224C42.1269 557.616 42.1829 556.92 42.1829 556.136C42.1829 555.352 42.1269 554.664 42.0149 554.072C41.9189 553.464 41.7429 552.888 41.4869 552.344C41.2309 551.784 40.8309 551.36 40.2869 551.072C39.7589 550.768 39.0949 550.616 38.2949 550.616C37.4949 550.616 36.8229 550.768 36.2789 551.072C35.7509 551.36 35.3509 551.784 35.0789 552.344C34.8229 552.888 34.6469 553.456 34.5509 554.048C34.4549 554.64 34.4069 555.336 34.4069 556.136C34.4069 556.936 34.4549 557.632 34.5509 558.224C34.6469 558.816 34.8229 559.392 35.0789 559.952C35.3509 560.496 35.7509 560.92 36.2789 561.224ZM44.2469 556.136C44.2469 560.936 42.2629 563.336 38.2949 563.336C34.3269 563.336 32.3429 560.936 32.3429 556.136C32.3429 551.336 34.3269 548.936 38.2949 548.936C42.2629 548.936 44.2469 551.336 44.2469 556.136ZM49.8753 550.712C51.4913 549.528 53.0833 548.936 54.6513 548.936C56.2193 548.936 57.3233 549.296 57.9633 550.016C58.6033 550.72 58.9233 551.8 58.9233 553.256V563H56.8593V553.304C56.8593 552.344 56.6753 551.656 56.3073 551.24C55.9393 550.824 55.3233 550.616 54.4593 550.616C52.9713 550.616 51.5313 551.152 50.1393 552.224V563H48.0753V549.272H49.2993L49.8753 550.712ZM66.4664 561.224C67.0104 561.512 67.6824 561.656 68.4824 561.656C69.2824 561.656 69.9464 561.512 70.4744 561.224C71.0184 560.92 71.4184 560.496 71.6744 559.952C71.9304 559.392 72.1064 558.816 72.2024 558.224C72.3144 557.616 72.3704 556.92 72.3704 556.136C72.3704 555.352 72.3144 554.664 72.2024 554.072C72.1064 553.464 71.9304 552.888 71.6744 552.344C71.4184 551.784 71.0184 551.36 70.4744 551.072C69.9464 550.768 69.2824 550.616 68.4824 550.616C67.6824 550.616 67.0104 550.768 66.4664 551.072C65.9384 551.36 65.5384 551.784 65.2664 552.344C65.0104 552.888 64.8344 553.456 64.7384 554.048C64.6424 554.64 64.5944 555.336 64.5944 556.136C64.5944 556.936 64.6424 557.632 64.7384 558.224C64.8344 558.816 65.0104 559.392 65.2664 559.952C65.5384 560.496 65.9384 560.92 66.4664 561.224ZM74.4344 556.136C74.4344 560.936 72.4504 563.336 68.4824 563.336C64.5144 563.336 62.5304 560.936 62.5304 556.136C62.5304 551.336 64.5144 548.936 68.4824 548.936C72.4504 548.936 74.4344 551.336 74.4344 556.136ZM82.0788 563.336C80.6548 563.336 79.6228 562.984 78.9828 562.28C78.3428 561.56 78.0228 560.488 78.0228 559.064V549.272H80.0868V558.92C80.0868 559.864 80.2868 560.56 80.6868 561.008C81.1028 561.44 81.7428 561.656 82.6068 561.656C84.1588 561.656 85.6068 560.864 86.9508 559.28V549.272H89.0148V563H87.6468L86.9988 560.96C85.5108 562.544 83.8708 563.336 82.0788 563.336ZM95.9065 550.712C97.5225 549.528 99.1145 548.936 100.683 548.936C102.251 548.936 103.355 549.296 103.995 550.016C104.635 550.72 104.955 551.8 104.955 553.256V563H102.891V553.304C102.891 552.344 102.707 551.656 102.339 551.24C101.971 550.824 101.355 550.616 100.491 550.616C99.0025 550.616 97.5625 551.152 96.1705 552.224V563H94.1065V549.272H95.3305L95.9065 550.712ZM114.778 555.344C116.218 555.696 117.242 556.168 117.85 556.76C118.474 557.336 118.786 558.208 118.786 559.376C118.786 560.528 118.354 561.464 117.49 562.184C116.626 562.904 115.346 563.264 113.65 563.264C111.954 563.264 110.722 562.944 109.954 562.304C109.202 561.648 108.722 560.704 108.514 559.472L110.194 559.208C110.434 560.824 111.53 561.632 113.482 561.632C115.642 561.632 116.722 560.904 116.722 559.448C116.722 558.808 116.522 558.336 116.122 558.032C115.738 557.728 115.042 557.448 114.034 557.192L112.666 556.856C111.274 556.504 110.282 556.04 109.69 555.464C109.114 554.888 108.826 554.016 108.826 552.848C108.826 551.664 109.242 550.72 110.074 550.016C110.906 549.296 112.13 548.936 113.746 548.936C115.378 548.936 116.554 549.264 117.274 549.92C118.01 550.56 118.482 551.496 118.69 552.728L116.986 552.992C116.778 551.376 115.754 550.568 113.914 550.568C111.898 550.568 110.89 551.296 110.89 552.752C110.89 553.392 111.074 553.872 111.442 554.192C111.81 554.496 112.458 554.768 113.386 555.008L114.778 555.344ZM130.359 549.848C131.319 550.536 131.799 551.832 131.799 553.736V563H130.431L129.903 560.864C128.367 562.512 126.679 563.336 124.839 563.336C123.623 563.336 122.727 563.016 122.151 562.376C121.591 561.736 121.311 560.872 121.311 559.784C121.311 558.696 121.647 557.816 122.319 557.144C123.007 556.472 124.287 555.984 126.159 555.68L129.735 555.104V553.736C129.735 552.552 129.479 551.736 128.967 551.288C128.471 550.84 127.783 550.616 126.903 550.616C125.143 550.616 124.095 551.472 123.759 553.184L122.079 552.68C122.335 551.496 122.871 550.576 123.687 549.92C124.503 549.264 125.607 548.936 126.999 548.936C128.407 548.936 129.527 549.24 130.359 549.848ZM125.415 561.752C126.855 561.752 128.295 560.976 129.735 559.424V556.544L126.351 557.12C125.215 557.328 124.431 557.656 123.999 558.104C123.567 558.536 123.351 559.072 123.351 559.712C123.351 560.336 123.519 560.832 123.855 561.2C124.191 561.568 124.711 561.752 125.415 561.752ZM134.606 550.688V549.272H136.958V546.776L139.022 545.96V549.272H141.926V550.688H139.022V559.784C139.022 560.504 139.118 561.016 139.31 561.32C139.518 561.608 139.814 561.752 140.198 561.752C140.582 561.752 141.054 561.688 141.614 561.56L141.854 562.952C140.99 563.208 140.254 563.336 139.646 563.336C139.054 563.336 138.566 563.24 138.182 563.048C137.798 562.856 137.526 562.568 137.366 562.184C137.094 561.608 136.958 560.832 136.958 559.856V550.688H134.606ZM148.735 563.336C147.311 563.336 146.279 562.984 145.639 562.28C144.999 561.56 144.679 560.488 144.679 559.064V549.272H146.743V558.92C146.743 559.864 146.943 560.56 147.343 561.008C147.759 561.44 148.399 561.656 149.263 561.656C150.815 561.656 152.263 560.864 153.607 559.28V549.272H155.671V563H154.303L153.655 560.96C152.167 562.544 150.527 563.336 148.735 563.336ZM162.827 563H160.763V549.272H161.987L162.731 551.72C163.851 549.944 165.491 549.016 167.651 548.936V550.832C165.491 550.912 163.883 551.824 162.827 553.568V563ZM178.172 549.848C179.132 550.536 179.612 551.832 179.612 553.736V563H178.244L177.716 560.864C176.18 562.512 174.492 563.336 172.652 563.336C171.436 563.336 170.54 563.016 169.964 562.376C169.404 561.736 169.124 560.872 169.124 559.784C169.124 558.696 169.46 557.816 170.132 557.144C170.82 556.472 172.1 555.984 173.972 555.68L177.548 555.104V553.736C177.548 552.552 177.292 551.736 176.78 551.288C176.284 550.84 175.596 550.616 174.716 550.616C172.956 550.616 171.908 551.472 171.572 553.184L169.892 552.68C170.148 551.496 170.684 550.576 171.5 549.92C172.316 549.264 173.42 548.936 174.812 548.936C176.22 548.936 177.34 549.24 178.172 549.848ZM173.228 561.752C174.668 561.752 176.108 560.976 177.548 559.424V556.544L174.164 557.12C173.028 557.328 172.244 557.656 171.812 558.104C171.38 558.536 171.164 559.072 171.164 559.712C171.164 560.336 171.332 560.832 171.668 561.2C172.004 561.568 172.524 561.752 173.228 561.752ZM182.418 550.688V549.272H184.77V546.776L186.834 545.96V549.272H189.738V550.688H186.834V559.784C186.834 560.504 186.93 561.016 187.122 561.32C187.33 561.608 187.626 561.752 188.01 561.752C188.394 561.752 188.866 561.688 189.426 561.56L189.666 562.952C188.802 563.208 188.066 563.336 187.458 563.336C186.866 563.336 186.378 563.24 185.994 563.048C185.61 562.856 185.338 562.568 185.178 562.184C184.906 561.608 184.77 560.832 184.77 559.856V550.688H182.418ZM197.316 563.336C195.22 563.336 193.724 562.744 192.828 561.56C191.932 560.36 191.484 558.552 191.484 556.136C191.484 551.336 193.396 548.936 197.22 548.936C200.996 548.936 202.884 551.24 202.884 555.848V556.352H193.524C193.54 558.24 193.828 559.6 194.388 560.432C194.948 561.248 195.924 561.656 197.316 561.656C199.588 561.656 200.804 560.736 200.964 558.896L202.668 558.992C202.364 561.888 200.58 563.336 197.316 563.336ZM200.82 554.816C200.74 553.472 200.436 552.44 199.908 551.72C199.38 550.984 198.492 550.616 197.243 550.616C195.996 550.616 195.1 550.992 194.556 551.744C194.012 552.48 193.684 553.504 193.572 554.816H200.82ZM209.775 563.336C206.831 563.336 205.359 560.936 205.359 556.136C205.359 551.336 207.143 548.936 210.711 548.936C211.943 548.936 213.207 549.248 214.503 549.872V544.808L216.567 544.568V563H215.199L214.599 560.912C213.143 562.528 211.535 563.336 209.775 563.336ZM210.447 561.656C211.887 561.656 213.239 560.888 214.503 559.352V551.504C213.351 550.88 212.223 550.568 211.118 550.568C209.775 550.568 208.823 551.056 208.263 552.032C207.703 553.008 207.423 554.376 207.423 556.136C207.423 559.816 208.431 561.656 210.447 561.656ZM450.452 556.184V554.552H458.9V556.184H450.452ZM462.171 556.184V554.552H470.619V556.184H462.171Z" fill="black"/>
<path d="M10.168 625.16V623.48H21.688V625.16H16.984V641H14.872V625.16H10.168ZM26.4674 641H24.4034V627.272H25.6274L26.3714 629.72C27.4914 627.944 29.1314 627.016 31.2914 626.936V628.832C29.1314 628.912 27.5234 629.824 26.4674 631.568V641ZM41.8122 627.848C42.7722 628.536 43.2522 629.832 43.2522 631.736V641H41.8842L41.3562 638.864C39.8202 640.512 38.1322 641.336 36.2922 641.336C35.0762 641.336 34.1802 641.016 33.6042 640.376C33.0442 639.736 32.7642 638.872 32.7642 637.784C32.7642 636.696 33.1002 635.816 33.7722 635.144C34.4602 634.472 35.7402 633.984 37.6122 633.68L41.1882 633.104V631.736C41.1882 630.552 40.9322 629.736 40.4202 629.288C39.9242 628.84 39.2362 628.616 38.3562 628.616C36.5962 628.616 35.5482 629.472 35.2122 631.184L33.5322 630.68C33.7882 629.496 34.3242 628.576 35.1402 627.92C35.9562 627.264 37.0602 626.936 38.4522 626.936C39.8602 626.936 40.9802 627.24 41.8122 627.848ZM36.8682 639.752C38.3082 639.752 39.7482 638.976 41.1882 637.424V634.544L37.8042 635.12C36.6682 635.328 35.8842 635.656 35.4522 636.104C35.0202 636.536 34.8042 637.072 34.8042 637.712C34.8042 638.336 34.9722 638.832 35.3082 639.2C35.6442 639.568 36.1642 639.752 36.8682 639.752ZM49.8987 628.712C51.5147 627.528 53.1067 626.936 54.6747 626.936C56.2427 626.936 57.3467 627.296 57.9867 628.016C58.6267 628.72 58.9467 629.8 58.9467 631.256V641H56.8827V631.304C56.8827 630.344 56.6987 629.656 56.3307 629.24C55.9627 628.824 55.3467 628.616 54.4827 628.616C52.9947 628.616 51.5547 629.152 50.1627 630.224V641H48.0987V627.272H49.3227L49.8987 628.712ZM68.7698 633.344C70.2098 633.696 71.2338 634.168 71.8418 634.76C72.4658 635.336 72.7778 636.208 72.7778 637.376C72.7778 638.528 72.3458 639.464 71.4818 640.184C70.6178 640.904 69.3378 641.264 67.6418 641.264C65.9458 641.264 64.7138 640.944 63.9458 640.304C63.1938 639.648 62.7138 638.704 62.5058 637.472L64.1858 637.208C64.4258 638.824 65.5218 639.632 67.4738 639.632C69.6338 639.632 70.7138 638.904 70.7138 637.448C70.7138 636.808 70.5138 636.336 70.1138 636.032C69.7298 635.728 69.0338 635.448 68.0258 635.192L66.6578 634.856C65.2658 634.504 64.2738 634.04 63.6818 633.464C63.1058 632.888 62.8178 632.016 62.8178 630.848C62.8178 629.664 63.2338 628.72 64.0658 628.016C64.8978 627.296 66.1218 626.936 67.7378 626.936C69.3698 626.936 70.5458 627.264 71.2658 627.92C72.0018 628.56 72.4738 629.496 72.6818 630.728L70.9778 630.992C70.7698 629.376 69.7458 628.568 67.9058 628.568C65.8898 628.568 64.8818 629.296 64.8818 630.752C64.8818 631.392 65.0658 631.872 65.4338 632.192C65.8018 632.496 66.4498 632.768 67.3778 633.008L68.7698 633.344ZM451.554 634.184V632.552H460.002V634.184H451.554ZM463.273 634.184V632.552H471.721V634.184H463.273Z" fill="black"/>
<path d="M532 749H0V751H532V749Z" fill="#218C0F" mask="url(#path-13-inside-3_1761_3963)"/>
<path d="M22.198 720.702H17.372V731H14.028V703.26H22.198C27.9233 703.26 30.786 706.173 30.786 712C30.786 717.801 27.9233 720.702 22.198 720.702ZM17.372 718.042H22.008C25.6307 718.042 27.442 716.028 27.442 712C27.442 707.947 25.6307 705.92 22.008 705.92H17.372V718.042ZM39.673 731H36.405V709.264H38.343L39.521 713.14C41.2943 710.328 43.891 708.859 47.311 708.732V711.734C43.891 711.861 41.345 713.305 39.673 716.066V731ZM55.9129 728.188C56.7742 728.644 57.8382 728.872 59.1049 728.872C60.3716 728.872 61.4229 728.644 62.2589 728.188C63.1202 727.707 63.7536 727.035 64.1589 726.174C64.5642 725.287 64.8429 724.375 64.9949 723.438C65.1722 722.475 65.2609 721.373 65.2609 720.132C65.2609 718.891 65.1722 717.801 64.9949 716.864C64.8429 715.901 64.5642 714.989 64.1589 714.128C63.7536 713.241 63.1202 712.57 62.2589 712.114C61.4229 711.633 60.3716 711.392 59.1049 711.392C57.8382 711.392 56.7742 711.633 55.9129 712.114C55.0769 712.57 54.4436 713.241 54.0129 714.128C53.6076 714.989 53.3289 715.889 53.1769 716.826C53.0249 717.763 52.9489 718.865 52.9489 720.132C52.9489 721.399 53.0249 722.501 53.1769 723.438C53.3289 724.375 53.6076 725.287 54.0129 726.174C54.4436 727.035 55.0769 727.707 55.9129 728.188ZM68.5289 720.132C68.5289 727.732 65.3876 731.532 59.1049 731.532C52.8222 731.532 49.6809 727.732 49.6809 720.132C49.6809 712.532 52.8222 708.732 59.1049 708.732C65.3876 708.732 68.5289 712.532 68.5289 720.132ZM71.3605 711.506V709.264H75.0845V705.312L78.3525 704.02V709.264H82.9505V711.506H78.3525V725.908C78.3525 727.048 78.5045 727.859 78.8085 728.34C79.1378 728.796 79.6065 729.024 80.2145 729.024C80.8225 729.024 81.5698 728.923 82.4565 728.72L82.8365 730.924C81.4685 731.329 80.3032 731.532 79.3405 731.532C78.4032 731.532 77.6305 731.38 77.0225 731.076C76.4145 730.772 75.9838 730.316 75.7305 729.708C75.2998 728.796 75.0845 727.567 75.0845 726.022V711.506H71.3605ZM94.9481 731.532C91.6294 731.532 89.2608 730.595 87.8421 728.72C86.4234 726.82 85.7141 723.957 85.7141 720.132C85.7141 712.532 88.7414 708.732 94.7961 708.732C100.775 708.732 103.764 712.38 103.764 719.676V720.474H88.9441C88.9694 723.463 89.4254 725.617 90.3121 726.934C91.1988 728.226 92.7441 728.872 94.9481 728.872C98.5454 728.872 100.471 727.415 100.724 724.502L103.422 724.654C102.941 729.239 100.116 731.532 94.9481 731.532ZM100.496 718.042C100.369 715.914 99.8881 714.28 99.0521 713.14C98.2161 711.975 96.8101 711.392 94.8341 711.392C92.8581 711.392 91.4394 711.987 90.5781 713.178C89.7168 714.343 89.1974 715.965 89.0201 718.042H100.496ZM109.659 709.264H112.927V731H109.659V709.264ZM111.293 705.616C110.001 705.616 109.355 704.919 109.355 703.526C109.355 702.107 110.001 701.398 111.293 701.398C112.636 701.398 113.307 702.107 113.307 703.526C113.307 704.919 112.636 705.616 111.293 705.616ZM123.827 711.544C126.386 709.669 128.907 708.732 131.389 708.732C133.872 708.732 135.62 709.302 136.633 710.442C137.647 711.557 138.153 713.267 138.153 715.572V731H134.885V715.648C134.885 714.128 134.594 713.039 134.011 712.38C133.429 711.721 132.453 711.392 131.085 711.392C128.729 711.392 126.449 712.241 124.245 713.938V731H120.977V709.264H122.915L123.827 711.544ZM411.876 707.402V705.35C414.637 705.046 416.791 704.349 418.336 703.26H420.806V728.302H426.582V731H411.724V728.302H417.462V707.402H411.876ZM435.96 707.402V705.35C438.721 705.046 440.875 704.349 442.42 703.26H444.89V728.302H450.666V731H435.808V728.302H441.546V707.402H435.96ZM460.766 730.126C460.715 730.405 460.525 730.671 460.196 730.924C459.867 731.177 459.398 731.304 458.79 731.304C458.207 731.304 457.751 731.177 457.422 730.924C457.118 730.671 456.928 730.405 456.852 730.126C456.801 729.822 456.776 729.48 456.776 729.1C456.776 728.695 456.789 728.378 456.814 728.15C456.865 727.922 456.953 727.681 457.08 727.428C457.283 726.896 457.84 726.63 458.752 726.63C459.664 726.63 460.247 726.845 460.5 727.276C460.753 727.681 460.88 728.188 460.88 728.796C460.88 729.379 460.842 729.822 460.766 730.126ZM466.221 705.958V703.26H484.195V705.768L473.327 731H469.755L480.623 705.958H466.221ZM504.555 721.652C503.997 722.412 503.161 723.02 502.047 723.476C500.957 723.932 499.653 724.16 498.133 724.16C496.613 724.16 495.27 723.932 494.105 723.476L492.395 725.148C491.812 725.705 491.521 726.339 491.521 727.048C491.521 727.985 492.103 728.454 493.269 728.454H501.781C503.63 728.454 505.074 728.948 506.113 729.936C507.177 730.899 507.709 732.089 507.709 733.508C507.709 734.952 507.43 736.092 506.873 736.928C506.315 737.789 505.517 738.423 504.479 738.828C502.68 739.512 500.349 739.854 497.487 739.854C494.624 739.854 492.407 739.474 490.837 738.714C489.291 737.979 488.519 736.725 488.519 734.952C488.519 733.204 489.279 731.785 490.799 730.696C489.355 730.139 488.633 729.049 488.633 727.428C488.633 726.212 489.165 725.072 490.229 724.008L492.053 722.184C490.71 720.867 490.039 718.954 490.039 716.446C490.039 714.419 490.558 712.684 491.597 711.24C492.154 710.48 492.977 709.872 494.067 709.416C495.181 708.96 496.461 708.732 497.905 708.732C499.374 708.732 500.615 708.909 501.629 709.264H507.367V711.43H504.669C505.631 712.747 506.113 714.419 506.113 716.446C506.113 718.473 505.593 720.208 504.555 721.652ZM498.057 711.088C494.814 711.088 493.193 712.874 493.193 716.446C493.193 720.018 494.814 721.804 498.057 721.804C501.325 721.804 502.959 720.018 502.959 716.446C502.959 712.874 501.325 711.088 498.057 711.088ZM491.597 734.116C491.597 735.383 492.116 736.219 493.155 736.624C494.193 737.029 495.802 737.232 497.981 737.232C500.185 737.232 501.793 737.004 502.807 736.548C503.845 736.117 504.365 735.193 504.365 733.774C504.365 732.786 503.997 732.077 503.263 731.646C502.553 731.215 501.717 731 500.755 731H493.155C492.116 731.836 491.597 732.875 491.597 734.116Z" fill="black"/>
</svg>
