<svg width="870" height="291" viewBox="0 0 870 291" fill="none" xmlns="http://www.w3.org/2000/svg">
<path d="M870 281H0V301H870V281Z" fill="#FF5E03" fill-opacity="0.933333" mask="url(#path-1-inside-1_1761_3941)"/>
<mask id="path-3-inside-2_1761_3941" fill="white">
<path d="M9.18661 140.085C9.18661 170.016 19.4435 199.042 38.248 222.328L140.087 140.085L9.18661 140.085Z"/>
</mask>
<path d="M9.18661 140.085C9.18661 170.016 19.4435 199.042 38.248 222.328L140.087 140.085L9.18661 140.085Z" fill="#34BC1E" stroke="#34BC1E" stroke-width="30" mask="url(#path-3-inside-2_1761_3941)"/>
<mask id="path-4-inside-3_1761_3941" fill="white">
<path d="M39.2539 223.677C51.006 237.673 65.5584 249.052 81.9744 257.083C98.3904 265.115 116.306 269.619 134.568 270.308C152.831 270.996 171.035 267.853 188.009 261.081C204.983 254.308 220.351 244.057 233.123 230.986L139.5 139.5L39.2539 223.677Z"/>
</mask>
<path d="M39.2539 223.677C51.006 237.673 65.5584 249.052 81.9744 257.083C98.3904 265.115 116.306 269.619 134.568 270.308C152.831 270.996 171.035 267.853 188.009 261.081C204.983 254.308 220.351 244.057 233.123 230.986L139.5 139.5L39.2539 223.677Z" fill="#FAFF08" stroke="#FAFF08" stroke-width="30" mask="url(#path-4-inside-3_1761_3941)"/>
<mask id="path-5-inside-4_1761_3941" fill="white">
<path d="M9.18661 140.085C9.18661 118.559 14.4956 97.3642 24.6432 78.3793C34.7909 59.3943 49.464 43.2051 67.3628 31.2454C85.2617 19.2858 105.834 11.925 127.257 9.81497C148.68 7.70499 170.293 10.9109 190.181 19.1489C210.069 27.3868 227.619 40.4025 241.275 57.0429C254.932 73.6833 264.273 93.4349 268.473 114.548C272.673 135.661 271.601 157.484 265.352 178.084C259.103 198.684 247.87 217.425 232.648 232.646L140.087 140.085L9.18661 140.085Z"/>
</mask>
<path d="M9.18661 140.085C9.18661 118.559 14.4956 97.3642 24.6432 78.3793C34.7909 59.3943 49.464 43.2051 67.3628 31.2454C85.2617 19.2858 105.834 11.925 127.257 9.81497C148.68 7.70499 170.293 10.9109 190.181 19.1489C210.069 27.3868 227.619 40.4025 241.275 57.0429C254.932 73.6833 264.273 93.4349 268.473 114.548C272.673 135.661 271.601 157.484 265.352 178.084C259.103 198.684 247.87 217.425 232.648 232.646L140.087 140.085L9.18661 140.085Z" fill="#FF5E03" stroke="#FF5E03" stroke-width="30" mask="url(#path-5-inside-4_1761_3941)"/>
<path d="M115.576 130.542C117.198 130.542 118.401 130.111 119.186 129.25C119.997 128.389 120.402 127.211 120.402 125.716C120.402 124.196 119.769 122.993 118.502 122.106C117.236 121.219 114.93 120.776 111.586 120.776H106.874L107.824 106.26H123.784V110.288H112.118L111.7 116.634H113.372C117.527 116.634 120.592 117.445 122.568 119.066C124.544 120.687 125.532 122.955 125.532 125.868C125.532 128.325 124.671 130.39 122.948 132.062C121.251 133.709 118.794 134.532 115.576 134.532C109.8 134.532 106.748 131.72 106.418 126.096L110.864 125.716C111.016 128.933 112.587 130.542 115.576 130.542ZM146.869 134H141.891V128.148H128.477V124.424L139.307 106.26H146.869V124.12H149.795V128.148H146.869V134ZM141.891 124.12V111.01L134.253 124.12H141.891ZM157.185 111.352V108.35C160.149 108.021 162.379 107.324 163.873 106.26H167.939V129.972H173.449V134H157.261V129.972H162.771V111.352H157.185ZM124.022 153.908C121.641 153.908 120.032 154.693 119.196 156.264C118.36 157.809 117.942 160.431 117.942 164.13C117.942 167.803 118.36 170.425 119.196 171.996C120.032 173.567 121.641 174.352 124.022 174.352C125.872 174.352 127.176 173.845 127.936 172.832C128.722 171.819 129.14 170.349 129.19 168.424L133.37 168.614C133.168 171.882 132.382 174.352 131.014 176.024C129.672 177.696 127.341 178.532 124.022 178.532C119.69 178.532 116.701 177.265 115.054 174.732C114.218 173.465 113.623 171.996 113.268 170.324C112.939 168.627 112.774 166.562 112.774 164.13C112.774 161.698 112.939 159.646 113.268 157.974C113.623 156.277 114.218 154.795 115.054 153.528C116.701 150.995 119.69 149.728 124.022 149.728C127.138 149.728 129.38 150.425 130.748 151.818C132.116 153.211 132.952 155.263 133.256 157.974L129.076 158.62C128.924 157.1 128.456 155.935 127.67 155.124C126.885 154.313 125.669 153.908 124.022 153.908ZM145.644 155.732C151.166 155.732 153.928 158.253 153.928 163.294V178H150.622L149.178 175.34C147.151 177.468 144.782 178.532 142.072 178.532C140.146 178.532 138.677 178 137.664 176.936C136.676 175.847 136.182 174.403 136.182 172.604C136.182 170.78 136.752 169.311 137.892 168.196C139.032 167.081 141.16 166.296 144.276 165.84L148.836 165.156V163.332C148.836 160.875 147.67 159.646 145.34 159.646C143.136 159.646 141.831 160.761 141.426 162.99L137.474 161.812C138.436 157.759 141.16 155.732 145.644 155.732ZM143.706 174.808C145.428 174.808 147.138 173.959 148.836 172.262V168.348L145.188 168.994C143.541 169.273 142.452 169.716 141.92 170.324C141.388 170.932 141.122 171.616 141.122 172.376C141.122 173.136 141.35 173.731 141.806 174.162C142.262 174.593 142.895 174.808 143.706 174.808ZM165.771 178H160.679V149.424L165.771 148.74V178Z" fill="black"/>
<path d="M358.873 82.5H355.729V78.804H347.257V76.452L354.097 64.98H358.873V76.26H360.721V78.804H358.873V82.5ZM355.729 76.26V67.98L350.905 76.26H355.729ZM369.661 80.292C371.789 80.292 372.853 79.444 372.853 77.748C372.853 75.924 371.709 75.012 369.421 75.012H367.645V72.66H369.445C370.581 72.66 371.389 72.42 371.869 71.94C372.365 71.46 372.613 70.788 372.613 69.924C372.613 69.044 372.357 68.372 371.845 67.908C371.349 67.428 370.621 67.188 369.661 67.188C367.869 67.188 366.925 68.092 366.829 69.9L364.021 69.516C364.261 66.268 366.213 64.644 369.877 64.644C371.797 64.644 373.269 65.124 374.293 66.084C375.317 67.028 375.829 68.292 375.829 69.876C375.829 71.652 374.965 72.948 373.237 73.764C375.109 74.516 376.045 75.916 376.045 77.964C376.045 79.404 375.477 80.58 374.341 81.492C373.221 82.388 371.709 82.836 369.805 82.836C367.901 82.836 366.445 82.46 365.437 81.708C364.445 80.956 363.869 79.796 363.709 78.228L366.517 77.868C366.709 79.484 367.757 80.292 369.661 80.292ZM385.489 84.084L390.625 64.86H392.665L387.505 84.084H385.489ZM398.929 81.396C398.353 82.26 397.313 82.692 395.809 82.692C394.305 82.692 393.265 82.26 392.689 81.396C392.129 80.516 391.849 79.268 391.849 77.652C391.849 76.036 392.129 74.788 392.689 73.908C393.265 73.012 394.305 72.564 395.809 72.564C397.313 72.564 398.353 73.012 398.929 73.908C399.505 74.788 399.793 76.036 399.793 77.652C399.793 79.268 399.505 80.516 398.929 81.396ZM394.609 77.628C394.609 78.748 394.689 79.532 394.849 79.98C395.009 80.428 395.329 80.652 395.809 80.652C396.305 80.652 396.633 80.428 396.793 79.98C396.953 79.532 397.033 78.748 397.033 77.628C397.033 76.508 396.953 75.732 396.793 75.3C396.633 74.852 396.305 74.628 395.809 74.628C395.329 74.628 395.009 74.852 394.849 75.3C394.689 75.732 394.609 76.508 394.609 77.628ZM385.705 73.572C385.129 74.436 384.089 74.868 382.585 74.868C381.081 74.868 380.041 74.436 379.465 73.572C378.905 72.692 378.625 71.444 378.625 69.828C378.625 68.212 378.905 66.964 379.465 66.084C380.041 65.188 381.081 64.74 382.585 64.74C384.089 64.74 385.129 65.188 385.705 66.084C386.281 66.964 386.569 68.212 386.569 69.828C386.569 71.444 386.281 72.692 385.705 73.572ZM381.385 69.804C381.385 70.924 381.465 71.708 381.625 72.156C381.785 72.604 382.105 72.828 382.585 72.828C383.081 72.828 383.409 72.604 383.569 72.156C383.729 71.708 383.809 70.924 383.809 69.804C383.809 68.684 383.729 67.908 383.569 67.476C383.409 67.028 383.081 66.804 382.585 66.804C382.105 66.804 381.785 67.028 381.625 67.476C381.465 67.908 381.385 68.684 381.385 69.804Z" fill="#FF5E03"/>
<path d="M335.294 126.926C332.938 126.926 331.291 127.952 330.354 130.004C329.568 131.701 329.125 134.209 329.024 137.528C331.253 136.869 333.394 136.54 335.446 136.54C341.652 136.54 344.756 139.086 344.756 144.178C344.73 146.965 343.945 149.143 342.4 150.714C340.854 152.259 338.574 153.032 335.56 153.032C332.089 153.032 329.581 151.879 328.036 149.574C326.516 147.243 325.756 143.925 325.756 139.618C325.756 132.018 327.39 127.255 330.658 125.33C331.924 124.595 333.444 124.228 335.218 124.228C340.842 124.228 343.806 126.761 344.11 131.828L341.26 132.132C341.082 128.661 339.094 126.926 335.294 126.926ZM341.488 144.178C341.488 142.658 340.994 141.429 340.006 140.492C339.018 139.555 337.46 139.086 335.332 139.086C333.204 139.086 331.101 139.403 329.024 140.036C329.125 143.684 329.67 146.319 330.658 147.94C331.646 149.561 333.229 150.372 335.408 150.372C339.461 150.372 341.488 148.307 341.488 144.178ZM362.836 152.272C361.67 152.779 360.315 153.032 358.77 153.032C357.224 153.032 355.869 152.779 354.704 152.272C353.564 151.765 352.626 151.094 351.892 150.258C351.182 149.397 350.612 148.333 350.182 147.066C349.751 145.799 349.447 144.495 349.27 143.152C349.118 141.809 349.042 140.302 349.042 138.63C349.042 136.958 349.118 135.451 349.27 134.108C349.447 132.765 349.751 131.461 350.182 130.194C350.612 128.927 351.182 127.876 351.892 127.04C352.601 126.179 353.538 125.495 354.704 124.988C355.869 124.481 357.224 124.228 358.77 124.228C360.315 124.228 361.67 124.481 362.836 124.988C364.001 125.495 364.938 126.179 365.648 127.04C366.382 127.876 366.965 128.927 367.396 130.194C367.826 131.461 368.118 132.765 368.27 134.108C368.447 135.451 368.536 136.958 368.536 138.63C368.536 140.302 368.447 141.809 368.27 143.152C368.118 144.495 367.826 145.799 367.396 147.066C366.965 148.333 366.382 149.397 365.648 150.258C364.938 151.094 364.001 151.765 362.836 152.272ZM358.77 150.372C361.227 150.372 362.924 149.371 363.862 147.37C364.824 145.343 365.306 142.43 365.306 138.63C365.306 132.803 364.191 129.181 361.962 127.762C361.1 127.205 360.036 126.926 358.77 126.926C357.503 126.926 356.439 127.205 355.578 127.762C354.716 128.319 354.058 129.143 353.602 130.232C352.74 132.208 352.31 135.007 352.31 138.63C352.31 144.482 353.399 148.117 355.578 149.536C356.439 150.093 357.503 150.372 358.77 150.372ZM377.116 151.626C377.065 151.905 376.875 152.171 376.546 152.424C376.216 152.677 375.748 152.804 375.14 152.804C374.557 152.804 374.101 152.677 373.772 152.424C373.468 152.171 373.278 151.905 373.202 151.626C373.151 151.322 373.126 150.98 373.126 150.6C373.126 150.195 373.138 149.878 373.164 149.65C373.214 149.422 373.303 149.181 373.43 148.928C373.632 148.396 374.19 148.13 375.102 148.13C376.014 148.13 376.596 148.345 376.85 148.776C377.103 149.181 377.23 149.688 377.23 150.296C377.23 150.879 377.192 151.322 377.116 151.626ZM385.04 128.902V126.85C387.802 126.546 389.955 125.849 391.5 124.76H393.97V149.802H399.746V152.5H384.888V149.802H390.626V128.902H385.04ZM420.904 143.152C420.347 143.912 419.511 144.52 418.396 144.976C417.307 145.432 416.002 145.66 414.482 145.66C412.962 145.66 411.62 145.432 410.454 144.976L408.744 146.648C408.162 147.205 407.87 147.839 407.87 148.548C407.87 149.485 408.453 149.954 409.618 149.954H418.13C419.98 149.954 421.424 150.448 422.462 151.436C423.526 152.399 424.058 153.589 424.058 155.008C424.058 156.452 423.78 157.592 423.222 158.428C422.665 159.289 421.867 159.923 420.828 160.328C419.03 161.012 416.699 161.354 413.836 161.354C410.974 161.354 408.757 160.974 407.186 160.214C405.641 159.479 404.868 158.225 404.868 156.452C404.868 154.704 405.628 153.285 407.148 152.196C405.704 151.639 404.982 150.549 404.982 148.928C404.982 147.712 405.514 146.572 406.578 145.508L408.402 143.684C407.06 142.367 406.388 140.454 406.388 137.946C406.388 135.919 406.908 134.184 407.946 132.74C408.504 131.98 409.327 131.372 410.416 130.916C411.531 130.46 412.81 130.232 414.254 130.232C415.724 130.232 416.965 130.409 417.978 130.764H423.716V132.93H421.018C421.981 134.247 422.462 135.919 422.462 137.946C422.462 139.973 421.943 141.708 420.904 143.152ZM414.406 132.588C411.164 132.588 409.542 134.374 409.542 137.946C409.542 141.518 411.164 143.304 414.406 143.304C417.674 143.304 419.308 141.518 419.308 137.946C419.308 134.374 417.674 132.588 414.406 132.588ZM407.946 155.616C407.946 156.883 408.466 157.719 409.504 158.124C410.543 158.529 412.152 158.732 414.33 158.732C416.534 158.732 418.143 158.504 419.156 158.048C420.195 157.617 420.714 156.693 420.714 155.274C420.714 154.286 420.347 153.577 419.612 153.146C418.903 152.715 418.067 152.5 417.104 152.5H409.504C408.466 153.336 407.946 154.375 407.946 155.616Z" fill="black"/>
<path d="M349.11 196.372C347.622 196.372 346.51 196.788 345.774 197.62C345.118 198.34 344.718 199.524 344.574 201.172C344.51 201.86 344.478 202.708 344.478 203.716C344.478 204.724 344.51 205.588 344.574 206.308C344.638 207.012 344.766 207.684 344.958 208.324C345.166 208.964 345.438 209.476 345.774 209.86C346.51 210.692 347.622 211.108 349.11 211.108C351.574 211.108 352.846 209.796 352.926 207.172L354.654 207.268C354.542 209.044 354.054 210.42 353.19 211.396C352.342 212.356 350.982 212.836 349.11 212.836C346.47 212.836 344.67 212.02 343.71 210.388C343.214 209.572 342.862 208.636 342.654 207.58C342.462 206.524 342.366 205.244 342.366 203.74C342.366 202.22 342.462 200.932 342.654 199.876C342.862 198.82 343.214 197.884 343.71 197.068C344.67 195.452 346.47 194.644 349.11 194.644C350.854 194.644 352.15 195.044 352.998 195.844C353.846 196.628 354.366 197.756 354.558 199.228L352.854 199.54C352.518 197.428 351.27 196.372 349.11 196.372ZM366.215 199.348C367.175 200.036 367.655 201.332 367.655 203.236V212.5H366.287L365.759 210.364C364.223 212.012 362.535 212.836 360.695 212.836C359.479 212.836 358.583 212.516 358.007 211.876C357.447 211.236 357.167 210.372 357.167 209.284C357.167 208.196 357.503 207.316 358.175 206.644C358.863 205.972 360.143 205.484 362.015 205.18L365.591 204.604V203.236C365.591 202.052 365.335 201.236 364.823 200.788C364.327 200.34 363.639 200.116 362.759 200.116C360.999 200.116 359.951 200.972 359.615 202.684L357.935 202.18C358.191 200.996 358.727 200.076 359.543 199.42C360.359 198.764 361.463 198.436 362.855 198.436C364.263 198.436 365.383 198.74 366.215 199.348ZM361.271 211.252C362.711 211.252 364.151 210.476 365.591 208.924V206.044L362.207 206.62C361.071 206.828 360.287 207.156 359.855 207.604C359.423 208.036 359.207 208.572 359.207 209.212C359.207 209.836 359.375 210.332 359.711 210.7C360.047 211.068 360.567 211.252 361.271 211.252ZM374.565 212.5H372.501V198.772H373.725L374.469 201.22C375.589 199.444 377.229 198.516 379.389 198.436V200.332C377.229 200.412 375.621 201.324 374.565 203.068V212.5ZM388.158 212.836C386.654 212.836 385.206 212.348 383.814 211.372L383.358 212.5H382.134V194.308L384.198 194.068V199.564C385.574 198.812 386.894 198.436 388.158 198.436C391.614 198.436 393.342 200.836 393.342 205.636C393.342 210.436 391.614 212.836 388.158 212.836ZM387.774 200.116C386.542 200.116 385.35 200.46 384.198 201.148V210.028C385.302 210.78 386.43 211.156 387.582 211.156C390.046 211.156 391.278 209.316 391.278 205.636C391.278 204.628 391.174 203.732 390.966 202.948C390.774 202.164 390.406 201.5 389.862 200.956C389.318 200.396 388.622 200.116 387.774 200.116ZM402.149 204.844C403.589 205.196 404.613 205.668 405.221 206.26C405.845 206.836 406.157 207.708 406.157 208.876C406.157 210.028 405.725 210.964 404.861 211.684C403.997 212.404 402.717 212.764 401.021 212.764C399.325 212.764 398.093 212.444 397.325 211.804C396.573 211.148 396.093 210.204 395.885 208.972L397.565 208.708C397.805 210.324 398.901 211.132 400.853 211.132C403.013 211.132 404.093 210.404 404.093 208.948C404.093 208.308 403.893 207.836 403.493 207.532C403.109 207.228 402.413 206.948 401.405 206.692L400.037 206.356C398.645 206.004 397.653 205.54 397.061 204.964C396.485 204.388 396.197 203.516 396.197 202.348C396.197 201.164 396.613 200.22 397.445 199.516C398.277 198.796 399.501 198.436 401.117 198.436C402.749 198.436 403.925 198.764 404.645 199.42C405.381 200.06 405.853 200.996 406.061 202.228L404.357 202.492C404.149 200.876 403.125 200.068 401.285 200.068C399.269 200.068 398.261 200.796 398.261 202.252C398.261 202.892 398.445 203.372 398.813 203.692C399.181 203.996 399.829 204.268 400.757 204.508L402.149 204.844Z" fill="black"/>
<path d="M534.873 82.5H531.729V78.804H523.257V76.452L530.097 64.98H534.873V76.26H536.721V78.804H534.873V82.5ZM531.729 76.26V67.98L526.905 76.26H531.729ZM539.685 77.94C539.685 76.036 540.541 74.652 542.253 73.788C540.701 72.988 539.925 71.628 539.925 69.708C539.925 68.236 540.445 67.028 541.485 66.084C542.541 65.124 544.061 64.644 546.045 64.644C548.045 64.644 549.565 65.124 550.605 66.084C551.661 67.028 552.189 68.236 552.189 69.708C552.189 71.468 551.421 72.772 549.885 73.62C551.581 74.452 552.429 75.892 552.429 77.94C552.429 79.364 551.853 80.54 550.701 81.468C549.549 82.38 547.997 82.836 546.045 82.836C544.109 82.836 542.565 82.38 541.413 81.468C540.261 80.54 539.685 79.364 539.685 77.94ZM542.949 77.868C542.949 78.62 543.213 79.228 543.741 79.692C544.269 80.156 545.037 80.388 546.045 80.388C547.053 80.388 547.829 80.156 548.373 79.692C548.917 79.212 549.189 78.58 549.189 77.796C549.189 76.996 549.013 76.356 548.661 75.876C548.309 75.38 547.701 75.06 546.837 74.916L545.205 74.676C543.701 74.996 542.949 76.06 542.949 77.868ZM546.045 67.092C545.069 67.092 544.341 67.356 543.861 67.884C543.397 68.396 543.165 69.052 543.165 69.852C543.165 70.652 543.333 71.268 543.669 71.7C544.021 72.132 544.637 72.42 545.517 72.564L546.861 72.78C547.549 72.604 548.069 72.26 548.421 71.748C548.773 71.236 548.949 70.596 548.949 69.828C548.949 69.044 548.709 68.396 548.229 67.884C547.765 67.356 547.037 67.092 546.045 67.092ZM561.489 84.084L566.625 64.86H568.665L563.505 84.084H561.489ZM574.929 81.396C574.353 82.26 573.313 82.692 571.809 82.692C570.305 82.692 569.265 82.26 568.689 81.396C568.129 80.516 567.849 79.268 567.849 77.652C567.849 76.036 568.129 74.788 568.689 73.908C569.265 73.012 570.305 72.564 571.809 72.564C573.313 72.564 574.353 73.012 574.929 73.908C575.505 74.788 575.793 76.036 575.793 77.652C575.793 79.268 575.505 80.516 574.929 81.396ZM570.609 77.628C570.609 78.748 570.689 79.532 570.849 79.98C571.009 80.428 571.329 80.652 571.809 80.652C572.305 80.652 572.633 80.428 572.793 79.98C572.953 79.532 573.033 78.748 573.033 77.628C573.033 76.508 572.953 75.732 572.793 75.3C572.633 74.852 572.305 74.628 571.809 74.628C571.329 74.628 571.009 74.852 570.849 75.3C570.689 75.732 570.609 76.508 570.609 77.628ZM561.705 73.572C561.129 74.436 560.089 74.868 558.585 74.868C557.081 74.868 556.041 74.436 555.465 73.572C554.905 72.692 554.625 71.444 554.625 69.828C554.625 68.212 554.905 66.964 555.465 66.084C556.041 65.188 557.081 64.74 558.585 64.74C560.089 64.74 561.129 65.188 561.705 66.084C562.281 66.964 562.569 68.212 562.569 69.828C562.569 71.444 562.281 72.692 561.705 73.572ZM557.385 69.804C557.385 70.924 557.465 71.708 557.625 72.156C557.785 72.604 558.105 72.828 558.585 72.828C559.081 72.828 559.409 72.604 559.569 72.156C559.729 71.708 559.809 70.924 559.809 69.804C559.809 68.684 559.729 67.908 559.569 67.476C559.409 67.028 559.081 66.804 558.585 66.804C558.105 66.804 557.785 67.028 557.625 67.476C557.465 67.908 557.385 68.684 557.385 69.804Z" fill="#FAFF08"/>
<path d="M502.288 131.334C502.49 129.079 503.301 127.331 504.72 126.09C506.138 124.849 508.203 124.228 510.914 124.228C513.65 124.228 515.74 124.899 517.184 126.242C518.653 127.559 519.388 129.371 519.388 131.676C519.388 133.272 518.957 134.779 518.096 136.198C517.26 137.617 516.082 139.149 514.562 140.796L506.164 149.802H519.692V152.5H501.718V149.954L512.434 138.364C513.7 137.021 514.625 135.856 515.208 134.868C515.816 133.88 516.12 132.727 516.12 131.41C516.12 130.093 515.664 129.016 514.752 128.18C513.865 127.344 512.522 126.926 510.724 126.926C507.228 126.926 505.378 128.547 505.176 131.79L502.288 131.334ZM535.378 126.926C533.022 126.926 531.375 127.952 530.438 130.004C529.652 131.701 529.209 134.209 529.108 137.528C531.337 136.869 533.478 136.54 535.53 136.54C541.736 136.54 544.84 139.086 544.84 144.178C544.814 146.965 544.029 149.143 542.484 150.714C540.938 152.259 538.658 153.032 535.644 153.032C532.173 153.032 529.665 151.879 528.12 149.574C526.6 147.243 525.84 143.925 525.84 139.618C525.84 132.018 527.474 127.255 530.742 125.33C532.008 124.595 533.528 124.228 535.302 124.228C540.926 124.228 543.89 126.761 544.194 131.828L541.344 132.132C541.166 128.661 539.178 126.926 535.378 126.926ZM541.572 144.178C541.572 142.658 541.078 141.429 540.09 140.492C539.102 139.555 537.544 139.086 535.416 139.086C533.288 139.086 531.185 139.403 529.108 140.036C529.209 143.684 529.754 146.319 530.742 147.94C531.73 149.561 533.313 150.372 535.492 150.372C539.545 150.372 541.572 148.307 541.572 144.178ZM553.116 151.626C553.065 151.905 552.875 152.171 552.546 152.424C552.216 152.677 551.748 152.804 551.14 152.804C550.557 152.804 550.101 152.677 549.772 152.424C549.468 152.171 549.278 151.905 549.202 151.626C549.151 151.322 549.126 150.98 549.126 150.6C549.126 150.195 549.138 149.878 549.164 149.65C549.214 149.422 549.303 149.181 549.43 148.928C549.632 148.396 550.19 148.13 551.102 148.13C552.014 148.13 552.596 148.345 552.85 148.776C553.103 149.181 553.23 149.688 553.23 150.296C553.23 150.879 553.192 151.322 553.116 151.626ZM568.108 126.926C565.752 126.926 564.106 127.952 563.168 130.004C562.383 131.701 561.94 134.209 561.838 137.528C564.068 136.869 566.208 136.54 568.26 136.54C574.467 136.54 577.57 139.086 577.57 144.178C577.545 146.965 576.76 149.143 575.214 150.714C573.669 152.259 571.389 153.032 568.374 153.032C564.904 153.032 562.396 151.879 560.85 149.574C559.33 147.243 558.57 143.925 558.57 139.618C558.57 132.018 560.204 127.255 563.472 125.33C564.739 124.595 566.259 124.228 568.032 124.228C573.656 124.228 576.62 126.761 576.924 131.828L574.074 132.132C573.897 128.661 571.908 126.926 568.108 126.926ZM574.302 144.178C574.302 142.658 573.808 141.429 572.82 140.492C571.832 139.555 570.274 139.086 568.146 139.086C566.018 139.086 563.916 139.403 561.838 140.036C561.94 143.684 562.484 146.319 563.472 147.94C564.46 149.561 566.044 150.372 568.222 150.372C572.276 150.372 574.302 148.307 574.302 144.178ZM596.904 143.152C596.347 143.912 595.511 144.52 594.396 144.976C593.307 145.432 592.002 145.66 590.482 145.66C588.962 145.66 587.62 145.432 586.454 144.976L584.744 146.648C584.162 147.205 583.87 147.839 583.87 148.548C583.87 149.485 584.453 149.954 585.618 149.954H594.13C595.98 149.954 597.424 150.448 598.462 151.436C599.526 152.399 600.058 153.589 600.058 155.008C600.058 156.452 599.78 157.592 599.222 158.428C598.665 159.289 597.867 159.923 596.828 160.328C595.03 161.012 592.699 161.354 589.836 161.354C586.974 161.354 584.757 160.974 583.186 160.214C581.641 159.479 580.868 158.225 580.868 156.452C580.868 154.704 581.628 153.285 583.148 152.196C581.704 151.639 580.982 150.549 580.982 148.928C580.982 147.712 581.514 146.572 582.578 145.508L584.402 143.684C583.06 142.367 582.388 140.454 582.388 137.946C582.388 135.919 582.908 134.184 583.946 132.74C584.504 131.98 585.327 131.372 586.416 130.916C587.531 130.46 588.81 130.232 590.254 130.232C591.724 130.232 592.965 130.409 593.978 130.764H599.716V132.93H597.018C597.981 134.247 598.462 135.919 598.462 137.946C598.462 139.973 597.943 141.708 596.904 143.152ZM590.406 132.588C587.164 132.588 585.542 134.374 585.542 137.946C585.542 141.518 587.164 143.304 590.406 143.304C593.674 143.304 595.308 141.518 595.308 137.946C595.308 134.374 593.674 132.588 590.406 132.588ZM583.946 155.616C583.946 156.883 584.466 157.719 585.504 158.124C586.543 158.529 588.152 158.732 590.33 158.732C592.534 158.732 594.143 158.504 595.156 158.048C596.195 157.617 596.714 156.693 596.714 155.274C596.714 154.286 596.347 153.577 595.612 153.146C594.903 152.715 594.067 152.5 593.104 152.5H585.504C584.466 153.336 583.946 154.375 583.946 155.616Z" fill="black"/>
<path d="M528.778 194.98H537.61V196.66H530.89V202.756H537.058V204.436H530.89V212.5H528.778V194.98ZM548.976 199.348C549.936 200.036 550.416 201.332 550.416 203.236V212.5H549.048L548.52 210.364C546.984 212.012 545.296 212.836 543.456 212.836C542.24 212.836 541.344 212.516 540.768 211.876C540.208 211.236 539.928 210.372 539.928 209.284C539.928 208.196 540.264 207.316 540.936 206.644C541.624 205.972 542.904 205.484 544.776 205.18L548.352 204.604V203.236C548.352 202.052 548.096 201.236 547.584 200.788C547.088 200.34 546.4 200.116 545.52 200.116C543.76 200.116 542.712 200.972 542.376 202.684L540.696 202.18C540.952 200.996 541.488 200.076 542.304 199.42C543.12 198.764 544.224 198.436 545.616 198.436C547.024 198.436 548.144 198.74 548.976 199.348ZM544.032 211.252C545.472 211.252 546.912 210.476 548.352 208.924V206.044L544.968 206.62C543.832 206.828 543.048 207.156 542.616 207.604C542.184 208.036 541.968 208.572 541.968 209.212C541.968 209.836 542.136 210.332 542.472 210.7C542.808 211.068 543.328 211.252 544.032 211.252ZM553.223 200.188V198.772H555.575V196.276L557.639 195.46V198.772H560.543V200.188H557.639V209.284C557.639 210.004 557.735 210.516 557.927 210.82C558.135 211.108 558.431 211.252 558.815 211.252C559.199 211.252 559.671 211.188 560.231 211.06L560.471 212.452C559.607 212.708 558.871 212.836 558.263 212.836C557.671 212.836 557.183 212.74 556.799 212.548C556.415 212.356 556.143 212.068 555.983 211.684C555.711 211.108 555.575 210.332 555.575 209.356V200.188H553.223ZM568.504 204.844C569.944 205.196 570.968 205.668 571.576 206.26C572.2 206.836 572.512 207.708 572.512 208.876C572.512 210.028 572.08 210.964 571.216 211.684C570.352 212.404 569.072 212.764 567.376 212.764C565.68 212.764 564.448 212.444 563.68 211.804C562.928 211.148 562.448 210.204 562.24 208.972L563.92 208.708C564.16 210.324 565.256 211.132 567.208 211.132C569.368 211.132 570.448 210.404 570.448 208.948C570.448 208.308 570.248 207.836 569.848 207.532C569.464 207.228 568.768 206.948 567.76 206.692L566.392 206.356C565 206.004 564.008 205.54 563.416 204.964C562.84 204.388 562.552 203.516 562.552 202.348C562.552 201.164 562.968 200.22 563.8 199.516C564.632 198.796 565.856 198.436 567.472 198.436C569.104 198.436 570.28 198.764 571 199.42C571.736 200.06 572.208 200.996 572.416 202.228L570.712 202.492C570.504 200.876 569.48 200.068 567.64 200.068C565.624 200.068 564.616 200.796 564.616 202.252C564.616 202.892 564.8 203.372 565.168 203.692C565.536 203.996 566.184 204.268 567.112 204.508L568.504 204.844Z" fill="black"/>
<path d="M707.927 77.94C707.927 76.036 708.783 74.652 710.495 73.788C708.943 72.988 708.167 71.628 708.167 69.708C708.167 68.236 708.687 67.028 709.727 66.084C710.783 65.124 712.303 64.644 714.287 64.644C716.287 64.644 717.807 65.124 718.847 66.084C719.903 67.028 720.431 68.236 720.431 69.708C720.431 71.468 719.663 72.772 718.127 73.62C719.823 74.452 720.671 75.892 720.671 77.94C720.671 79.364 720.095 80.54 718.943 81.468C717.791 82.38 716.239 82.836 714.287 82.836C712.351 82.836 710.807 82.38 709.655 81.468C708.503 80.54 707.927 79.364 707.927 77.94ZM711.191 77.868C711.191 78.62 711.455 79.228 711.983 79.692C712.511 80.156 713.279 80.388 714.287 80.388C715.295 80.388 716.071 80.156 716.615 79.692C717.159 79.212 717.431 78.58 717.431 77.796C717.431 76.996 717.255 76.356 716.903 75.876C716.551 75.38 715.943 75.06 715.079 74.916L713.447 74.676C711.943 74.996 711.191 76.06 711.191 77.868ZM714.287 67.092C713.311 67.092 712.583 67.356 712.103 67.884C711.639 68.396 711.407 69.052 711.407 69.852C711.407 70.652 711.575 71.268 711.911 71.7C712.263 72.132 712.879 72.42 713.759 72.564L715.103 72.78C715.791 72.604 716.311 72.26 716.663 71.748C717.015 71.236 717.191 70.596 717.191 69.828C717.191 69.044 716.951 68.396 716.471 67.884C716.007 67.356 715.279 67.092 714.287 67.092ZM729.731 84.084L734.867 64.86H736.907L731.747 84.084H729.731ZM743.171 81.396C742.595 82.26 741.555 82.692 740.051 82.692C738.547 82.692 737.507 82.26 736.931 81.396C736.371 80.516 736.091 79.268 736.091 77.652C736.091 76.036 736.371 74.788 736.931 73.908C737.507 73.012 738.547 72.564 740.051 72.564C741.555 72.564 742.595 73.012 743.171 73.908C743.747 74.788 744.035 76.036 744.035 77.652C744.035 79.268 743.747 80.516 743.171 81.396ZM738.851 77.628C738.851 78.748 738.931 79.532 739.091 79.98C739.251 80.428 739.571 80.652 740.051 80.652C740.547 80.652 740.875 80.428 741.035 79.98C741.195 79.532 741.275 78.748 741.275 77.628C741.275 76.508 741.195 75.732 741.035 75.3C740.875 74.852 740.547 74.628 740.051 74.628C739.571 74.628 739.251 74.852 739.091 75.3C738.931 75.732 738.851 76.508 738.851 77.628ZM729.947 73.572C729.371 74.436 728.331 74.868 726.827 74.868C725.323 74.868 724.283 74.436 723.707 73.572C723.147 72.692 722.867 71.444 722.867 69.828C722.867 68.212 723.147 66.964 723.707 66.084C724.283 65.188 725.323 64.74 726.827 64.74C728.331 64.74 729.371 65.188 729.947 66.084C730.523 66.964 730.811 68.212 730.811 69.828C730.811 71.444 730.523 72.692 729.947 73.572ZM725.627 69.804C725.627 70.924 725.707 71.708 725.867 72.156C726.027 72.604 726.347 72.828 726.827 72.828C727.323 72.828 727.651 72.604 727.811 72.156C727.971 71.708 728.051 70.924 728.051 69.804C728.051 68.684 727.971 67.908 727.811 67.476C727.651 67.028 727.323 66.804 726.827 66.804C726.347 66.804 726.027 67.028 725.867 67.476C725.707 67.908 725.627 68.684 725.627 69.804Z" fill="#218C0F"/>
<path d="M680.226 128.902V126.85C682.987 126.546 685.14 125.849 686.686 124.76H689.156V149.802H694.932V152.5H680.074V149.802H685.812V128.902H680.226ZM704.31 128.902V126.85C707.071 126.546 709.224 125.849 710.77 124.76H713.24V149.802H719.016V152.5H704.158V149.802H709.896V128.902H704.31ZM729.116 151.626C729.065 151.905 728.875 152.171 728.546 152.424C728.216 152.677 727.748 152.804 727.14 152.804C726.557 152.804 726.101 152.677 725.772 152.424C725.468 152.171 725.278 151.905 725.202 151.626C725.151 151.322 725.126 150.98 725.126 150.6C725.126 150.195 725.138 149.878 725.164 149.65C725.214 149.422 725.303 149.181 725.43 148.928C725.632 148.396 726.19 148.13 727.102 148.13C728.014 148.13 728.596 148.345 728.85 148.776C729.103 149.181 729.23 149.688 729.23 150.296C729.23 150.879 729.192 151.322 729.116 151.626ZM734.57 127.458V124.76H752.544V127.268L741.676 152.5H738.104L748.972 127.458H734.57ZM772.904 143.152C772.347 143.912 771.511 144.52 770.396 144.976C769.307 145.432 768.002 145.66 766.482 145.66C764.962 145.66 763.62 145.432 762.454 144.976L760.744 146.648C760.162 147.205 759.87 147.839 759.87 148.548C759.87 149.485 760.453 149.954 761.618 149.954H770.13C771.98 149.954 773.424 150.448 774.462 151.436C775.526 152.399 776.058 153.589 776.058 155.008C776.058 156.452 775.78 157.592 775.222 158.428C774.665 159.289 773.867 159.923 772.828 160.328C771.03 161.012 768.699 161.354 765.836 161.354C762.974 161.354 760.757 160.974 759.186 160.214C757.641 159.479 756.868 158.225 756.868 156.452C756.868 154.704 757.628 153.285 759.148 152.196C757.704 151.639 756.982 150.549 756.982 148.928C756.982 147.712 757.514 146.572 758.578 145.508L760.402 143.684C759.06 142.367 758.388 140.454 758.388 137.946C758.388 135.919 758.908 134.184 759.946 132.74C760.504 131.98 761.327 131.372 762.416 130.916C763.531 130.46 764.81 130.232 766.254 130.232C767.724 130.232 768.965 130.409 769.978 130.764H775.716V132.93H773.018C773.981 134.247 774.462 135.919 774.462 137.946C774.462 139.973 773.943 141.708 772.904 143.152ZM766.406 132.588C763.164 132.588 761.542 134.374 761.542 137.946C761.542 141.518 763.164 143.304 766.406 143.304C769.674 143.304 771.308 141.518 771.308 137.946C771.308 134.374 769.674 132.588 766.406 132.588ZM759.946 155.616C759.946 156.883 760.466 157.719 761.504 158.124C762.543 158.529 764.152 158.732 766.33 158.732C768.534 158.732 770.143 158.504 771.156 158.048C772.195 157.617 772.714 156.693 772.714 155.274C772.714 154.286 772.347 153.577 771.612 153.146C770.903 152.715 770.067 152.5 769.104 152.5H761.504C760.466 153.336 759.946 154.375 759.946 155.616Z" fill="black"/>
<path d="M692.079 205.996H689.031V212.5H686.919V194.98H692.079C695.695 194.98 697.503 196.82 697.503 200.5C697.503 204.164 695.695 205.996 692.079 205.996ZM689.031 204.316H691.959C694.247 204.316 695.391 203.044 695.391 200.5C695.391 197.94 694.247 196.66 691.959 196.66H689.031V204.316ZM703.116 212.5H701.052V198.772H702.276L703.02 201.22C704.14 199.444 705.78 198.516 707.94 198.436V200.332C705.78 200.412 704.172 201.324 703.116 203.068V212.5ZM713.373 210.724C713.917 211.012 714.589 211.156 715.389 211.156C716.189 211.156 716.853 211.012 717.381 210.724C717.925 210.42 718.325 209.996 718.581 209.452C718.837 208.892 719.013 208.316 719.109 207.724C719.221 207.116 719.277 206.42 719.277 205.636C719.277 204.852 719.221 204.164 719.109 203.572C719.013 202.964 718.837 202.388 718.581 201.844C718.325 201.284 717.925 200.86 717.381 200.572C716.853 200.268 716.189 200.116 715.389 200.116C714.589 200.116 713.917 200.268 713.373 200.572C712.845 200.86 712.445 201.284 712.173 201.844C711.917 202.388 711.741 202.956 711.645 203.548C711.549 204.14 711.501 204.836 711.501 205.636C711.501 206.436 711.549 207.132 711.645 207.724C711.741 208.316 711.917 208.892 712.173 209.452C712.445 209.996 712.845 210.42 713.373 210.724ZM721.341 205.636C721.341 210.436 719.357 212.836 715.389 212.836C711.421 212.836 709.437 210.436 709.437 205.636C709.437 200.836 711.421 198.436 715.389 198.436C719.357 198.436 721.341 200.836 721.341 205.636ZM723.129 200.188V198.772H725.481V196.276L727.545 195.46V198.772H730.449V200.188H727.545V209.284C727.545 210.004 727.641 210.516 727.833 210.82C728.041 211.108 728.337 211.252 728.721 211.252C729.105 211.252 729.577 211.188 730.137 211.06L730.377 212.452C729.513 212.708 728.777 212.836 728.169 212.836C727.577 212.836 727.089 212.74 726.705 212.548C726.321 212.356 726.049 212.068 725.889 211.684C725.617 211.108 725.481 210.332 725.481 209.356V200.188H723.129ZM738.026 212.836C735.93 212.836 734.434 212.244 733.538 211.06C732.642 209.86 732.194 208.052 732.194 205.636C732.194 200.836 734.106 198.436 737.93 198.436C741.706 198.436 743.594 200.74 743.594 205.348V205.852H734.234C734.25 207.74 734.538 209.1 735.098 209.932C735.658 210.748 736.634 211.156 738.026 211.156C740.298 211.156 741.514 210.236 741.674 208.396L743.378 208.492C743.074 211.388 741.29 212.836 738.026 212.836ZM741.53 204.316C741.45 202.972 741.146 201.94 740.618 201.22C740.09 200.484 739.202 200.116 737.954 200.116C736.706 200.116 735.81 200.492 735.266 201.244C734.722 201.98 734.394 203.004 734.282 204.316H741.53ZM747.317 198.772H749.381V212.5H747.317V198.772ZM748.349 196.468C747.533 196.468 747.125 196.028 747.125 195.148C747.125 194.252 747.533 193.804 748.349 193.804C749.197 193.804 749.621 194.252 749.621 195.148C749.621 196.028 749.197 196.468 748.349 196.468ZM756.266 200.212C757.882 199.028 759.474 198.436 761.042 198.436C762.61 198.436 763.714 198.796 764.354 199.516C764.994 200.22 765.314 201.3 765.314 202.756V212.5H763.25V202.804C763.25 201.844 763.066 201.156 762.698 200.74C762.33 200.324 761.714 200.116 760.85 200.116C759.362 200.116 757.922 200.652 756.53 201.724V212.5H754.466V198.772H755.69L756.266 200.212Z" fill="black"/>
</svg>
