<svg width="18" height="18" viewBox="0 0 18 18" fill="none" xmlns="http://www.w3.org/2000/svg">
<rect width="18" height="18" fill="white"/>
<path d="M3.5998 3.6001C3.12241 3.6001 2.66458 3.78974 2.32701 4.12731C1.98945 4.46487 1.7998 4.92271 1.7998 5.4001V6.3001H16.1998V5.4001C16.1998 4.92271 16.0102 4.46487 15.6726 4.12731C15.335 3.78974 14.8772 3.6001 14.3998 3.6001H3.5998Z" fill="#00B4BD"/>
<path fill-rule="evenodd" clip-rule="evenodd" d="M16.1998 8.1001H1.7998V12.6001C1.7998 13.0775 1.98945 13.5353 2.32701 13.8729C2.66458 14.2105 3.12241 14.4001 3.5998 14.4001H14.3998C14.8772 14.4001 15.335 14.2105 15.6726 13.8729C16.0102 13.5353 16.1998 13.0775 16.1998 12.6001V8.1001ZM3.5998 11.7001C3.5998 11.4614 3.69463 11.2325 3.86341 11.0637C4.03219 10.8949 4.26111 10.8001 4.4998 10.8001H5.3998C5.6385 10.8001 5.86742 10.8949 6.0362 11.0637C6.20498 11.2325 6.2998 11.4614 6.2998 11.7001C6.2998 11.9388 6.20498 12.1677 6.0362 12.3365C5.86742 12.5053 5.6385 12.6001 5.3998 12.6001H4.4998C4.26111 12.6001 4.03219 12.5053 3.86341 12.3365C3.69463 12.1677 3.5998 11.9388 3.5998 11.7001ZM8.0998 10.8001C7.86111 10.8001 7.63219 10.8949 7.46341 11.0637C7.29463 11.2325 7.1998 11.4614 7.1998 11.7001C7.1998 11.9388 7.29463 12.1677 7.46341 12.3365C7.63219 12.5053 7.86111 12.6001 8.0998 12.6001H8.9998C9.2385 12.6001 9.46742 12.5053 9.6362 12.3365C9.80498 12.1677 9.8998 11.9388 9.8998 11.7001C9.8998 11.4614 9.80498 11.2325 9.6362 11.0637C9.46742 10.8949 9.2385 10.8001 8.9998 10.8001H8.0998Z" fill="#218C0F"/>
</svg>
