<svg width="149" height="151" viewBox="0 0 149 151" fill="none" xmlns="http://www.w3.org/2000/svg">
<ellipse cx="74.6604" cy="75.0852" rx="74.3206" ry="75.0852" fill="#FF0000"/>
<path d="M59.5385 63.3701V59.6137C59.5385 59.5379 59.4662 59.4705 59.3849 59.4705H55.3552C55.2739 59.4705 55.2016 59.5379 55.2016 59.6137V63.3701C55.2016 63.4459 55.2739 63.5133 55.3552 63.5133H59.3849C59.4753 63.5049 59.5385 63.4459 59.5385 63.3701ZM86.8162 59.4621H64.3634C64.2821 59.4621 64.2098 59.5295 64.2098 59.6053V63.3617C64.2098 63.4375 64.2821 63.5049 64.3634 63.5049H86.8162C86.8975 63.5049 86.9698 63.4375 86.9698 63.3617V59.6053C86.9698 59.5295 86.8975 59.4621 86.8162 59.4621ZM55.2648 68.8026C55.1835 68.8026 55.1112 68.87 55.1112 68.9458V72.7022C55.1112 72.778 55.1835 72.8454 55.2648 72.8454H59.2946C59.3759 72.8454 59.4482 72.778 59.4482 72.7022V68.9458C59.4482 68.87 59.3759 68.8026 59.2946 68.8026H55.2648ZM86.7529 68.8026H64.3001C64.2188 68.8026 64.1465 68.87 64.1465 68.9458V72.7022C64.1465 72.778 64.2188 72.8454 64.3001 72.8454H86.7529C86.8342 72.8454 86.9065 72.778 86.9065 72.7022V68.9458C86.9065 68.8616 86.8433 68.8026 86.7529 68.8026ZM107.146 78.3452C107.082 78.2863 106.992 78.2863 106.929 78.3452L90.602 93.5646C90.5387 93.6236 90.5387 93.7078 90.602 93.7667L93.4571 96.4282C93.5204 96.4872 93.6107 96.4872 93.674 96.4282L110.01 81.2005C110.073 81.1415 110.073 81.0573 110.01 80.9983L107.146 78.3452ZM113.254 77.9662L110.398 75.3047C110.335 75.2458 110.245 75.2458 110.182 75.3047L107.652 77.663C107.588 77.722 107.588 77.8062 107.652 77.8652L110.507 80.5267C110.57 80.5856 110.66 80.5856 110.724 80.5267L113.254 78.1684C113.317 78.1094 113.317 78.0168 113.254 77.9662ZM90.2135 94.2468C90.1321 94.171 89.9966 94.2047 89.9605 94.2974L88.5419 98.1548C88.4967 98.2643 88.6142 98.3738 88.7317 98.3317L92.8698 97.0094C92.9783 96.9757 93.0054 96.8494 92.924 96.7736L90.2135 94.2468Z" fill="white"/>
<path d="M46.4012 42.095H54.0089V47.5696C54.0089 47.6623 54.0902 47.7381 54.1896 47.7381H92.9512C93.0505 47.7381 93.1319 47.6623 93.1319 47.5696V42.095H100.703V77.0482H105.04V38.2207C105.04 38.1281 104.959 38.0523 104.86 38.0523H93.1319V33.5884C93.1319 33.4957 93.0505 33.4199 92.9512 33.4199H54.1896C54.0902 33.4199 54.0089 33.4957 54.0089 33.5884V38.0523H42.2449C42.1455 38.0523 42.0642 38.1281 42.0642 38.2207V106.358C42.0642 106.451 42.1455 106.527 42.2449 106.527H86.8794V102.484H46.4012V42.095ZM58.3459 37.6311C58.3459 37.5385 58.4272 37.4627 58.5266 37.4627H88.6142C88.7136 37.4627 88.7949 37.5385 88.7949 37.6311V43.5269C88.7949 43.6195 88.7136 43.6953 88.6142 43.6953H58.5266C58.4272 43.6953 58.3459 43.6195 58.3459 43.5269V37.6311Z" fill="white"/>
</svg>
