<svg width="149" height="151" viewBox="0 0 149 151" fill="none" xmlns="http://www.w3.org/2000/svg">
<ellipse cx="74.7984" cy="75.6388" rx="74.1324" ry="75.2071" fill="#34BC1E"/>
<mask id="path-2-inside-1_987_719" fill="white">
<path d="M92.3194 111.529H57.4333C56.2158 111.529 55.2276 110.467 55.2276 109.159V105.699C52.2807 105.149 48.9368 103.604 46.2105 101.453C41.9049 98.0592 39.5315 93.6232 39.5315 88.9785V75.5376C39.5315 71.4712 42.6107 68.1726 46.387 68.1726H103.366C107.151 68.1726 110.221 71.4807 110.221 75.5376V88.9691C110.221 93.6232 107.848 98.0498 103.542 101.443C100.807 103.595 97.472 105.149 94.5252 105.69V109.159C94.5252 110.476 93.537 111.529 92.3194 111.529ZM59.6391 106.789H90.1137V103.538C90.1137 102.23 91.1018 101.168 92.3194 101.168C94.3663 101.168 97.8249 100.069 100.931 97.6232C102.748 96.1824 105.81 93.1492 105.81 88.9691V75.5376C105.81 74.0874 104.716 72.912 103.366 72.912H46.387C45.037 72.912 43.943 74.0874 43.943 75.5376V88.9691C43.943 93.1587 46.9957 96.1919 48.8221 97.6232C51.9278 100.078 55.3864 101.168 57.4333 101.168C58.6509 101.168 59.6391 102.23 59.6391 103.538V106.789Z"/>
<path d="M41.7373 78.8457H108.015V82.6372H41.7373V78.8457ZM108.81 47.5372H72.653C71.6824 47.5372 70.8884 46.6842 70.8884 45.6415C70.8884 44.5988 71.6824 43.7457 72.653 43.7457H108.81C109.78 43.7457 110.574 44.5988 110.574 45.6415C110.574 46.6842 109.78 47.5372 108.81 47.5372ZM108.81 55.8596H72.653C71.6824 55.8596 70.8884 55.0065 70.8884 53.9639C70.8884 52.9212 71.6824 52.0681 72.653 52.0681H108.81C109.78 52.0681 110.574 52.9212 110.574 53.9639C110.574 55.0065 109.78 55.8596 108.81 55.8596ZM44.0842 47.5372H41.102C40.1315 47.5372 39.3374 46.6842 39.3374 45.6415C39.3374 44.5988 40.1315 43.7457 41.102 43.7457H44.0842C45.0547 43.7457 45.8488 44.5988 45.8488 45.6415C45.8488 46.6842 45.0635 47.5372 44.0842 47.5372ZM44.0842 55.8596H41.102C40.1315 55.8596 39.3374 55.0065 39.3374 53.9639C39.3374 52.9212 40.1315 52.0681 41.102 52.0681H44.0842C45.0547 52.0681 45.8488 52.9212 45.8488 53.9639C45.8488 55.0065 45.0635 55.8596 44.0842 55.8596Z"/>
<path d="M72.353 40.0585C72.353 39.0158 71.5589 38.1627 70.5884 38.1627H70.5531C70.3414 38.1722 69.2297 38.2291 68.065 38.9021C66.371 39.8784 65.4358 41.6509 65.4358 43.8879V58.2767C65.4358 59.964 64.0065 60.6275 63.8476 60.7033L63.8653 60.6938C63.23 60.9782 62.7801 61.6512 62.7801 62.4474C62.7801 63.4901 63.5741 64.3432 64.5447 64.3432C64.7388 64.3432 64.924 64.3052 65.1005 64.2484C65.1093 64.2484 65.2329 64.1915 65.2858 64.1725C66.7328 63.5185 68.965 61.6227 68.965 58.2862V43.8879C68.965 42.8642 69.3355 42.4945 69.662 42.286C70.1208 41.9922 70.6502 41.9542 70.659 41.9542H70.6325C71.5854 41.9258 72.353 41.0917 72.353 40.0585ZM63.8212 40.0585C63.8212 39.0158 63.0271 38.1627 62.0566 38.1627H62.0213C61.8095 38.1722 60.6978 38.2291 59.5332 38.9021C57.8392 39.8784 56.904 41.6509 56.904 43.8879V58.2767C56.904 59.964 55.4746 60.6275 55.3158 60.7033L55.3335 60.6938C54.6982 60.9782 54.2482 61.6512 54.2482 62.4474C54.2482 63.4901 55.0423 64.3432 56.0128 64.3432C56.2069 64.3432 56.3922 64.3052 56.5687 64.2484C56.5775 64.2484 56.701 64.1915 56.754 64.1725C58.2009 63.5185 60.4331 61.6227 60.4331 58.2862V43.8879C60.4331 42.8642 60.8037 42.4945 61.1302 42.286C61.589 41.9922 62.1183 41.9542 62.1272 41.9542H62.1007C63.0536 41.9258 63.8212 41.0917 63.8212 40.0585ZM54.5835 40.0585C54.5835 39.0158 53.7894 38.1627 52.8189 38.1627H52.7836C52.5719 38.1722 51.4602 38.2291 50.2955 38.9021C48.6015 39.8784 47.6663 41.6509 47.6663 43.8879V58.2767C47.6663 59.964 46.237 60.6275 46.0782 60.7033L46.0958 60.6938C45.4606 60.9782 45.0106 61.6512 45.0106 62.4474C45.0106 63.4901 45.8046 64.3432 46.7752 64.3432C46.9693 64.3432 47.1546 64.3052 47.331 64.2484C47.3398 64.2484 47.4634 64.1915 47.5163 64.1725C48.9633 63.5185 51.1955 61.6227 51.1955 58.2862V43.8879C51.1955 42.8642 51.5661 42.4945 51.8925 42.286C52.3513 41.9922 52.8807 41.9542 52.8895 41.9542H52.863C53.8247 41.9258 54.5835 41.0917 54.5835 40.0585Z"/>
</mask>
<path d="M92.3194 111.529H57.4333C56.2158 111.529 55.2276 110.467 55.2276 109.159V105.699C52.2807 105.149 48.9368 103.604 46.2105 101.453C41.9049 98.0592 39.5315 93.6232 39.5315 88.9785V75.5376C39.5315 71.4712 42.6107 68.1726 46.387 68.1726H103.366C107.151 68.1726 110.221 71.4807 110.221 75.5376V88.9691C110.221 93.6232 107.848 98.0498 103.542 101.443C100.807 103.595 97.472 105.149 94.5252 105.69V109.159C94.5252 110.476 93.537 111.529 92.3194 111.529ZM59.6391 106.789H90.1137V103.538C90.1137 102.23 91.1018 101.168 92.3194 101.168C94.3663 101.168 97.8249 100.069 100.931 97.6232C102.748 96.1824 105.81 93.1492 105.81 88.9691V75.5376C105.81 74.0874 104.716 72.912 103.366 72.912H46.387C45.037 72.912 43.943 74.0874 43.943 75.5376V88.9691C43.943 93.1587 46.9957 96.1919 48.8221 97.6232C51.9278 100.078 55.3864 101.168 57.4333 101.168C58.6509 101.168 59.6391 102.23 59.6391 103.538V106.789Z" stroke="white" stroke-width="45" mask="url(#path-2-inside-1_987_719)"/>
<path d="M41.7373 78.8457H108.015V82.6372H41.7373V78.8457ZM108.81 47.5372H72.653C71.6824 47.5372 70.8884 46.6842 70.8884 45.6415C70.8884 44.5988 71.6824 43.7457 72.653 43.7457H108.81C109.78 43.7457 110.574 44.5988 110.574 45.6415C110.574 46.6842 109.78 47.5372 108.81 47.5372ZM108.81 55.8596H72.653C71.6824 55.8596 70.8884 55.0065 70.8884 53.9639C70.8884 52.9212 71.6824 52.0681 72.653 52.0681H108.81C109.78 52.0681 110.574 52.9212 110.574 53.9639C110.574 55.0065 109.78 55.8596 108.81 55.8596ZM44.0842 47.5372H41.102C40.1315 47.5372 39.3374 46.6842 39.3374 45.6415C39.3374 44.5988 40.1315 43.7457 41.102 43.7457H44.0842C45.0547 43.7457 45.8488 44.5988 45.8488 45.6415C45.8488 46.6842 45.0635 47.5372 44.0842 47.5372ZM44.0842 55.8596H41.102C40.1315 55.8596 39.3374 55.0065 39.3374 53.9639C39.3374 52.9212 40.1315 52.0681 41.102 52.0681H44.0842C45.0547 52.0681 45.8488 52.9212 45.8488 53.9639C45.8488 55.0065 45.0635 55.8596 44.0842 55.8596Z" stroke="white" stroke-width="45" mask="url(#path-2-inside-1_987_719)"/>
<path d="M72.353 40.0585C72.353 39.0158 71.5589 38.1627 70.5884 38.1627H70.5531C70.3414 38.1722 69.2297 38.2291 68.065 38.9021C66.371 39.8784 65.4358 41.6509 65.4358 43.8879V58.2767C65.4358 59.964 64.0065 60.6275 63.8476 60.7033L63.8653 60.6938C63.23 60.9782 62.7801 61.6512 62.7801 62.4474C62.7801 63.4901 63.5741 64.3432 64.5447 64.3432C64.7388 64.3432 64.924 64.3052 65.1005 64.2484C65.1093 64.2484 65.2329 64.1915 65.2858 64.1725C66.7328 63.5185 68.965 61.6227 68.965 58.2862V43.8879C68.965 42.8642 69.3355 42.4945 69.662 42.286C70.1208 41.9922 70.6502 41.9542 70.659 41.9542H70.6325C71.5854 41.9258 72.353 41.0917 72.353 40.0585ZM63.8212 40.0585C63.8212 39.0158 63.0271 38.1627 62.0566 38.1627H62.0213C61.8095 38.1722 60.6978 38.2291 59.5332 38.9021C57.8392 39.8784 56.904 41.6509 56.904 43.8879V58.2767C56.904 59.964 55.4746 60.6275 55.3158 60.7033L55.3335 60.6938C54.6982 60.9782 54.2482 61.6512 54.2482 62.4474C54.2482 63.4901 55.0423 64.3432 56.0128 64.3432C56.2069 64.3432 56.3922 64.3052 56.5687 64.2484C56.5775 64.2484 56.701 64.1915 56.754 64.1725C58.2009 63.5185 60.4331 61.6227 60.4331 58.2862V43.8879C60.4331 42.8642 60.8037 42.4945 61.1302 42.286C61.589 41.9922 62.1183 41.9542 62.1272 41.9542H62.1007C63.0536 41.9258 63.8212 41.0917 63.8212 40.0585ZM54.5835 40.0585C54.5835 39.0158 53.7894 38.1627 52.8189 38.1627H52.7836C52.5719 38.1722 51.4602 38.2291 50.2955 38.9021C48.6015 39.8784 47.6663 41.6509 47.6663 43.8879V58.2767C47.6663 59.964 46.237 60.6275 46.0782 60.7033L46.0958 60.6938C45.4606 60.9782 45.0106 61.6512 45.0106 62.4474C45.0106 63.4901 45.8046 64.3432 46.7752 64.3432C46.9693 64.3432 47.1546 64.3052 47.331 64.2484C47.3398 64.2484 47.4634 64.1915 47.5163 64.1725C48.9633 63.5185 51.1955 61.6227 51.1955 58.2862V43.8879C51.1955 42.8642 51.5661 42.4945 51.8925 42.286C52.3513 41.9922 52.8807 41.9542 52.8895 41.9542H52.863C53.8247 41.9258 54.5835 41.0917 54.5835 40.0585Z" stroke="white" stroke-width="45" mask="url(#path-2-inside-1_987_719)"/>
</svg>
