<svg width="61" height="54" viewBox="0 0 61 54" fill="none" xmlns="http://www.w3.org/2000/svg">
<path d="M24.6268 53.0197C22.9361 53.0197 21.33 52.281 20.2311 50.9758L16.8499 47.0356C16.8499 47.0603 16.709 46.9864 16.6527 46.9864H15.6102C5.97358 46.9864 0 44.6962 0 33.3437V23.4933C0 13.1259 7.24155 10.417 13.3278 9.94911C14.0041 9.87524 14.793 9.85059 15.6102 9.85059H33.6435C43.8436 9.85059 49.2536 14.5788 49.2536 23.4933V33.3437C49.2536 34.0578 49.2254 34.7473 49.1127 35.4122C48.6055 40.6575 45.506 46.9864 33.6435 46.9864H32.5164L29.0224 50.9758C27.9235 52.281 26.3174 53.0197 24.6268 53.0197ZM15.6102 13.5445C14.9621 13.5445 14.3422 13.5691 13.7504 13.6183C7.21334 14.1109 4.22657 17.2384 4.22657 23.4933V33.3437C4.22657 41.7903 7.21337 43.2925 15.6102 43.2925H16.7372C18.0052 43.2925 19.4422 43.9082 20.2311 44.7947L23.6124 48.7595C24.2323 49.4982 25.0213 49.4982 25.6412 48.7595L29.0224 44.8193C29.8396 43.8589 31.1357 43.2925 32.5164 43.2925H33.6435C40.8005 43.2925 44.379 40.6575 44.9143 35.0428C44.9989 34.4518 45.027 33.9101 45.027 33.3437V23.4933C45.027 16.6227 41.5049 13.5445 33.6435 13.5445H15.6102Z" fill="#1B1C1A"/>
<path d="M24.6275 31.8646C23.0496 31.8646 21.8098 30.7565 21.8098 29.402C21.8098 28.0476 23.0778 26.9395 24.6275 26.9395C26.1772 26.9395 27.4452 28.0476 27.4452 29.402C27.4452 30.7565 26.2054 31.8646 24.6275 31.8646Z" fill="#1B1C1A"/>
<path d="M33.6419 31.8646C32.064 31.8646 30.8242 30.7565 30.8242 29.402C30.8242 28.0476 32.0922 26.9395 33.6419 26.9395C35.1917 26.9395 36.4596 28.0476 36.4596 29.402C36.4596 30.7565 35.1917 31.8646 33.6419 31.8646Z" fill="#1B1C1A"/>
<path d="M15.6405 31.8646C14.0625 31.8646 12.8228 30.7565 12.8228 29.402C12.8228 28.0476 14.0907 26.9395 15.6405 26.9395C17.1902 26.9395 18.4582 28.0476 18.4582 29.402C18.4582 30.7565 17.1902 31.8646 15.6405 31.8646Z" fill="#1B1C1A"/>
<path d="M47.0264 37.0373C46.4628 37.0373 45.8993 36.8403 45.5048 36.4709C45.054 36.0769 44.857 35.5105 44.9416 34.9687C45.0261 34.4516 45.054 33.9098 45.054 33.3434V23.4931C45.054 16.6225 41.5321 13.5442 33.6707 13.5442H15.6372C14.9891 13.5442 14.3693 13.5689 13.7776 13.6181C13.1577 13.692 12.5095 13.495 12.0587 13.1256C11.6079 12.7315 11.3542 12.1898 11.4106 11.6481C11.9178 6.32887 15.0454 0 26.9079 0H44.9416C55.1417 0 60.5514 4.72819 60.5514 13.6428V23.4931C60.5514 33.8606 53.3102 36.5694 47.2239 37.0373C47.1394 37.0373 47.0827 37.0373 47.0264 37.0373ZM15.9754 9.85035H33.6423C43.8424 9.85035 49.2527 14.5785 49.2527 23.4931V33.0233C54.0428 31.989 56.2969 28.9108 56.2969 23.4931V13.6428C56.2969 6.77214 52.7745 3.69388 44.9131 3.69388H26.88C20.6809 3.69388 17.187 5.66395 15.9754 9.85035Z" fill="#1B1C1A"/>
</svg>
