<svg width="637" height="730" viewBox="0 0 637 730" fill="none" xmlns="http://www.w3.org/2000/svg">
<path d="M637 63H0V65H637V63Z" fill="#218C0F" mask="url(#path-1-inside-1_1761_3964)"/>
<path d="M23.262 29.952C25.9473 30.712 27.8347 31.6367 28.924 32.726C30.0387 33.8153 30.596 35.5 30.596 37.78C30.596 40.0347 29.798 41.8967 28.202 43.366C26.6313 44.81 24.3387 45.532 21.324 45.532C18.3347 45.532 16.1433 44.9113 14.75 43.67C13.3567 42.4287 12.4827 40.6427 12.128 38.312L14.864 37.818C15.3453 41.162 17.41 42.834 21.058 42.834C25.1873 42.834 27.252 41.2 27.252 37.932C27.252 36.5133 26.872 35.462 26.112 34.778C25.352 34.094 24.0853 33.5113 22.312 33.03L19.804 32.308C17.1947 31.5987 15.358 30.6993 14.294 29.61C13.23 28.4953 12.698 26.8107 12.698 24.556C12.698 22.276 13.458 20.4013 14.978 18.932C16.498 17.4627 18.702 16.728 21.59 16.728C24.5033 16.728 26.6187 17.3487 27.936 18.59C29.2533 19.8313 30.0893 21.6173 30.444 23.948L27.708 24.442C27.2267 21.098 25.3013 19.426 21.932 19.426C18.0053 19.426 16.042 21.06 16.042 24.328C16.042 25.7467 16.384 26.8107 17.068 27.52C17.7773 28.204 18.968 28.774 20.64 29.23L23.262 29.952ZM40.9949 42.188C41.8563 42.644 42.9203 42.872 44.1869 42.872C45.4536 42.872 46.5049 42.644 47.3409 42.188C48.2023 41.7067 48.8356 41.0353 49.2409 40.174C49.6463 39.2873 49.9249 38.3753 50.0769 37.438C50.2543 36.4753 50.3429 35.3733 50.3429 34.132C50.3429 32.8907 50.2543 31.8013 50.0769 30.864C49.9249 29.9013 49.6463 28.9893 49.2409 28.128C48.8356 27.2413 48.2023 26.57 47.3409 26.114C46.5049 25.6327 45.4536 25.392 44.1869 25.392C42.9203 25.392 41.8563 25.6327 40.9949 26.114C40.1589 26.57 39.5256 27.2413 39.0949 28.128C38.6896 28.9893 38.4109 29.8887 38.2589 30.826C38.1069 31.7633 38.0309 32.8653 38.0309 34.132C38.0309 35.3987 38.1069 36.5007 38.2589 37.438C38.4109 38.3753 38.6896 39.2873 39.0949 40.174C39.5256 41.0353 40.1589 41.7067 40.9949 42.188ZM53.6109 34.132C53.6109 41.732 50.4696 45.532 44.1869 45.532C37.9043 45.532 34.7629 41.732 34.7629 34.132C34.7629 26.532 37.9043 22.732 44.1869 22.732C50.4696 22.732 53.6109 26.532 53.6109 34.132ZM64.6885 45.532C60.0272 45.532 57.6965 41.732 57.6965 34.132C57.6965 26.532 60.5212 22.732 66.1705 22.732C68.1212 22.732 70.1225 23.226 72.1745 24.214V16.196L75.4425 15.816V45H73.2765L72.3265 41.694C70.0212 44.2527 67.4752 45.532 64.6885 45.532ZM65.7525 42.872C68.0325 42.872 70.1732 41.656 72.1745 39.224V26.798C70.3505 25.81 68.5645 25.316 66.8165 25.316C64.6885 25.316 63.1812 26.0887 62.2945 27.634C61.4079 29.1793 60.9645 31.3453 60.9645 34.132C60.9645 39.9587 62.5605 42.872 65.7525 42.872ZM83.4968 23.264H86.7648V45H83.4968V23.264ZM85.1308 19.616C83.8388 19.616 83.1928 18.9193 83.1928 17.526C83.1928 16.1073 83.8388 15.398 85.1308 15.398C86.4734 15.398 87.1448 16.1073 87.1448 17.526C87.1448 18.9193 86.4734 19.616 85.1308 19.616ZM100.857 45.532C98.6024 45.532 96.9684 44.9747 95.9551 43.86C94.9418 42.72 94.4351 41.0227 94.4351 38.768V23.264H97.7031V38.54C97.7031 40.0347 98.0198 41.1367 98.6531 41.846C99.3118 42.53 100.325 42.872 101.693 42.872C104.15 42.872 106.443 41.618 108.571 39.11V23.264H111.839V45H109.673L108.647 41.77C106.291 44.278 103.694 45.532 100.857 45.532ZM125.943 45.532C123.688 45.532 122.054 44.9747 121.041 43.86C120.028 42.72 119.521 41.0227 119.521 38.768V23.264H122.789V38.54C122.789 40.0347 123.106 41.1367 123.739 41.846C124.398 42.53 125.411 42.872 126.779 42.872C129.236 42.872 131.529 41.618 133.657 39.11V23.264H136.925V45H134.759L133.733 41.77C131.377 44.278 128.78 45.532 125.943 45.532ZM154.829 22.732C157.768 22.732 159.744 23.7327 160.757 25.734C161.694 24.898 162.809 24.1887 164.101 23.606C165.418 23.0233 166.774 22.732 168.167 22.732C172.575 22.732 174.779 24.9993 174.779 29.534V45H171.511V29.724C171.511 28.3053 171.207 27.2287 170.599 26.494C169.991 25.7593 169.003 25.392 167.635 25.392C165.38 25.392 163.303 26.2533 161.403 27.976C161.479 28.4827 161.517 29.002 161.517 29.534V45H158.249V29.724C158.249 28.3053 157.945 27.2287 157.337 26.494C156.729 25.7593 155.728 25.392 154.335 25.392C152.131 25.392 150.104 26.19 148.255 27.786V45H144.987V23.264H147.001L147.837 25.43C149.965 23.6313 152.296 22.732 154.829 22.732ZM514.67 38.388C515.05 41.352 517.115 42.834 520.864 42.834C522.789 42.834 524.284 42.416 525.348 41.58C526.412 40.744 526.944 39.5153 526.944 37.894C526.944 36.2727 526.475 34.9807 525.538 34.018C524.626 33.03 523.195 32.536 521.244 32.536H517.786V30.028H521.282C522.979 30.028 524.284 29.5467 525.196 28.584C526.108 27.596 526.564 26.2913 526.564 24.67C526.564 23.0487 526.083 21.7693 525.12 20.832C524.157 19.8947 522.751 19.426 520.902 19.426C519.053 19.426 517.659 19.8567 516.722 20.718C515.785 21.5793 515.253 22.7827 515.126 24.328L512.276 23.948C512.453 21.668 513.264 19.8947 514.708 18.628C516.152 17.3613 518.255 16.728 521.016 16.728C523.803 16.728 525.969 17.45 527.514 18.894C529.059 20.3127 529.832 22.276 529.832 24.784C529.832 26.228 529.439 27.5073 528.654 28.622C527.894 29.7367 526.868 30.5853 525.576 31.168C526.995 31.6747 528.109 32.5107 528.92 33.676C529.756 34.8413 530.174 36.298 530.174 38.046C530.174 40.402 529.338 42.2387 527.666 43.556C525.994 44.8733 523.689 45.532 520.75 45.532C515.253 45.532 512.263 43.2647 511.782 38.73L514.67 38.388ZM551.408 45H548.14V38.806H534.384V36.146L546.62 17.26H551.408V36.108H554.79V38.806H551.408V45ZM548.14 36.108V20.376L538.07 36.108H548.14ZM563.522 44.126C563.471 44.4047 563.281 44.6707 562.952 44.924C562.623 45.1773 562.154 45.304 561.546 45.304C560.963 45.304 560.507 45.1773 560.178 44.924C559.874 44.6707 559.684 44.4047 559.608 44.126C559.557 43.822 559.532 43.48 559.532 43.1C559.532 42.6947 559.545 42.378 559.57 42.15C559.621 41.922 559.709 41.6813 559.836 41.428C560.039 40.896 560.596 40.63 561.508 40.63C562.42 40.63 563.003 40.8453 563.256 41.276C563.509 41.6813 563.636 42.188 563.636 42.796C563.636 43.3787 563.598 43.822 563.522 44.126ZM581.972 44.772C580.807 45.2787 579.452 45.532 577.906 45.532C576.361 45.532 575.006 45.2787 573.84 44.772C572.7 44.2653 571.763 43.594 571.028 42.758C570.319 41.8967 569.749 40.8327 569.318 39.566C568.888 38.2993 568.584 36.9947 568.406 35.652C568.254 34.3093 568.178 32.802 568.178 31.13C568.178 29.458 568.254 27.9507 568.406 26.608C568.584 25.2653 568.888 23.9607 569.318 22.694C569.749 21.4273 570.319 20.376 571.028 19.54C571.738 18.6787 572.675 17.9947 573.84 17.488C575.006 16.9813 576.361 16.728 577.906 16.728C579.452 16.728 580.807 16.9813 581.972 17.488C583.138 17.9947 584.075 18.6787 584.784 19.54C585.519 20.376 586.102 21.4273 586.532 22.694C586.963 23.9607 587.254 25.2653 587.406 26.608C587.584 27.9507 587.672 29.458 587.672 31.13C587.672 32.802 587.584 34.3093 587.406 35.652C587.254 36.9947 586.963 38.2993 586.532 39.566C586.102 40.8327 585.519 41.8967 584.784 42.758C584.075 43.594 583.138 44.2653 581.972 44.772ZM577.906 42.872C580.364 42.872 582.061 41.8713 582.998 39.87C583.961 37.8433 584.442 34.93 584.442 31.13C584.442 25.3033 583.328 21.6807 581.098 20.262C580.237 19.7047 579.173 19.426 577.906 19.426C576.64 19.426 575.576 19.7047 574.714 20.262C573.853 20.8193 573.194 21.6427 572.738 22.732C571.877 24.708 571.446 27.5073 571.446 31.13C571.446 36.982 572.536 40.6173 574.714 42.036C575.576 42.5933 576.64 42.872 577.906 42.872ZM607.31 35.652C606.753 36.412 605.917 37.02 604.802 37.476C603.713 37.932 602.408 38.16 600.888 38.16C599.368 38.16 598.026 37.932 596.86 37.476L595.15 39.148C594.568 39.7053 594.276 40.3387 594.276 41.048C594.276 41.9853 594.859 42.454 596.024 42.454H604.536C606.386 42.454 607.83 42.948 608.868 43.936C609.932 44.8987 610.464 46.0893 610.464 47.508C610.464 48.952 610.186 50.092 609.628 50.928C609.071 51.7893 608.273 52.4227 607.234 52.828C605.436 53.512 603.105 53.854 600.242 53.854C597.38 53.854 595.163 53.474 593.592 52.714C592.047 51.9793 591.274 50.7253 591.274 48.952C591.274 47.204 592.034 45.7853 593.554 44.696C592.11 44.1387 591.388 43.0493 591.388 41.428C591.388 40.212 591.92 39.072 592.984 38.008L594.808 36.184C593.466 34.8667 592.794 32.954 592.794 30.446C592.794 28.4193 593.314 26.684 594.352 25.24C594.91 24.48 595.733 23.872 596.822 23.416C597.937 22.96 599.216 22.732 600.66 22.732C602.13 22.732 603.371 22.9093 604.384 23.264H610.122V25.43H607.424C608.387 26.7473 608.868 28.4193 608.868 30.446C608.868 32.4727 608.349 34.208 607.31 35.652ZM600.812 25.088C597.57 25.088 595.948 26.874 595.948 30.446C595.948 34.018 597.57 35.804 600.812 35.804C604.08 35.804 605.714 34.018 605.714 30.446C605.714 26.874 604.08 25.088 600.812 25.088ZM594.352 48.116C594.352 49.3827 594.872 50.2187 595.91 50.624C596.949 51.0293 598.558 51.232 600.736 51.232C602.94 51.232 604.549 51.004 605.562 50.548C606.601 50.1173 607.12 49.1927 607.12 47.774C607.12 46.786 606.753 46.0767 606.018 45.646C605.309 45.2153 604.473 45 603.51 45H595.91C594.872 45.836 594.352 46.8747 594.352 48.116Z" fill="black"/>
<path d="M17.704 118.496H14.656V125H12.544V107.48H17.704C21.32 107.48 23.128 109.32 23.128 113C23.128 116.664 21.32 118.496 17.704 118.496ZM14.656 116.816H17.584C19.872 116.816 21.016 115.544 21.016 113C21.016 110.44 19.872 109.16 17.584 109.16H14.656V116.816ZM29.3648 123.224C29.9088 123.512 30.5808 123.656 31.3808 123.656C32.1808 123.656 32.8448 123.512 33.3728 123.224C33.9168 122.92 34.3168 122.496 34.5728 121.952C34.8288 121.392 35.0048 120.816 35.1008 120.224C35.2128 119.616 35.2688 118.92 35.2688 118.136C35.2688 117.352 35.2128 116.664 35.1008 116.072C35.0048 115.464 34.8288 114.888 34.5728 114.344C34.3168 113.784 33.9168 113.36 33.3728 113.072C32.8448 112.768 32.1808 112.616 31.3808 112.616C30.5808 112.616 29.9088 112.768 29.3648 113.072C28.8368 113.36 28.4368 113.784 28.1648 114.344C27.9088 114.888 27.7328 115.456 27.6368 116.048C27.5408 116.64 27.4928 117.336 27.4928 118.136C27.4928 118.936 27.5408 119.632 27.6368 120.224C27.7328 120.816 27.9088 121.392 28.1648 121.952C28.4368 122.496 28.8368 122.92 29.3648 123.224ZM37.3328 118.136C37.3328 122.936 35.3488 125.336 31.3808 125.336C27.4128 125.336 25.4288 122.936 25.4288 118.136C25.4288 113.336 27.4128 110.936 31.3808 110.936C35.3488 110.936 37.3328 113.336 37.3328 118.136ZM39.1212 112.688V111.272H41.4732V108.776L43.5372 107.96V111.272H46.4412V112.688H43.5372V121.784C43.5372 122.504 43.6332 123.016 43.8252 123.32C44.0332 123.608 44.3292 123.752 44.7132 123.752C45.0972 123.752 45.5692 123.688 46.1292 123.56L46.3692 124.952C45.5052 125.208 44.7692 125.336 44.1612 125.336C43.5692 125.336 43.0812 125.24 42.6972 125.048C42.3132 124.856 42.0412 124.568 41.8812 124.184C41.6092 123.608 41.4732 122.832 41.4732 121.856V112.688H39.1212ZM57.2106 111.848C58.1706 112.536 58.6506 113.832 58.6506 115.736V125H57.2826L56.7546 122.864C55.2186 124.512 53.5306 125.336 51.6906 125.336C50.4746 125.336 49.5786 125.016 49.0026 124.376C48.4426 123.736 48.1626 122.872 48.1626 121.784C48.1626 120.696 48.4986 119.816 49.1706 119.144C49.8586 118.472 51.1386 117.984 53.0106 117.68L56.5866 117.104V115.736C56.5866 114.552 56.3306 113.736 55.8186 113.288C55.3226 112.84 54.6346 112.616 53.7546 112.616C51.9946 112.616 50.9466 113.472 50.6106 115.184L48.9306 114.68C49.1866 113.496 49.7226 112.576 50.5386 111.92C51.3546 111.264 52.4586 110.936 53.8506 110.936C55.2586 110.936 56.3786 111.24 57.2106 111.848ZM52.2666 123.752C53.7066 123.752 55.1466 122.976 56.5866 121.424V118.544L53.2026 119.12C52.0666 119.328 51.2826 119.656 50.8506 120.104C50.4186 120.536 50.2026 121.072 50.2026 121.712C50.2026 122.336 50.3706 122.832 50.7066 123.2C51.0426 123.568 51.5626 123.752 52.2666 123.752ZM68.4651 117.344C69.9051 117.696 70.9291 118.168 71.5371 118.76C72.1611 119.336 72.4731 120.208 72.4731 121.376C72.4731 122.528 72.0411 123.464 71.1771 124.184C70.3131 124.904 69.0331 125.264 67.3371 125.264C65.6411 125.264 64.4091 124.944 63.6411 124.304C62.8891 123.648 62.4091 122.704 62.2011 121.472L63.8811 121.208C64.1211 122.824 65.2171 123.632 67.1691 123.632C69.3291 123.632 70.4091 122.904 70.4091 121.448C70.4091 120.808 70.2091 120.336 69.8091 120.032C69.4251 119.728 68.7291 119.448 67.7211 119.192L66.3531 118.856C64.9611 118.504 63.9691 118.04 63.3771 117.464C62.8011 116.888 62.5131 116.016 62.5131 114.848C62.5131 113.664 62.9291 112.72 63.7611 112.016C64.5931 111.296 65.8171 110.936 67.4331 110.936C69.0651 110.936 70.2411 111.264 70.9611 111.92C71.6971 112.56 72.1691 113.496 72.3771 114.728L70.6731 114.992C70.4651 113.376 69.4411 112.568 67.6011 112.568C65.5851 112.568 64.5771 113.296 64.5771 114.752C64.5771 115.392 64.7611 115.872 65.1291 116.192C65.4971 116.496 66.1451 116.768 67.0731 117.008L68.4651 117.344ZM81.2386 117.344C82.6786 117.696 83.7026 118.168 84.3106 118.76C84.9346 119.336 85.2466 120.208 85.2466 121.376C85.2466 122.528 84.8146 123.464 83.9506 124.184C83.0866 124.904 81.8066 125.264 80.1106 125.264C78.4146 125.264 77.1826 124.944 76.4146 124.304C75.6626 123.648 75.1826 122.704 74.9746 121.472L76.6546 121.208C76.8946 122.824 77.9906 123.632 79.9426 123.632C82.1026 123.632 83.1826 122.904 83.1826 121.448C83.1826 120.808 82.9826 120.336 82.5826 120.032C82.1986 119.728 81.5026 119.448 80.4946 119.192L79.1266 118.856C77.7346 118.504 76.7426 118.04 76.1506 117.464C75.5746 116.888 75.2866 116.016 75.2866 114.848C75.2866 113.664 75.7026 112.72 76.5346 112.016C77.3666 111.296 78.5906 110.936 80.2066 110.936C81.8386 110.936 83.0146 111.264 83.7346 111.92C84.4706 112.56 84.9426 113.496 85.1506 114.728L83.4466 114.992C83.2386 113.376 82.2146 112.568 80.3746 112.568C78.3586 112.568 77.3506 113.296 77.3506 114.752C77.3506 115.392 77.5346 115.872 77.9026 116.192C78.2706 116.496 78.9186 116.768 79.8466 117.008L81.2386 117.344ZM89.044 111.272H91.108V125H89.044V111.272ZM90.076 108.968C89.26 108.968 88.852 108.528 88.852 107.648C88.852 106.752 89.26 106.304 90.076 106.304C90.924 106.304 91.348 106.752 91.348 107.648C91.348 108.528 90.924 108.968 90.076 108.968ZM100.008 125.336C98.5844 125.336 97.5524 124.984 96.9124 124.28C96.2724 123.56 95.9524 122.488 95.9524 121.064V111.272H98.0164V120.92C98.0164 121.864 98.2164 122.56 98.6164 123.008C99.0324 123.44 99.6724 123.656 100.536 123.656C102.088 123.656 103.536 122.864 104.88 121.28V111.272H106.944V125H105.576L104.928 122.96C103.44 124.544 101.8 125.336 100.008 125.336ZM118.252 110.936C120.108 110.936 121.356 111.568 121.996 112.832C122.588 112.304 123.292 111.856 124.108 111.488C124.94 111.12 125.796 110.936 126.676 110.936C129.46 110.936 130.852 112.368 130.852 115.232V125H128.788V115.352C128.788 114.456 128.596 113.776 128.212 113.312C127.828 112.848 127.204 112.616 126.34 112.616C124.916 112.616 123.604 113.16 122.404 114.248C122.452 114.568 122.476 114.896 122.476 115.232V125H120.412V115.352C120.412 114.456 120.22 113.776 119.836 113.312C119.452 112.848 118.82 112.616 117.94 112.616C116.548 112.616 115.268 113.12 114.1 114.128V125H112.036V111.272H113.308L113.836 112.64C115.18 111.504 116.652 110.936 118.252 110.936ZM552.452 118.184V116.552H560.9V118.184H552.452ZM564.171 118.184V116.552H572.619V118.184H564.171Z" fill="black"/>
<path d="M18.52 186.872C17.032 186.872 15.92 187.288 15.184 188.12C14.528 188.84 14.128 190.024 13.984 191.672C13.92 192.36 13.888 193.208 13.888 194.216C13.888 195.224 13.92 196.088 13.984 196.808C14.048 197.512 14.176 198.184 14.368 198.824C14.576 199.464 14.848 199.976 15.184 200.36C15.92 201.192 17.032 201.608 18.52 201.608C20.984 201.608 22.256 200.296 22.336 197.672L24.064 197.768C23.952 199.544 23.464 200.92 22.6 201.896C21.752 202.856 20.392 203.336 18.52 203.336C15.88 203.336 14.08 202.52 13.12 200.888C12.624 200.072 12.272 199.136 12.064 198.08C11.872 197.024 11.776 195.744 11.776 194.24C11.776 192.72 11.872 191.432 12.064 190.376C12.272 189.32 12.624 188.384 13.12 187.568C14.08 185.952 15.88 185.144 18.52 185.144C20.264 185.144 21.56 185.544 22.408 186.344C23.256 187.128 23.776 188.256 23.968 189.728L22.264 190.04C21.928 187.928 20.68 186.872 18.52 186.872ZM29.9127 190.544C31.4327 189.472 32.9527 188.936 34.4727 188.936C36.0087 188.936 37.0967 189.296 37.7367 190.016C38.3767 190.72 38.6967 191.8 38.6967 193.256V203H36.6327V193.304C36.6327 192.344 36.4487 191.656 36.0807 191.24C35.7127 190.824 35.0967 190.616 34.2327 190.616C32.7447 190.616 31.3047 191.152 29.9127 192.224V203H27.8487V184.808L29.9127 184.568V190.544ZM46.2398 201.224C46.7838 201.512 47.4558 201.656 48.2558 201.656C49.0558 201.656 49.7198 201.512 50.2478 201.224C50.7918 200.92 51.1918 200.496 51.4478 199.952C51.7038 199.392 51.8798 198.816 51.9758 198.224C52.0878 197.616 52.1438 196.92 52.1438 196.136C52.1438 195.352 52.0878 194.664 51.9758 194.072C51.8798 193.464 51.7038 192.888 51.4478 192.344C51.1918 191.784 50.7918 191.36 50.2478 191.072C49.7198 190.768 49.0558 190.616 48.2558 190.616C47.4558 190.616 46.7838 190.768 46.2398 191.072C45.7118 191.36 45.3118 191.784 45.0398 192.344C44.7838 192.888 44.6078 193.456 44.5118 194.048C44.4158 194.64 44.3678 195.336 44.3678 196.136C44.3678 196.936 44.4158 197.632 44.5118 198.224C44.6078 198.816 44.7838 199.392 45.0398 199.952C45.3118 200.496 45.7118 200.92 46.2398 201.224ZM54.2078 196.136C54.2078 200.936 52.2238 203.336 48.2558 203.336C44.2878 203.336 42.3038 200.936 42.3038 196.136C42.3038 191.336 44.2878 188.936 48.2558 188.936C52.2238 188.936 54.2078 191.336 54.2078 196.136ZM60.1002 203H58.0362V184.808L60.1002 184.52V203ZM69.7686 203.336C67.6726 203.336 66.1766 202.744 65.2806 201.56C64.3846 200.36 63.9366 198.552 63.9366 196.136C63.9366 191.336 65.8486 188.936 69.6726 188.936C73.4486 188.936 75.3366 191.24 75.3366 195.848V196.352H65.9766C65.9926 198.24 66.2806 199.6 66.8406 200.432C67.4006 201.248 68.3766 201.656 69.7686 201.656C72.0406 201.656 73.2566 200.736 73.4166 198.896L75.1206 198.992C74.8166 201.888 73.0326 203.336 69.7686 203.336ZM73.2726 194.816C73.1926 193.472 72.8886 192.44 72.3606 191.72C71.8326 190.984 70.9446 190.616 69.6966 190.616C68.4486 190.616 67.5526 190.992 67.0086 191.744C66.4646 192.48 66.1366 193.504 66.0246 194.816H73.2726ZM84.0276 195.344C85.4676 195.696 86.4916 196.168 87.0996 196.76C87.7236 197.336 88.0356 198.208 88.0356 199.376C88.0356 200.528 87.6036 201.464 86.7396 202.184C85.8756 202.904 84.5956 203.264 82.8996 203.264C81.2036 203.264 79.9716 202.944 79.2036 202.304C78.4516 201.648 77.9716 200.704 77.7636 199.472L79.4436 199.208C79.6836 200.824 80.7796 201.632 82.7316 201.632C84.8916 201.632 85.9716 200.904 85.9716 199.448C85.9716 198.808 85.7716 198.336 85.3716 198.032C84.9876 197.728 84.2916 197.448 83.2836 197.192L81.9156 196.856C80.5236 196.504 79.5316 196.04 78.9396 195.464C78.3636 194.888 78.0756 194.016 78.0756 192.848C78.0756 191.664 78.4916 190.72 79.3236 190.016C80.1556 189.296 81.3796 188.936 82.9956 188.936C84.6276 188.936 85.8036 189.264 86.5236 189.92C87.2596 190.56 87.7316 191.496 87.9396 192.728L86.2356 192.992C86.0276 191.376 85.0036 190.568 83.1636 190.568C81.1476 190.568 80.1396 191.296 80.1396 192.752C80.1396 193.392 80.3236 193.872 80.6916 194.192C81.0596 194.496 81.7076 194.768 82.6356 195.008L84.0276 195.344ZM89.7931 190.688V189.272H92.1451V186.776L94.2091 185.96V189.272H97.1131V190.688H94.2091V199.784C94.2091 200.504 94.3051 201.016 94.4971 201.32C94.7051 201.608 95.0011 201.752 95.3851 201.752C95.7691 201.752 96.2411 201.688 96.8011 201.56L97.0411 202.952C96.1771 203.208 95.4411 203.336 94.8331 203.336C94.2411 203.336 93.7531 203.24 93.3691 203.048C92.9851 202.856 92.7131 202.568 92.5531 202.184C92.2811 201.608 92.1451 200.832 92.1451 199.856V190.688H89.7931ZM104.691 203.336C102.595 203.336 101.099 202.744 100.203 201.56C99.3065 200.36 98.8585 198.552 98.8585 196.136C98.8585 191.336 100.771 188.936 104.595 188.936C108.371 188.936 110.259 191.24 110.259 195.848V196.352H100.899C100.915 198.24 101.203 199.6 101.763 200.432C102.323 201.248 103.299 201.656 104.691 201.656C106.963 201.656 108.179 200.736 108.339 198.896L110.043 198.992C109.739 201.888 107.955 203.336 104.691 203.336ZM108.195 194.816C108.115 193.472 107.811 192.44 107.283 191.72C106.755 190.984 105.867 190.616 104.618 190.616C103.371 190.616 102.475 190.992 101.931 191.744C101.387 192.48 101.059 193.504 100.947 194.816H108.195ZM116.046 203H113.982V189.272H115.206L115.95 191.72C117.07 189.944 118.71 189.016 120.87 188.936V190.832C118.71 190.912 117.102 191.824 116.046 193.568V203ZM126.302 201.224C126.846 201.512 127.518 201.656 128.318 201.656C129.118 201.656 129.782 201.512 130.31 201.224C130.854 200.92 131.254 200.496 131.51 199.952C131.766 199.392 131.942 198.816 132.038 198.224C132.15 197.616 132.206 196.92 132.206 196.136C132.206 195.352 132.15 194.664 132.038 194.072C131.942 193.464 131.766 192.888 131.51 192.344C131.254 191.784 130.854 191.36 130.31 191.072C129.782 190.768 129.118 190.616 128.318 190.616C127.518 190.616 126.846 190.768 126.302 191.072C125.774 191.36 125.374 191.784 125.102 192.344C124.846 192.888 124.67 193.456 124.574 194.048C124.478 194.64 124.43 195.336 124.43 196.136C124.43 196.936 124.478 197.632 124.574 198.224C124.67 198.816 124.846 199.392 125.102 199.952C125.374 200.496 125.774 200.92 126.302 201.224ZM134.27 196.136C134.27 200.936 132.286 203.336 128.318 203.336C124.35 203.336 122.366 200.936 122.366 196.136C122.366 191.336 124.35 188.936 128.318 188.936C132.286 188.936 134.27 191.336 134.27 196.136ZM140.163 203H138.099V184.808L140.163 184.52V203ZM544.036 203H541.972V199.088H533.284V197.408L541.012 185.48H544.036V197.384H546.172V199.088H544.036V203ZM541.972 197.384V187.448L535.612 197.384H541.972ZM549.671 187.184V185.48H561.023V187.064L554.159 203H551.903L558.767 187.184H549.671ZM571.698 188.936C573.554 188.936 574.802 189.568 575.442 190.832C576.034 190.304 576.738 189.856 577.554 189.488C578.386 189.12 579.242 188.936 580.122 188.936C582.906 188.936 584.298 190.368 584.298 193.232V203H582.234V193.352C582.234 192.456 582.042 191.776 581.658 191.312C581.274 190.848 580.65 190.616 579.786 190.616C578.362 190.616 577.05 191.16 575.85 192.248C575.898 192.568 575.922 192.896 575.922 193.232V203H573.858V193.352C573.858 192.456 573.666 191.776 573.282 191.312C572.898 190.848 572.266 190.616 571.386 190.616C569.994 190.616 568.714 191.12 567.546 192.128V203H565.482V189.272H566.754L567.282 190.64C568.626 189.504 570.098 188.936 571.698 188.936ZM597.553 197.096C597.201 197.576 596.673 197.96 595.969 198.248C595.281 198.536 594.457 198.68 593.497 198.68C592.537 198.68 591.689 198.536 590.953 198.248L589.873 199.304C589.505 199.656 589.321 200.056 589.321 200.504C589.321 201.096 589.689 201.392 590.425 201.392H595.801C596.969 201.392 597.881 201.704 598.537 202.328C599.209 202.936 599.545 203.688 599.545 204.584C599.545 205.496 599.369 206.216 599.017 206.744C598.665 207.288 598.161 207.688 597.505 207.944C596.369 208.376 594.897 208.592 593.089 208.592C591.281 208.592 589.881 208.352 588.889 207.872C587.913 207.408 587.425 206.616 587.425 205.496C587.425 204.392 587.905 203.496 588.865 202.808C587.953 202.456 587.497 201.768 587.497 200.744C587.497 199.976 587.833 199.256 588.505 198.584L589.657 197.432C588.809 196.6 588.385 195.392 588.385 193.808C588.385 192.528 588.713 191.432 589.369 190.52C589.721 190.04 590.241 189.656 590.929 189.368C591.633 189.08 592.441 188.936 593.353 188.936C594.281 188.936 595.065 189.048 595.705 189.272H599.329V190.64H597.625C598.233 191.472 598.537 192.528 598.537 193.808C598.537 195.088 598.209 196.184 597.553 197.096ZM593.449 190.424C591.401 190.424 590.377 191.552 590.377 193.808C590.377 196.064 591.401 197.192 593.449 197.192C595.513 197.192 596.545 196.064 596.545 193.808C596.545 191.552 595.513 190.424 593.449 190.424ZM589.369 204.968C589.369 205.768 589.697 206.296 590.353 206.552C591.009 206.808 592.025 206.936 593.401 206.936C594.793 206.936 595.809 206.792 596.449 206.504C597.105 206.232 597.433 205.648 597.433 204.752C597.433 204.128 597.201 203.68 596.737 203.408C596.289 203.136 595.761 203 595.153 203H590.353C589.697 203.528 589.369 204.184 589.369 204.968Z" fill="black"/>
<path d="M23.87 327H19.424L10.95 299.26H14.37L21.628 323.846L28.924 299.26H32.306L23.87 327ZM37.2956 305.264H40.5636V327H37.2956V305.264ZM38.9296 301.616C37.6376 301.616 36.9916 300.919 36.9916 299.526C36.9916 298.107 37.6376 297.398 38.9296 297.398C40.2722 297.398 40.9436 298.107 40.9436 299.526C40.9436 300.919 40.2722 301.616 38.9296 301.616ZM45.3839 307.506V305.264H49.1079V301.312L52.3759 300.02V305.264H56.9739V307.506H52.3759V321.908C52.3759 323.048 52.5279 323.859 52.8319 324.34C53.1613 324.796 53.6299 325.024 54.2379 325.024C54.8459 325.024 55.5933 324.923 56.4799 324.72L56.8599 326.924C55.4919 327.329 54.3266 327.532 53.3639 327.532C52.4266 327.532 51.6539 327.38 51.0459 327.076C50.4379 326.772 50.0073 326.316 49.7539 325.708C49.3233 324.796 49.1079 323.567 49.1079 322.022V307.506H45.3839ZM74.0255 306.176C75.5455 307.265 76.3055 309.317 76.3055 312.332V327H74.1395L73.3035 323.618C70.8715 326.227 68.1989 327.532 65.2855 327.532C63.3602 327.532 61.9415 327.025 61.0295 326.012C60.1429 324.999 59.6995 323.631 59.6995 321.908C59.6995 320.185 60.2315 318.792 61.2955 317.728C62.3849 316.664 64.4115 315.891 67.3755 315.41L73.0375 314.498V312.332C73.0375 310.457 72.6322 309.165 71.8215 308.456C71.0362 307.747 69.9469 307.392 68.5535 307.392C65.7669 307.392 64.1075 308.747 63.5755 311.458L60.9155 310.66C61.3209 308.785 62.1695 307.329 63.4615 306.29C64.7535 305.251 66.5015 304.732 68.7055 304.732C70.9349 304.732 72.7082 305.213 74.0255 306.176ZM66.1975 325.024C68.4775 325.024 70.7575 323.795 73.0375 321.338V316.778L67.6795 317.69C65.8809 318.019 64.6395 318.539 63.9555 319.248C63.2715 319.932 62.9295 320.781 62.9295 321.794C62.9295 322.782 63.1955 323.567 63.7275 324.15C64.2595 324.733 65.0829 325.024 66.1975 325.024ZM93.8212 304.732C96.7598 304.732 98.7358 305.733 99.7492 307.734C100.687 306.898 101.801 306.189 103.093 305.606C104.411 305.023 105.766 304.732 107.159 304.732C111.567 304.732 113.771 306.999 113.771 311.534V327H110.503V311.724C110.503 310.305 110.199 309.229 109.591 308.494C108.983 307.759 107.995 307.392 106.627 307.392C104.373 307.392 102.295 308.253 100.395 309.976C100.471 310.483 100.509 311.002 100.509 311.534V327H97.2412V311.724C97.2412 310.305 96.9372 309.229 96.3292 308.494C95.7212 307.759 94.7205 307.392 93.3272 307.392C91.1232 307.392 89.0965 308.19 87.2472 309.786V327H83.9792V305.264H85.9932L86.8292 307.43C88.9572 305.631 91.2878 304.732 93.8212 304.732ZM121.46 305.264H124.728V327H121.46V305.264ZM123.094 301.616C121.802 301.616 121.156 300.919 121.156 299.526C121.156 298.107 121.802 297.398 123.094 297.398C124.436 297.398 125.108 298.107 125.108 299.526C125.108 300.919 124.436 301.616 123.094 301.616ZM135.628 307.544C138.187 305.669 140.707 304.732 143.19 304.732C145.673 304.732 147.421 305.302 148.434 306.442C149.447 307.557 149.954 309.267 149.954 311.572V327H146.686V311.648C146.686 310.128 146.395 309.039 145.812 308.38C145.229 307.721 144.254 307.392 142.886 307.392C140.53 307.392 138.25 308.241 136.046 309.938V327H132.778V305.264H134.716L135.628 307.544ZM174.325 299.26H178.771L187.853 327H184.547L181.849 318.64H171.285L168.587 327H165.281L174.325 299.26ZM176.567 302.224L172.121 315.98H180.975L176.567 302.224ZM535.215 326.772C534.049 327.279 532.694 327.532 531.149 327.532C529.603 327.532 528.248 327.279 527.083 326.772C525.943 326.265 525.005 325.594 524.271 324.758C523.561 323.897 522.991 322.833 522.561 321.566C522.13 320.299 521.826 318.995 521.649 317.652C521.497 316.309 521.421 314.802 521.421 313.13C521.421 311.458 521.497 309.951 521.649 308.608C521.826 307.265 522.13 305.961 522.561 304.694C522.991 303.427 523.561 302.376 524.271 301.54C524.98 300.679 525.917 299.995 527.083 299.488C528.248 298.981 529.603 298.728 531.149 298.728C532.694 298.728 534.049 298.981 535.215 299.488C536.38 299.995 537.317 300.679 538.027 301.54C538.761 302.376 539.344 303.427 539.775 304.694C540.205 305.961 540.497 307.265 540.649 308.608C540.826 309.951 540.915 311.458 540.915 313.13C540.915 314.802 540.826 316.309 540.649 317.652C540.497 318.995 540.205 320.299 539.775 321.566C539.344 322.833 538.761 323.897 538.027 324.758C537.317 325.594 536.38 326.265 535.215 326.772ZM531.149 324.872C533.606 324.872 535.303 323.871 536.241 321.87C537.203 319.843 537.685 316.93 537.685 313.13C537.685 307.303 536.57 303.681 534.341 302.262C533.479 301.705 532.415 301.426 531.149 301.426C529.882 301.426 528.818 301.705 527.957 302.262C527.095 302.819 526.437 303.643 525.981 304.732C525.119 306.708 524.689 309.507 524.689 313.13C524.689 318.982 525.778 322.617 527.957 324.036C528.818 324.593 529.882 324.872 531.149 324.872ZM549.495 326.126C549.444 326.405 549.254 326.671 548.925 326.924C548.595 327.177 548.127 327.304 547.519 327.304C546.936 327.304 546.48 327.177 546.151 326.924C545.847 326.671 545.657 326.405 545.581 326.126C545.53 325.822 545.505 325.48 545.505 325.1C545.505 324.695 545.517 324.378 545.543 324.15C545.593 323.922 545.682 323.681 545.809 323.428C546.011 322.896 546.569 322.63 547.481 322.63C548.393 322.63 548.975 322.845 549.229 323.276C549.482 323.681 549.609 324.188 549.609 324.796C549.609 325.379 549.571 325.822 549.495 326.126ZM557.267 319.704C557.419 323.149 559.471 324.872 563.423 324.872C565.424 324.872 566.919 324.087 567.907 322.516C568.92 320.92 569.49 318.298 569.617 314.65C567.514 315.258 565.5 315.562 563.575 315.562C561.675 315.562 560.104 315.347 558.863 314.916C557.622 314.46 556.659 313.839 555.975 313.054C554.708 311.559 554.075 309.634 554.075 307.278C554.075 304.897 554.924 302.883 556.621 301.236C558.318 299.564 560.763 298.728 563.955 298.728C567.147 298.728 569.427 299.919 570.795 302.3C572.188 304.656 572.885 308.165 572.885 312.826C572.885 317.259 572.239 320.743 570.947 323.276C569.528 326.113 566.944 327.532 563.195 327.532C560.434 327.532 558.318 326.886 556.849 325.594C555.38 324.302 554.569 322.453 554.417 320.046L557.267 319.704ZM557.343 307.24C557.343 308.861 557.837 310.217 558.825 311.306C559.838 312.395 561.396 312.94 563.499 312.94C565.602 312.94 567.654 312.687 569.655 312.18C569.604 308.329 569.123 305.581 568.211 303.934C567.324 302.262 565.83 301.426 563.727 301.426C561.65 301.426 560.066 301.983 558.977 303.098C557.888 304.213 557.343 305.593 557.343 307.24ZM588.913 329.508L597.045 299.07H599.363L591.193 329.508H588.913ZM607.419 326.696C606.659 327.101 605.62 327.304 604.303 327.304C602.986 327.304 601.884 326.937 600.997 326.202C600.11 325.442 599.515 324.517 599.211 323.428C598.932 322.313 598.793 320.945 598.793 319.324C598.793 317.677 598.932 316.309 599.211 315.22C599.515 314.105 600.11 313.181 600.997 312.446C601.884 311.686 602.986 311.306 604.303 311.306C605.62 311.306 606.659 311.509 607.419 311.914C608.204 312.319 608.8 312.902 609.205 313.662C609.94 315.03 610.307 316.905 610.307 319.286C610.307 323.213 609.344 325.683 607.419 326.696ZM602.327 323.656C602.732 324.568 603.48 325.024 604.569 325.024C605.658 325.024 606.393 324.568 606.773 323.656C607.178 322.719 607.381 321.275 607.381 319.324C607.381 317.348 607.178 315.904 606.773 314.992C606.393 314.055 605.658 313.586 604.569 313.586C603.48 313.586 602.732 314.055 602.327 314.992C601.922 315.904 601.719 317.348 601.719 319.324C601.719 321.275 601.922 322.719 602.327 323.656ZM586.519 314.308C585.734 314.713 584.682 314.916 583.365 314.916C582.048 314.916 580.946 314.549 580.059 313.814C579.172 313.054 578.577 312.129 578.273 311.04C577.994 309.925 577.855 308.557 577.855 306.936C577.855 305.289 577.994 303.921 578.273 302.832C578.577 301.717 579.172 300.793 580.059 300.058C580.946 299.298 582.048 298.918 583.365 298.918C584.682 298.918 585.721 299.121 586.481 299.526C587.266 299.931 587.862 300.514 588.267 301.274C589.002 302.642 589.369 304.517 589.369 306.898C589.369 310.825 588.419 313.295 586.519 314.308ZM581.389 311.268C581.794 312.18 582.542 312.636 583.631 312.636C584.72 312.636 585.455 312.18 585.835 311.268C586.24 310.331 586.443 308.887 586.443 306.936C586.443 304.96 586.24 303.516 585.835 302.604C585.455 301.667 584.72 301.198 583.631 301.198C582.542 301.198 581.794 301.667 581.389 302.604C580.984 303.516 580.781 304.96 580.781 306.936C580.781 308.887 580.984 310.331 581.389 311.268Z" fill="black"/>
<path d="M23.87 419H19.424L10.95 391.26H14.37L21.628 415.846L28.924 391.26H32.306L23.87 419ZM37.2956 397.264H40.5636V419H37.2956V397.264ZM38.9296 393.616C37.6376 393.616 36.9916 392.919 36.9916 391.526C36.9916 390.107 37.6376 389.398 38.9296 389.398C40.2722 389.398 40.9436 390.107 40.9436 391.526C40.9436 392.919 40.2722 393.616 38.9296 393.616ZM45.3839 399.506V397.264H49.1079V393.312L52.3759 392.02V397.264H56.9739V399.506H52.3759V413.908C52.3759 415.048 52.5279 415.859 52.8319 416.34C53.1613 416.796 53.6299 417.024 54.2379 417.024C54.8459 417.024 55.5933 416.923 56.4799 416.72L56.8599 418.924C55.4919 419.329 54.3266 419.532 53.3639 419.532C52.4266 419.532 51.6539 419.38 51.0459 419.076C50.4379 418.772 50.0073 418.316 49.7539 417.708C49.3233 416.796 49.1079 415.567 49.1079 414.022V399.506H45.3839ZM74.0255 398.176C75.5455 399.265 76.3055 401.317 76.3055 404.332V419H74.1395L73.3035 415.618C70.8715 418.227 68.1989 419.532 65.2855 419.532C63.3602 419.532 61.9415 419.025 61.0295 418.012C60.1429 416.999 59.6995 415.631 59.6995 413.908C59.6995 412.185 60.2315 410.792 61.2955 409.728C62.3849 408.664 64.4115 407.891 67.3755 407.41L73.0375 406.498V404.332C73.0375 402.457 72.6322 401.165 71.8215 400.456C71.0362 399.747 69.9469 399.392 68.5535 399.392C65.7669 399.392 64.1075 400.747 63.5755 403.458L60.9155 402.66C61.3209 400.785 62.1695 399.329 63.4615 398.29C64.7535 397.251 66.5015 396.732 68.7055 396.732C70.9349 396.732 72.7082 397.213 74.0255 398.176ZM66.1975 417.024C68.4775 417.024 70.7575 415.795 73.0375 413.338V408.778L67.6795 409.69C65.8809 410.019 64.6395 410.539 63.9555 411.248C63.2715 411.932 62.9295 412.781 62.9295 413.794C62.9295 414.782 63.1955 415.567 63.7275 416.15C64.2595 416.733 65.0829 417.024 66.1975 417.024ZM93.8212 396.732C96.7598 396.732 98.7358 397.733 99.7492 399.734C100.687 398.898 101.801 398.189 103.093 397.606C104.411 397.023 105.766 396.732 107.159 396.732C111.567 396.732 113.771 398.999 113.771 403.534V419H110.503V403.724C110.503 402.305 110.199 401.229 109.591 400.494C108.983 399.759 107.995 399.392 106.627 399.392C104.373 399.392 102.295 400.253 100.395 401.976C100.471 402.483 100.509 403.002 100.509 403.534V419H97.2412V403.724C97.2412 402.305 96.9372 401.229 96.3292 400.494C95.7212 399.759 94.7205 399.392 93.3272 399.392C91.1232 399.392 89.0965 400.19 87.2472 401.786V419H83.9792V397.264H85.9932L86.8292 399.43C88.9572 397.631 91.2878 396.732 93.8212 396.732ZM121.46 397.264H124.728V419H121.46V397.264ZM123.094 393.616C121.802 393.616 121.156 392.919 121.156 391.526C121.156 390.107 121.802 389.398 123.094 389.398C124.436 389.398 125.108 390.107 125.108 391.526C125.108 392.919 124.436 393.616 123.094 393.616ZM135.628 399.544C138.187 397.669 140.707 396.732 143.19 396.732C145.673 396.732 147.421 397.302 148.434 398.442C149.447 399.557 149.954 401.267 149.954 403.572V419H146.686V403.648C146.686 402.128 146.395 401.039 145.812 400.38C145.229 399.721 144.254 399.392 142.886 399.392C140.53 399.392 138.25 400.241 136.046 401.938V419H132.778V397.264H134.716L135.628 399.544ZM178.125 393.464C175.769 393.464 174.008 394.123 172.843 395.44C171.804 396.58 171.171 398.455 170.943 401.064C170.841 402.153 170.791 403.496 170.791 405.092C170.791 406.688 170.841 408.056 170.943 409.196C171.044 410.311 171.247 411.375 171.551 412.388C171.88 413.401 172.311 414.212 172.843 414.82C174.008 416.137 175.769 416.796 178.125 416.796C182.026 416.796 184.04 414.719 184.167 410.564L186.903 410.716C186.725 413.528 185.953 415.707 184.585 417.252C183.242 418.772 181.089 419.532 178.125 419.532C173.945 419.532 171.095 418.24 169.575 415.656C168.789 414.364 168.232 412.882 167.903 411.21C167.599 409.538 167.447 407.511 167.447 405.13C167.447 402.723 167.599 400.684 167.903 399.012C168.232 397.34 168.789 395.858 169.575 394.566C171.095 392.007 173.945 390.728 178.125 390.728C180.886 390.728 182.938 391.361 184.281 392.628C185.623 393.869 186.447 395.655 186.751 397.986L184.053 398.48C183.521 395.136 181.545 393.464 178.125 393.464ZM514.038 395.402V393.35C516.8 393.046 518.953 392.349 520.498 391.26H522.968V416.302H528.744V419H513.886V416.302H519.624V395.402H514.038ZM545.19 393.426C542.834 393.426 541.188 394.452 540.25 396.504C539.465 398.201 539.022 400.709 538.92 404.028C541.15 403.369 543.29 403.04 545.342 403.04C551.549 403.04 554.652 405.586 554.652 410.678C554.627 413.465 553.842 415.643 552.296 417.214C550.751 418.759 548.471 419.532 545.456 419.532C541.986 419.532 539.478 418.379 537.932 416.074C536.412 413.743 535.652 410.425 535.652 406.118C535.652 398.518 537.286 393.755 540.554 391.83C541.821 391.095 543.341 390.728 545.114 390.728C550.738 390.728 553.702 393.261 554.006 398.328L551.156 398.632C550.979 395.161 548.99 393.426 545.19 393.426ZM551.384 410.678C551.384 409.158 550.89 407.929 549.902 406.992C548.914 406.055 547.356 405.586 545.228 405.586C543.1 405.586 540.998 405.903 538.92 406.536C539.022 410.184 539.566 412.819 540.554 414.44C541.542 416.061 543.126 416.872 545.304 416.872C549.358 416.872 551.384 414.807 551.384 410.678ZM562.206 395.402V393.35C564.968 393.046 567.121 392.349 568.666 391.26H571.136V416.302H576.912V419H562.054V416.302H567.792V395.402H562.206ZM593.7 421.508L601.832 391.07H604.15L595.98 421.508H593.7ZM612.206 418.696C611.446 419.101 610.408 419.304 609.09 419.304C607.773 419.304 606.671 418.937 605.784 418.202C604.898 417.442 604.302 416.517 603.998 415.428C603.72 414.313 603.58 412.945 603.58 411.324C603.58 409.677 603.72 408.309 603.998 407.22C604.302 406.105 604.898 405.181 605.784 404.446C606.671 403.686 607.773 403.306 609.09 403.306C610.408 403.306 611.446 403.509 612.206 403.914C612.992 404.319 613.587 404.902 613.992 405.662C614.727 407.03 615.094 408.905 615.094 411.286C615.094 415.213 614.132 417.683 612.206 418.696ZM607.114 415.656C607.52 416.568 608.267 417.024 609.356 417.024C610.446 417.024 611.18 416.568 611.56 415.656C611.966 414.719 612.168 413.275 612.168 411.324C612.168 409.348 611.966 407.904 611.56 406.992C611.18 406.055 610.446 405.586 609.356 405.586C608.267 405.586 607.52 406.055 607.114 406.992C606.709 407.904 606.506 409.348 606.506 411.324C606.506 413.275 606.709 414.719 607.114 415.656ZM591.306 406.308C590.521 406.713 589.47 406.916 588.152 406.916C586.835 406.916 585.733 406.549 584.846 405.814C583.96 405.054 583.364 404.129 583.06 403.04C582.782 401.925 582.642 400.557 582.642 398.936C582.642 397.289 582.782 395.921 583.06 394.832C583.364 393.717 583.96 392.793 584.846 392.058C585.733 391.298 586.835 390.918 588.152 390.918C589.47 390.918 590.508 391.121 591.268 391.526C592.054 391.931 592.649 392.514 593.054 393.274C593.789 394.642 594.156 396.517 594.156 398.898C594.156 402.825 593.206 405.295 591.306 406.308ZM586.176 403.268C586.582 404.18 587.329 404.636 588.418 404.636C589.508 404.636 590.242 404.18 590.622 403.268C591.028 402.331 591.23 400.887 591.23 398.936C591.23 396.96 591.028 395.516 590.622 394.604C590.242 393.667 589.508 393.198 588.418 393.198C587.329 393.198 586.582 393.667 586.176 394.604C585.771 395.516 585.568 396.96 585.568 398.936C585.568 400.887 585.771 402.331 586.176 403.268Z" fill="black"/>
<path d="M23.49 485.464C21.134 485.464 19.3733 486.123 18.208 487.44C17.1693 488.58 16.536 490.455 16.308 493.064C16.2067 494.153 16.156 495.496 16.156 497.092C16.156 498.688 16.2067 500.056 16.308 501.196C16.4093 502.311 16.612 503.375 16.916 504.388C17.2453 505.401 17.676 506.212 18.208 506.82C19.3733 508.137 21.134 508.796 23.49 508.796C27.3913 508.796 29.4053 506.719 29.532 502.564L32.268 502.716C32.0907 505.528 31.318 507.707 29.95 509.252C28.6073 510.772 26.454 511.532 23.49 511.532C19.31 511.532 16.46 510.24 14.94 507.656C14.1547 506.364 13.5973 504.882 13.268 503.21C12.964 501.538 12.812 499.511 12.812 497.13C12.812 494.723 12.964 492.684 13.268 491.012C13.5973 489.34 14.1547 487.858 14.94 486.566C16.46 484.007 19.31 482.728 23.49 482.728C26.2513 482.728 28.3033 483.361 29.646 484.628C30.9887 485.869 31.812 487.655 32.116 489.986L29.418 490.48C28.886 487.136 26.91 485.464 23.49 485.464ZM50.5724 490.176C52.0924 491.265 52.8524 493.317 52.8524 496.332V511H50.6864L49.8504 507.618C47.4184 510.227 44.7458 511.532 41.8324 511.532C39.9071 511.532 38.4884 511.025 37.5764 510.012C36.6898 508.999 36.2464 507.631 36.2464 505.908C36.2464 504.185 36.7784 502.792 37.8424 501.728C38.9318 500.664 40.9584 499.891 43.9224 499.41L49.5844 498.498V496.332C49.5844 494.457 49.1791 493.165 48.3684 492.456C47.5831 491.747 46.4938 491.392 45.1004 491.392C42.3138 491.392 40.6544 492.747 40.1224 495.458L37.4624 494.66C37.8678 492.785 38.7164 491.329 40.0084 490.29C41.3004 489.251 43.0484 488.732 45.2524 488.732C47.4818 488.732 49.2551 489.213 50.5724 490.176ZM42.7444 509.024C45.0244 509.024 47.3044 507.795 49.5844 505.338V500.778L44.2264 501.69C42.4278 502.019 41.1864 502.539 40.5024 503.248C39.8184 503.932 39.4764 504.781 39.4764 505.794C39.4764 506.782 39.7424 507.567 40.2744 508.15C40.8064 508.733 41.6298 509.024 42.7444 509.024ZM63.794 511H60.526V482.196L63.794 481.74V511ZM73.1364 500.132C73.1364 501.373 73.2124 502.475 73.3644 503.438C73.5164 504.401 73.7951 505.313 74.2004 506.174C75.0364 507.973 76.6197 508.872 78.9504 508.872C80.8504 508.872 82.2057 508.505 83.0164 507.77C83.8524 507.01 84.3084 505.895 84.3844 504.426L87.0444 504.54C86.8671 506.795 86.1577 508.53 84.9164 509.746C83.6751 510.937 81.6484 511.532 78.8364 511.532C74.8591 511.532 72.2244 509.911 70.9324 506.668C70.2231 504.895 69.8684 502.957 69.8684 500.854C69.8684 498.751 69.9951 497.079 70.2484 495.838C70.5017 494.571 70.9451 493.368 71.5784 492.228C72.8957 489.897 75.3151 488.732 78.8364 488.732C81.6484 488.732 83.6751 489.315 84.9164 490.48C86.1577 491.62 86.8544 493.279 87.0064 495.458L84.3844 495.838C84.3084 494.369 83.8524 493.267 83.0164 492.532C82.2057 491.772 80.8504 491.392 78.9504 491.392C76.6197 491.392 75.0364 492.291 74.2004 494.09C73.4911 495.585 73.1364 497.599 73.1364 500.132ZM92.737 489.264H96.005V511H92.737V489.264ZM94.371 485.616C93.079 485.616 92.433 484.919 92.433 483.526C92.433 482.107 93.079 481.398 94.371 481.398C95.7137 481.398 96.385 482.107 96.385 483.526C96.385 484.919 95.7137 485.616 94.371 485.616ZM110.097 511.532C107.843 511.532 106.209 510.975 105.195 509.86C104.182 508.72 103.675 507.023 103.675 504.768V489.264H106.943V504.54C106.943 506.035 107.26 507.137 107.893 507.846C108.552 508.53 109.565 508.872 110.933 508.872C113.391 508.872 115.683 507.618 117.811 505.11V489.264H121.079V511H118.913L117.887 507.77C115.531 510.278 112.935 511.532 110.097 511.532ZM138.983 488.732C141.922 488.732 143.898 489.733 144.911 491.734C145.849 490.898 146.963 490.189 148.255 489.606C149.573 489.023 150.928 488.732 152.321 488.732C156.729 488.732 158.933 490.999 158.933 495.534V511H155.665V495.724C155.665 494.305 155.361 493.229 154.753 492.494C154.145 491.759 153.157 491.392 151.789 491.392C149.535 491.392 147.457 492.253 145.557 493.976C145.633 494.483 145.671 495.002 145.671 495.534V511H142.403V495.724C142.403 494.305 142.099 493.229 141.491 492.494C140.883 491.759 139.883 491.392 138.489 491.392C136.285 491.392 134.259 492.19 132.409 493.786V511H129.141V489.264H131.155L131.991 491.43C134.119 489.631 136.45 488.732 138.983 488.732ZM542.377 510.772C541.211 511.279 539.856 511.532 538.311 511.532C536.765 511.532 535.41 511.279 534.245 510.772C533.105 510.265 532.167 509.594 531.433 508.758C530.723 507.897 530.153 506.833 529.723 505.566C529.292 504.299 528.988 502.995 528.811 501.652C528.659 500.309 528.583 498.802 528.583 497.13C528.583 495.458 528.659 493.951 528.811 492.608C528.988 491.265 529.292 489.961 529.723 488.694C530.153 487.427 530.723 486.376 531.433 485.54C532.142 484.679 533.079 483.995 534.245 483.488C535.41 482.981 536.765 482.728 538.311 482.728C539.856 482.728 541.211 482.981 542.377 483.488C543.542 483.995 544.479 484.679 545.189 485.54C545.923 486.376 546.506 487.427 546.937 488.694C547.367 489.961 547.659 491.265 547.811 492.608C547.988 493.951 548.077 495.458 548.077 497.13C548.077 498.802 547.988 500.309 547.811 501.652C547.659 502.995 547.367 504.299 546.937 505.566C546.506 506.833 545.923 507.897 545.189 508.758C544.479 509.594 543.542 510.265 542.377 510.772ZM538.311 508.872C540.768 508.872 542.465 507.871 543.403 505.87C544.365 503.843 544.847 500.93 544.847 497.13C544.847 491.303 543.732 487.681 541.503 486.262C540.641 485.705 539.577 485.426 538.311 485.426C537.044 485.426 535.98 485.705 535.119 486.262C534.257 486.819 533.599 487.643 533.143 488.732C532.281 490.708 531.851 493.507 531.851 497.13C531.851 502.982 532.94 506.617 535.119 508.036C535.98 508.593 537.044 508.872 538.311 508.872ZM556.657 510.126C556.606 510.405 556.416 510.671 556.087 510.924C555.757 511.177 555.289 511.304 554.681 511.304C554.098 511.304 553.642 511.177 553.313 510.924C553.009 510.671 552.819 510.405 552.743 510.126C552.692 509.822 552.667 509.48 552.667 509.1C552.667 508.695 552.679 508.378 552.705 508.15C552.755 507.922 552.844 507.681 552.971 507.428C553.173 506.896 553.731 506.63 554.643 506.63C555.555 506.63 556.137 506.845 556.391 507.276C556.644 507.681 556.771 508.188 556.771 508.796C556.771 509.379 556.733 509.822 556.657 510.126ZM562.643 489.834C562.846 487.579 563.657 485.831 565.075 484.59C566.494 483.349 568.559 482.728 571.269 482.728C574.005 482.728 576.095 483.399 577.539 484.742C579.009 486.059 579.743 487.871 579.743 490.176C579.743 491.772 579.313 493.279 578.451 494.698C577.615 496.117 576.437 497.649 574.917 499.296L566.519 508.302H580.047V511H562.073V508.454L572.789 496.864C574.056 495.521 574.981 494.356 575.563 493.368C576.171 492.38 576.475 491.227 576.475 489.91C576.475 488.593 576.019 487.516 575.107 486.68C574.221 485.844 572.878 485.426 571.079 485.426C567.583 485.426 565.734 487.047 565.531 490.29L562.643 489.834ZM596.075 513.508L604.207 483.07H606.525L598.355 513.508H596.075ZM614.581 510.696C613.821 511.101 612.783 511.304 611.465 511.304C610.148 511.304 609.046 510.937 608.159 510.202C607.273 509.442 606.677 508.517 606.373 507.428C606.095 506.313 605.955 504.945 605.955 503.324C605.955 501.677 606.095 500.309 606.373 499.22C606.677 498.105 607.273 497.181 608.159 496.446C609.046 495.686 610.148 495.306 611.465 495.306C612.783 495.306 613.821 495.509 614.581 495.914C615.367 496.319 615.962 496.902 616.367 497.662C617.102 499.03 617.469 500.905 617.469 503.286C617.469 507.213 616.507 509.683 614.581 510.696ZM609.489 507.656C609.895 508.568 610.642 509.024 611.731 509.024C612.821 509.024 613.555 508.568 613.935 507.656C614.341 506.719 614.543 505.275 614.543 503.324C614.543 501.348 614.341 499.904 613.935 498.992C613.555 498.055 612.821 497.586 611.731 497.586C610.642 497.586 609.895 498.055 609.489 498.992C609.084 499.904 608.881 501.348 608.881 503.324C608.881 505.275 609.084 506.719 609.489 507.656ZM593.681 498.308C592.896 498.713 591.845 498.916 590.527 498.916C589.21 498.916 588.108 498.549 587.221 497.814C586.335 497.054 585.739 496.129 585.435 495.04C585.157 493.925 585.017 492.557 585.017 490.936C585.017 489.289 585.157 487.921 585.435 486.832C585.739 485.717 586.335 484.793 587.221 484.058C588.108 483.298 589.21 482.918 590.527 482.918C591.845 482.918 592.883 483.121 593.643 483.526C594.429 483.931 595.024 484.514 595.429 485.274C596.164 486.642 596.531 488.517 596.531 490.898C596.531 494.825 595.581 497.295 593.681 498.308ZM588.551 495.268C588.957 496.18 589.704 496.636 590.793 496.636C591.883 496.636 592.617 496.18 592.997 495.268C593.403 494.331 593.605 492.887 593.605 490.936C593.605 488.96 593.403 487.516 592.997 486.604C592.617 485.667 591.883 485.198 590.793 485.198C589.704 485.198 588.957 485.667 588.551 486.604C588.146 487.516 587.943 488.96 587.943 490.936C587.943 492.887 588.146 494.331 588.551 495.268Z" fill="black"/>
<path d="M637 621H0V623H637V621Z" fill="#218C0F" mask="url(#path-9-inside-2_1761_3964)"/>
<path d="M14.028 575.26H17.372V603H14.028V575.26ZM28.6886 603H25.4206V581.264H27.3586L28.5366 585.14C30.3099 582.328 32.9066 580.859 36.3266 580.732V583.734C32.9066 583.861 30.3606 585.305 28.6886 588.066V603ZM44.9285 600.188C45.7899 600.644 46.8539 600.872 48.1205 600.872C49.3872 600.872 50.4385 600.644 51.2745 600.188C52.1359 599.707 52.7692 599.035 53.1745 598.174C53.5799 597.287 53.8585 596.375 54.0105 595.438C54.1879 594.475 54.2765 593.373 54.2765 592.132C54.2765 590.891 54.1879 589.801 54.0105 588.864C53.8585 587.901 53.5799 586.989 53.1745 586.128C52.7692 585.241 52.1359 584.57 51.2745 584.114C50.4385 583.633 49.3872 583.392 48.1205 583.392C46.8539 583.392 45.7899 583.633 44.9285 584.114C44.0925 584.57 43.4592 585.241 43.0285 586.128C42.6232 586.989 42.3445 587.889 42.1925 588.826C42.0405 589.763 41.9645 590.865 41.9645 592.132C41.9645 593.399 42.0405 594.501 42.1925 595.438C42.3445 596.375 42.6232 597.287 43.0285 598.174C43.4592 599.035 44.0925 599.707 44.9285 600.188ZM57.5445 592.132C57.5445 599.732 54.4032 603.532 48.1205 603.532C41.8379 603.532 38.6965 599.732 38.6965 592.132C38.6965 584.532 41.8379 580.732 48.1205 580.732C54.4032 580.732 57.5445 584.532 57.5445 592.132ZM66.4561 583.544C69.0148 581.669 71.5355 580.732 74.0181 580.732C76.5008 580.732 78.2488 581.302 79.2621 582.442C80.2755 583.557 80.7821 585.267 80.7821 587.572V603H77.5141V587.648C77.5141 586.128 77.2228 585.039 76.6401 584.38C76.0575 583.721 75.0821 583.392 73.7141 583.392C71.3581 583.392 69.0781 584.241 66.8741 585.938V603H63.6061V581.264H65.5441L66.4561 583.544ZM554.562 603H551.294V596.806H537.538V594.146L549.774 575.26H554.562V594.108H557.944V596.806H554.562V603ZM551.294 594.108V578.376L541.224 594.108H551.294ZM564.016 581.834C564.219 579.579 565.03 577.831 566.448 576.59C567.867 575.349 569.932 574.728 572.642 574.728C575.378 574.728 577.468 575.399 578.912 576.742C580.382 578.059 581.116 579.871 581.116 582.176C581.116 583.772 580.686 585.279 579.824 586.698C578.988 588.117 577.81 589.649 576.29 591.296L567.892 600.302H581.42V603H563.446V600.454L574.162 588.864C575.429 587.521 576.354 586.356 576.936 585.368C577.544 584.38 577.848 583.227 577.848 581.91C577.848 580.593 577.392 579.516 576.48 578.68C575.594 577.844 574.251 577.426 572.452 577.426C568.956 577.426 567.107 579.047 566.904 582.29L564.016 581.834ZM597.448 605.508L605.58 575.07H607.898L599.728 605.508H597.448ZM615.954 602.696C615.194 603.101 614.156 603.304 612.838 603.304C611.521 603.304 610.419 602.937 609.532 602.202C608.646 601.442 608.05 600.517 607.746 599.428C607.468 598.313 607.328 596.945 607.328 595.324C607.328 593.677 607.468 592.309 607.746 591.22C608.05 590.105 608.646 589.181 609.532 588.446C610.419 587.686 611.521 587.306 612.838 587.306C614.156 587.306 615.194 587.509 615.954 587.914C616.74 588.319 617.335 588.902 617.74 589.662C618.475 591.03 618.842 592.905 618.842 595.286C618.842 599.213 617.88 601.683 615.954 602.696ZM610.862 599.656C611.268 600.568 612.015 601.024 613.104 601.024C614.194 601.024 614.928 600.568 615.308 599.656C615.714 598.719 615.916 597.275 615.916 595.324C615.916 593.348 615.714 591.904 615.308 590.992C614.928 590.055 614.194 589.586 613.104 589.586C612.015 589.586 611.268 590.055 610.862 590.992C610.457 591.904 610.254 593.348 610.254 595.324C610.254 597.275 610.457 598.719 610.862 599.656ZM595.054 590.308C594.269 590.713 593.218 590.916 591.9 590.916C590.583 590.916 589.481 590.549 588.594 589.814C587.708 589.054 587.112 588.129 586.808 587.04C586.53 585.925 586.39 584.557 586.39 582.936C586.39 581.289 586.53 579.921 586.808 578.832C587.112 577.717 587.708 576.793 588.594 576.058C589.481 575.298 590.583 574.918 591.9 574.918C593.218 574.918 594.256 575.121 595.016 575.526C595.802 575.931 596.397 576.514 596.802 577.274C597.537 578.642 597.904 580.517 597.904 582.898C597.904 586.825 596.954 589.295 595.054 590.308ZM589.924 587.268C590.33 588.18 591.077 588.636 592.166 588.636C593.256 588.636 593.99 588.18 594.37 587.268C594.776 586.331 594.978 584.887 594.978 582.936C594.978 580.96 594.776 579.516 594.37 578.604C593.99 577.667 593.256 577.198 592.166 577.198C591.077 577.198 590.33 577.667 589.924 578.604C589.519 579.516 589.316 580.96 589.316 582.936C589.316 584.887 589.519 586.331 589.924 587.268Z" fill="black"/>
<path d="M17.704 676.496H14.656V683H12.544V665.48H17.704C21.32 665.48 23.128 667.32 23.128 671C23.128 674.664 21.32 676.496 17.704 676.496ZM14.656 674.816H17.584C19.872 674.816 21.016 673.544 21.016 671C21.016 668.44 19.872 667.16 17.584 667.16H14.656V674.816ZM31.2608 683.336C29.1648 683.336 27.6688 682.744 26.7728 681.56C25.8768 680.36 25.4288 678.552 25.4288 676.136C25.4288 671.336 27.3408 668.936 31.1648 668.936C34.9408 668.936 36.8288 671.24 36.8288 675.848V676.352H27.4688C27.4848 678.24 27.7728 679.6 28.3328 680.432C28.8928 681.248 29.8688 681.656 31.2608 681.656C33.5328 681.656 34.7488 680.736 34.9088 678.896L36.6128 678.992C36.3088 681.888 34.5248 683.336 31.2608 683.336ZM34.7648 674.816C34.6848 673.472 34.3808 672.44 33.8528 671.72C33.3248 670.984 32.4368 670.616 31.1888 670.616C29.9408 670.616 29.0448 670.992 28.5008 671.744C27.9568 672.48 27.6288 673.504 27.5168 674.816H34.7648ZM42.6158 683H40.5518V669.272H41.7758L42.5198 671.72C43.6398 669.944 45.2798 669.016 47.4398 668.936V670.832C45.2798 670.912 43.6718 671.824 42.6158 673.568V683ZM51.0006 676.136C51.0006 676.92 51.0486 677.616 51.1446 678.224C51.2406 678.832 51.4166 679.408 51.6726 679.952C52.2006 681.088 53.2006 681.656 54.6726 681.656C55.8726 681.656 56.7286 681.424 57.2406 680.96C57.7686 680.48 58.0566 679.776 58.1046 678.848L59.7846 678.92C59.6726 680.344 59.2246 681.44 58.4406 682.208C57.6566 682.96 56.3766 683.336 54.6006 683.336C52.0886 683.336 50.4246 682.312 49.6086 680.264C49.1606 679.144 48.9366 677.92 48.9366 676.592C48.9366 675.264 49.0166 674.208 49.1766 673.424C49.3366 672.624 49.6166 671.864 50.0166 671.144C50.8486 669.672 52.3766 668.936 54.6006 668.936C56.3766 668.936 57.6566 669.304 58.4406 670.04C59.2246 670.76 59.6646 671.808 59.7606 673.184L58.1046 673.424C58.0566 672.496 57.7686 671.8 57.2406 671.336C56.7286 670.856 55.8726 670.616 54.6726 670.616C53.2006 670.616 52.2006 671.184 51.6726 672.32C51.2246 673.264 51.0006 674.536 51.0006 676.136ZM67.9639 683.336C65.8679 683.336 64.3719 682.744 63.4759 681.56C62.5799 680.36 62.1319 678.552 62.1319 676.136C62.1319 671.336 64.0439 668.936 67.8679 668.936C71.6439 668.936 73.5319 671.24 73.5319 675.848V676.352H64.1719C64.1879 678.24 64.4759 679.6 65.0359 680.432C65.5959 681.248 66.5719 681.656 67.9639 681.656C70.2359 681.656 71.4519 680.736 71.6119 678.896L73.3159 678.992C73.0119 681.888 71.2279 683.336 67.9639 683.336ZM71.4679 674.816C71.3879 673.472 71.0839 672.44 70.5559 671.72C70.0279 670.984 69.1399 670.616 67.8919 670.616C66.6439 670.616 65.7479 670.992 65.2039 671.744C64.6599 672.48 64.3319 673.504 64.2199 674.816H71.4679ZM79.0549 670.712C80.6709 669.528 82.2629 668.936 83.8309 668.936C85.3989 668.936 86.5029 669.296 87.1429 670.016C87.7829 670.72 88.1029 671.8 88.1029 673.256V683H86.0389V673.304C86.0389 672.344 85.8549 671.656 85.4869 671.24C85.1189 670.824 84.5029 670.616 83.6389 670.616C82.1509 670.616 80.7109 671.152 79.3189 672.224V683H77.2549V669.272H78.4789L79.0549 670.712ZM90.9181 670.688V669.272H93.2701V666.776L95.3341 665.96V669.272H98.2381V670.688H95.3341V679.784C95.3341 680.504 95.4301 681.016 95.6221 681.32C95.8301 681.608 96.1261 681.752 96.5101 681.752C96.8941 681.752 97.3661 681.688 97.9261 681.56L98.1661 682.952C97.3021 683.208 96.5661 683.336 95.9581 683.336C95.3661 683.336 94.8781 683.24 94.4941 683.048C94.1101 682.856 93.8381 682.568 93.6781 682.184C93.4061 681.608 93.2701 680.832 93.2701 679.856V670.688H90.9181ZM109.008 669.848C109.968 670.536 110.448 671.832 110.448 673.736V683H109.08L108.552 680.864C107.016 682.512 105.328 683.336 103.488 683.336C102.272 683.336 101.376 683.016 100.8 682.376C100.24 681.736 99.9595 680.872 99.9595 679.784C99.9595 678.696 100.296 677.816 100.968 677.144C101.656 676.472 102.936 675.984 104.808 675.68L108.384 675.104V673.736C108.384 672.552 108.128 671.736 107.616 671.288C107.12 670.84 106.432 670.616 105.552 670.616C103.792 670.616 102.744 671.472 102.408 673.184L100.728 672.68C100.984 671.496 101.52 670.576 102.336 669.92C103.152 669.264 104.256 668.936 105.648 668.936C107.056 668.936 108.176 669.24 109.008 669.848ZM104.064 681.752C105.504 681.752 106.944 680.976 108.384 679.424V676.544L105 677.12C103.864 677.328 103.08 677.656 102.648 678.104C102.216 678.536 102 679.072 102 679.712C102 680.336 102.168 680.832 102.504 681.2C102.84 681.568 103.36 681.752 104.064 681.752ZM123.694 677.096C123.342 677.576 122.814 677.96 122.11 678.248C121.422 678.536 120.598 678.68 119.638 678.68C118.678 678.68 117.83 678.536 117.094 678.248L116.014 679.304C115.646 679.656 115.462 680.056 115.462 680.504C115.462 681.096 115.83 681.392 116.566 681.392H121.942C123.11 681.392 124.022 681.704 124.678 682.328C125.35 682.936 125.686 683.688 125.686 684.584C125.686 685.496 125.51 686.216 125.158 686.744C124.806 687.288 124.302 687.688 123.646 687.944C122.51 688.376 121.038 688.592 119.23 688.592C117.422 688.592 116.022 688.352 115.03 687.872C114.054 687.408 113.566 686.616 113.566 685.496C113.566 684.392 114.046 683.496 115.006 682.808C114.094 682.456 113.638 681.768 113.638 680.744C113.638 679.976 113.974 679.256 114.646 678.584L115.798 677.432C114.95 676.6 114.526 675.392 114.526 673.808C114.526 672.528 114.854 671.432 115.51 670.52C115.862 670.04 116.382 669.656 117.07 669.368C117.774 669.08 118.582 668.936 119.494 668.936C120.422 668.936 121.206 669.048 121.846 669.272H125.47V670.64H123.766C124.374 671.472 124.678 672.528 124.678 673.808C124.678 675.088 124.35 676.184 123.694 677.096ZM119.59 670.424C117.542 670.424 116.518 671.552 116.518 673.808C116.518 676.064 117.542 677.192 119.59 677.192C121.654 677.192 122.686 676.064 122.686 673.808C122.686 671.552 121.654 670.424 119.59 670.424ZM115.51 684.968C115.51 685.768 115.838 686.296 116.494 686.552C117.15 686.808 118.166 686.936 119.542 686.936C120.934 686.936 121.95 686.792 122.59 686.504C123.246 686.232 123.574 685.648 123.574 684.752C123.574 684.128 123.342 683.68 122.878 683.408C122.43 683.136 121.902 683 121.294 683H116.494C115.838 683.528 115.51 684.184 115.51 684.968ZM133.612 683.336C131.516 683.336 130.02 682.744 129.124 681.56C128.228 680.36 127.78 678.552 127.78 676.136C127.78 671.336 129.692 668.936 133.516 668.936C137.292 668.936 139.18 671.24 139.18 675.848V676.352H129.82C129.836 678.24 130.124 679.6 130.684 680.432C131.244 681.248 132.22 681.656 133.612 681.656C135.884 681.656 137.1 680.736 137.26 678.896L138.964 678.992C138.66 681.888 136.876 683.336 133.612 683.336ZM137.116 674.816C137.036 673.472 136.732 672.44 136.204 671.72C135.676 670.984 134.788 670.616 133.54 670.616C132.292 670.616 131.396 670.992 130.852 671.744C130.308 672.48 129.98 673.504 129.868 674.816H137.116ZM157.64 669.848C158.6 670.536 159.08 671.832 159.08 673.736V683H157.712L157.184 680.864C155.648 682.512 153.96 683.336 152.12 683.336C150.904 683.336 150.008 683.016 149.432 682.376C148.872 681.736 148.592 680.872 148.592 679.784C148.592 678.696 148.928 677.816 149.6 677.144C150.288 676.472 151.568 675.984 153.44 675.68L157.016 675.104V673.736C157.016 672.552 156.76 671.736 156.248 671.288C155.752 670.84 155.064 670.616 154.184 670.616C152.424 670.616 151.376 671.472 151.04 673.184L149.36 672.68C149.616 671.496 150.152 670.576 150.968 669.92C151.784 669.264 152.888 668.936 154.28 668.936C155.688 668.936 156.808 669.24 157.64 669.848ZM152.696 681.752C154.136 681.752 155.576 680.976 157.016 679.424V676.544L153.632 677.12C152.496 677.328 151.712 677.656 151.28 678.104C150.848 678.536 150.632 679.072 150.632 679.712C150.632 680.336 150.8 680.832 151.136 681.2C151.472 681.568 151.992 681.752 152.696 681.752ZM165.991 683H163.927V669.272H165.151L165.895 671.72C167.015 669.944 168.655 669.016 170.815 668.936V670.832C168.655 670.912 167.047 671.824 165.991 673.568V683ZM178.144 683.336C176.048 683.336 174.552 682.744 173.656 681.56C172.76 680.36 172.312 678.552 172.312 676.136C172.312 671.336 174.224 668.936 178.048 668.936C181.824 668.936 183.712 671.24 183.712 675.848V676.352H174.352C174.368 678.24 174.656 679.6 175.216 680.432C175.776 681.248 176.752 681.656 178.144 681.656C180.416 681.656 181.632 680.736 181.792 678.896L183.496 678.992C183.192 681.888 181.408 683.336 178.144 683.336ZM181.648 674.816C181.568 673.472 181.264 672.44 180.736 671.72C180.208 670.984 179.32 670.616 178.072 670.616C176.824 670.616 175.928 670.992 175.384 671.744C174.84 672.48 174.512 673.504 174.4 674.816H181.648ZM200.42 683.336C198.916 683.336 197.468 682.848 196.076 681.872L195.62 683H194.396V664.808L196.46 664.568V670.064C197.836 669.312 199.156 668.936 200.42 668.936C203.876 668.936 205.604 671.336 205.604 676.136C205.604 680.936 203.876 683.336 200.42 683.336ZM200.036 670.616C198.804 670.616 197.612 670.96 196.46 671.648V680.528C197.564 681.28 198.692 681.656 199.844 681.656C202.308 681.656 203.54 679.816 203.54 676.136C203.54 675.128 203.436 674.232 203.228 673.448C203.036 672.664 202.668 672 202.124 671.456C201.58 670.896 200.884 670.616 200.036 670.616ZM217.218 669.848C218.178 670.536 218.658 671.832 218.658 673.736V683H217.29L216.762 680.864C215.226 682.512 213.538 683.336 211.698 683.336C210.482 683.336 209.586 683.016 209.01 682.376C208.45 681.736 208.17 680.872 208.17 679.784C208.17 678.696 208.506 677.816 209.178 677.144C209.866 676.472 211.146 675.984 213.018 675.68L216.594 675.104V673.736C216.594 672.552 216.338 671.736 215.826 671.288C215.33 670.84 214.642 670.616 213.762 670.616C212.002 670.616 210.954 671.472 210.618 673.184L208.938 672.68C209.194 671.496 209.73 670.576 210.546 669.92C211.362 669.264 212.466 668.936 213.858 668.936C215.266 668.936 216.386 669.24 217.218 669.848ZM212.274 681.752C213.714 681.752 215.154 680.976 216.594 679.424V676.544L213.21 677.12C212.074 677.328 211.29 677.656 210.858 678.104C210.426 678.536 210.21 679.072 210.21 679.712C210.21 680.336 210.378 680.832 210.714 681.2C211.05 681.568 211.57 681.752 212.274 681.752ZM228.473 675.344C229.913 675.696 230.937 676.168 231.545 676.76C232.169 677.336 232.481 678.208 232.481 679.376C232.481 680.528 232.049 681.464 231.185 682.184C230.321 682.904 229.041 683.264 227.345 683.264C225.649 683.264 224.417 682.944 223.649 682.304C222.897 681.648 222.417 680.704 222.209 679.472L223.889 679.208C224.129 680.824 225.225 681.632 227.177 681.632C229.337 681.632 230.417 680.904 230.417 679.448C230.417 678.808 230.217 678.336 229.817 678.032C229.433 677.728 228.737 677.448 227.729 677.192L226.361 676.856C224.969 676.504 223.977 676.04 223.385 675.464C222.809 674.888 222.521 674.016 222.521 672.848C222.521 671.664 222.937 670.72 223.769 670.016C224.601 669.296 225.825 668.936 227.441 668.936C229.073 668.936 230.249 669.264 230.969 669.92C231.705 670.56 232.177 671.496 232.385 672.728L230.681 672.992C230.473 671.376 229.449 670.568 227.609 670.568C225.593 670.568 224.585 671.296 224.585 672.752C224.585 673.392 224.769 673.872 225.137 674.192C225.505 674.496 226.153 674.768 227.081 675.008L228.473 675.344ZM240.862 683.336C238.766 683.336 237.27 682.744 236.374 681.56C235.478 680.36 235.03 678.552 235.03 676.136C235.03 671.336 236.942 668.936 240.766 668.936C244.542 668.936 246.43 671.24 246.43 675.848V676.352H237.07C237.086 678.24 237.374 679.6 237.934 680.432C238.494 681.248 239.47 681.656 240.862 681.656C243.134 681.656 244.35 680.736 244.51 678.896L246.214 678.992C245.91 681.888 244.126 683.336 240.862 683.336ZM244.366 674.816C244.286 673.472 243.982 672.44 243.454 671.72C242.926 670.984 242.038 670.616 240.79 670.616C239.542 670.616 238.646 670.992 238.102 671.744C237.558 672.48 237.23 673.504 237.118 674.816H244.366ZM253.321 683.336C250.377 683.336 248.905 680.936 248.905 676.136C248.905 671.336 250.689 668.936 254.257 668.936C255.489 668.936 256.753 669.248 258.049 669.872V664.808L260.113 664.568V683H258.745L258.145 680.912C256.689 682.528 255.081 683.336 253.321 683.336ZM253.993 681.656C255.433 681.656 256.785 680.888 258.049 679.352V671.504C256.897 670.88 255.769 670.568 254.665 670.568C253.321 670.568 252.369 671.056 251.809 672.032C251.249 673.008 250.969 674.376 250.969 676.136C250.969 679.816 251.977 681.656 253.993 681.656ZM274.849 681.224C275.393 681.512 276.065 681.656 276.865 681.656C277.665 681.656 278.329 681.512 278.857 681.224C279.401 680.92 279.801 680.496 280.057 679.952C280.313 679.392 280.489 678.816 280.585 678.224C280.697 677.616 280.753 676.92 280.753 676.136C280.753 675.352 280.697 674.664 280.585 674.072C280.489 673.464 280.313 672.888 280.057 672.344C279.801 671.784 279.401 671.36 278.857 671.072C278.329 670.768 277.665 670.616 276.865 670.616C276.065 670.616 275.393 670.768 274.849 671.072C274.321 671.36 273.921 671.784 273.649 672.344C273.393 672.888 273.217 673.456 273.121 674.048C273.025 674.64 272.977 675.336 272.977 676.136C272.977 676.936 273.025 677.632 273.121 678.224C273.217 678.816 273.393 679.392 273.649 679.952C273.921 680.496 274.321 680.92 274.849 681.224ZM282.817 676.136C282.817 680.936 280.833 683.336 276.865 683.336C272.897 683.336 270.913 680.936 270.913 676.136C270.913 671.336 272.897 668.936 276.865 668.936C280.833 668.936 282.817 671.336 282.817 676.136ZM288.446 670.712C290.062 669.528 291.654 668.936 293.222 668.936C294.79 668.936 295.894 669.296 296.534 670.016C297.174 670.72 297.494 671.8 297.494 673.256V683H295.43V673.304C295.43 672.344 295.246 671.656 294.878 671.24C294.51 670.824 293.894 670.616 293.03 670.616C291.542 670.616 290.102 671.152 288.71 672.224V683H286.646V669.272H287.87L288.446 670.712ZM317.086 669.848C318.046 670.536 318.526 671.832 318.526 673.736V683H317.158L316.63 680.864C315.094 682.512 313.406 683.336 311.566 683.336C310.35 683.336 309.454 683.016 308.878 682.376C308.318 681.736 308.038 680.872 308.038 679.784C308.038 678.696 308.374 677.816 309.046 677.144C309.734 676.472 311.014 675.984 312.886 675.68L316.462 675.104V673.736C316.462 672.552 316.206 671.736 315.694 671.288C315.198 670.84 314.51 670.616 313.63 670.616C311.87 670.616 310.822 671.472 310.486 673.184L308.806 672.68C309.062 671.496 309.598 670.576 310.414 669.92C311.23 669.264 312.334 668.936 313.726 668.936C315.134 668.936 316.254 669.24 317.086 669.848ZM312.142 681.752C313.582 681.752 315.022 680.976 316.462 679.424V676.544L313.078 677.12C311.942 677.328 311.158 677.656 310.726 678.104C310.294 678.536 310.078 679.072 310.078 679.712C310.078 680.336 310.246 680.832 310.582 681.2C310.918 681.568 311.438 681.752 312.142 681.752ZM333.501 683.336C330.557 683.336 329.085 680.936 329.085 676.136C329.085 671.336 330.869 668.936 334.437 668.936C335.669 668.936 336.933 669.248 338.229 669.872V664.808L340.293 664.568V683H338.925L338.325 680.912C336.869 682.528 335.261 683.336 333.501 683.336ZM334.173 681.656C335.613 681.656 336.965 680.888 338.229 679.352V671.504C337.077 670.88 335.949 670.568 334.845 670.568C333.501 670.568 332.549 671.056 331.989 672.032C331.429 673.008 331.149 674.376 331.149 676.136C331.149 679.816 332.157 681.656 334.173 681.656ZM345.38 669.272H347.444V683H345.38V669.272ZM346.412 666.968C345.596 666.968 345.188 666.528 345.188 665.648C345.188 664.752 345.596 664.304 346.412 664.304C347.26 664.304 347.684 664.752 347.684 665.648C347.684 666.528 347.26 666.968 346.412 666.968ZM357.112 683.336C355.016 683.336 353.52 682.744 352.624 681.56C351.728 680.36 351.28 678.552 351.28 676.136C351.28 671.336 353.192 668.936 357.016 668.936C360.792 668.936 362.68 671.24 362.68 675.848V676.352H353.32C353.336 678.24 353.624 679.6 354.184 680.432C354.744 681.248 355.72 681.656 357.112 681.656C359.384 681.656 360.6 680.736 360.76 678.896L362.464 678.992C362.16 681.888 360.376 683.336 357.112 683.336ZM360.616 674.816C360.536 673.472 360.232 672.44 359.704 671.72C359.176 670.984 358.288 670.616 357.04 670.616C355.792 670.616 354.896 670.992 354.352 671.744C353.808 672.48 353.48 673.504 353.368 674.816H360.616ZM364.363 670.688V669.272H366.715V666.776L368.779 665.96V669.272H371.683V670.688H368.779V679.784C368.779 680.504 368.875 681.016 369.067 681.32C369.275 681.608 369.571 681.752 369.955 681.752C370.339 681.752 370.811 681.688 371.371 681.56L371.611 682.952C370.747 683.208 370.011 683.336 369.403 683.336C368.811 683.336 368.323 683.24 367.939 683.048C367.555 682.856 367.283 682.568 367.123 682.184C366.851 681.608 366.715 680.832 366.715 679.856V670.688H364.363ZM384.326 681.224C384.87 681.512 385.542 681.656 386.342 681.656C387.142 681.656 387.806 681.512 388.334 681.224C388.878 680.92 389.278 680.496 389.534 679.952C389.79 679.392 389.966 678.816 390.062 678.224C390.174 677.616 390.23 676.92 390.23 676.136C390.23 675.352 390.174 674.664 390.062 674.072C389.966 673.464 389.79 672.888 389.534 672.344C389.278 671.784 388.878 671.36 388.334 671.072C387.806 670.768 387.142 670.616 386.342 670.616C385.542 670.616 384.87 670.768 384.326 671.072C383.798 671.36 383.398 671.784 383.126 672.344C382.87 672.888 382.694 673.456 382.598 674.048C382.502 674.64 382.454 675.336 382.454 676.136C382.454 676.936 382.502 677.632 382.598 678.224C382.694 678.816 382.87 679.392 383.126 679.952C383.398 680.496 383.798 680.92 384.326 681.224ZM392.294 676.136C392.294 680.936 390.31 683.336 386.342 683.336C382.374 683.336 380.39 680.936 380.39 676.136C380.39 671.336 382.374 668.936 386.342 668.936C390.31 668.936 392.294 671.336 392.294 676.136ZM400.442 666.032C399.194 666.032 398.57 666.76 398.57 668.216V669.272H401.738V670.688H398.57V683H396.506V670.688H394.922V669.272H396.506V668.216C396.506 665.672 397.77 664.4 400.298 664.4C401.242 664.4 402.09 664.536 402.842 664.808L402.314 666.368C401.77 666.144 401.146 666.032 400.442 666.032ZM410.928 669.632C411.056 668.208 411.568 667.104 412.464 666.32C413.36 665.536 414.664 665.144 416.376 665.144C418.104 665.144 419.424 665.568 420.336 666.416C421.264 667.248 421.728 668.392 421.728 669.848C421.728 670.856 421.456 671.808 420.912 672.704C420.384 673.6 419.64 674.568 418.68 675.608L413.376 681.296H421.92V683H410.568V681.392L417.336 674.072C418.136 673.224 418.72 672.488 419.088 671.864C419.472 671.24 419.664 670.512 419.664 669.68C419.664 668.848 419.376 668.168 418.8 667.64C418.24 667.112 417.392 666.848 416.256 666.848C414.048 666.848 412.88 667.872 412.752 669.92L410.928 669.632ZM434.011 682.856C433.275 683.176 432.419 683.336 431.443 683.336C430.467 683.336 429.611 683.176 428.875 682.856C428.155 682.536 427.563 682.112 427.099 681.584C426.651 681.04 426.291 680.368 426.019 679.568C425.747 678.768 425.555 677.944 425.443 677.096C425.347 676.248 425.299 675.296 425.299 674.24C425.299 673.184 425.347 672.232 425.443 671.384C425.555 670.536 425.747 669.712 426.019 668.912C426.291 668.112 426.651 667.448 427.099 666.92C427.547 666.376 428.139 665.944 428.875 665.624C429.611 665.304 430.467 665.144 431.443 665.144C432.419 665.144 433.275 665.304 434.011 665.624C434.747 665.944 435.339 666.376 435.787 666.92C436.251 667.448 436.619 668.112 436.891 668.912C437.163 669.712 437.347 670.536 437.443 671.384C437.555 672.232 437.611 673.184 437.611 674.24C437.611 675.296 437.555 676.248 437.443 677.096C437.347 677.944 437.163 678.768 436.891 679.568C436.619 680.368 436.251 681.04 435.787 681.584C435.339 682.112 434.747 682.536 434.011 682.856ZM431.443 681.656C432.995 681.656 434.067 681.024 434.659 679.76C435.267 678.48 435.571 676.64 435.571 674.24C435.571 670.56 434.867 668.272 433.459 667.376C432.915 667.024 432.243 666.848 431.443 666.848C430.643 666.848 429.971 667.024 429.427 667.376C428.883 667.728 428.467 668.248 428.179 668.936C427.635 670.184 427.363 671.952 427.363 674.24C427.363 677.936 428.051 680.232 429.427 681.128C429.971 681.48 430.643 681.656 431.443 681.656ZM449.222 682.856C448.486 683.176 447.63 683.336 446.654 683.336C445.678 683.336 444.822 683.176 444.086 682.856C443.366 682.536 442.774 682.112 442.31 681.584C441.862 681.04 441.502 680.368 441.23 679.568C440.958 678.768 440.766 677.944 440.654 677.096C440.558 676.248 440.51 675.296 440.51 674.24C440.51 673.184 440.558 672.232 440.654 671.384C440.766 670.536 440.958 669.712 441.23 668.912C441.502 668.112 441.862 667.448 442.31 666.92C442.758 666.376 443.35 665.944 444.086 665.624C444.822 665.304 445.678 665.144 446.654 665.144C447.63 665.144 448.486 665.304 449.222 665.624C449.958 665.944 450.55 666.376 450.998 666.92C451.462 667.448 451.83 668.112 452.102 668.912C452.374 669.712 452.558 670.536 452.654 671.384C452.766 672.232 452.822 673.184 452.822 674.24C452.822 675.296 452.766 676.248 452.654 677.096C452.558 677.944 452.374 678.768 452.102 679.568C451.83 680.368 451.462 681.04 450.998 681.584C450.55 682.112 449.958 682.536 449.222 682.856ZM446.654 681.656C448.206 681.656 449.278 681.024 449.87 679.76C450.478 678.48 450.782 676.64 450.782 674.24C450.782 670.56 450.078 668.272 448.67 667.376C448.126 667.024 447.454 666.848 446.654 666.848C445.854 666.848 445.182 667.024 444.638 667.376C444.094 667.728 443.678 668.248 443.39 668.936C442.846 670.184 442.574 671.952 442.574 674.24C442.574 677.936 443.262 680.232 444.638 681.128C445.182 681.48 445.854 681.656 446.654 681.656ZM464.433 682.856C463.697 683.176 462.841 683.336 461.865 683.336C460.889 683.336 460.033 683.176 459.297 682.856C458.577 682.536 457.985 682.112 457.521 681.584C457.073 681.04 456.713 680.368 456.441 679.568C456.169 678.768 455.977 677.944 455.865 677.096C455.769 676.248 455.721 675.296 455.721 674.24C455.721 673.184 455.769 672.232 455.865 671.384C455.977 670.536 456.169 669.712 456.441 668.912C456.713 668.112 457.073 667.448 457.521 666.92C457.969 666.376 458.561 665.944 459.297 665.624C460.033 665.304 460.889 665.144 461.865 665.144C462.841 665.144 463.697 665.304 464.433 665.624C465.169 665.944 465.761 666.376 466.209 666.92C466.673 667.448 467.041 668.112 467.313 668.912C467.585 669.712 467.769 670.536 467.865 671.384C467.977 672.232 468.033 673.184 468.033 674.24C468.033 675.296 467.977 676.248 467.865 677.096C467.769 677.944 467.585 678.768 467.313 679.568C467.041 680.368 466.673 681.04 466.209 681.584C465.761 682.112 465.169 682.536 464.433 682.856ZM461.865 681.656C463.417 681.656 464.489 681.024 465.081 679.76C465.689 678.48 465.993 676.64 465.993 674.24C465.993 670.56 465.289 668.272 463.881 667.376C463.337 667.024 462.665 666.848 461.865 666.848C461.065 666.848 460.393 667.024 459.849 667.376C459.305 667.728 458.889 668.248 458.601 668.936C458.057 670.184 457.785 671.952 457.785 674.24C457.785 677.936 458.473 680.232 459.849 681.128C460.393 681.48 461.065 681.656 461.865 681.656ZM479.813 676.136C479.813 676.92 479.861 677.616 479.957 678.224C480.053 678.832 480.229 679.408 480.485 679.952C481.013 681.088 482.013 681.656 483.485 681.656C484.685 681.656 485.541 681.424 486.053 680.96C486.581 680.48 486.869 679.776 486.917 678.848L488.597 678.92C488.485 680.344 488.037 681.44 487.253 682.208C486.469 682.96 485.189 683.336 483.413 683.336C480.901 683.336 479.237 682.312 478.421 680.264C477.973 679.144 477.749 677.92 477.749 676.592C477.749 675.264 477.829 674.208 477.989 673.424C478.149 672.624 478.429 671.864 478.829 671.144C479.661 669.672 481.189 668.936 483.413 668.936C485.189 668.936 486.469 669.304 487.253 670.04C488.037 670.76 488.477 671.808 488.573 673.184L486.917 673.424C486.869 672.496 486.581 671.8 486.053 671.336C485.541 670.856 484.685 670.616 483.485 670.616C482.013 670.616 481.013 671.184 480.485 672.32C480.037 673.264 479.813 674.536 479.813 676.136ZM499.968 669.848C500.928 670.536 501.408 671.832 501.408 673.736V683H500.04L499.512 680.864C497.976 682.512 496.288 683.336 494.448 683.336C493.232 683.336 492.336 683.016 491.76 682.376C491.2 681.736 490.92 680.872 490.92 679.784C490.92 678.696 491.256 677.816 491.928 677.144C492.616 676.472 493.896 675.984 495.768 675.68L499.344 675.104V673.736C499.344 672.552 499.088 671.736 498.576 671.288C498.08 670.84 497.392 670.616 496.512 670.616C494.752 670.616 493.704 671.472 493.368 673.184L491.688 672.68C491.944 671.496 492.48 670.576 493.296 669.92C494.112 669.264 495.216 668.936 496.608 668.936C498.016 668.936 499.136 669.24 499.968 669.848ZM495.024 681.752C496.464 681.752 497.904 680.976 499.344 679.424V676.544L495.96 677.12C494.824 677.328 494.04 677.656 493.608 678.104C493.176 678.536 492.96 679.072 492.96 679.712C492.96 680.336 493.128 680.832 493.464 681.2C493.8 681.568 494.32 681.752 495.024 681.752ZM508.319 683H506.255V664.808L508.319 664.52V683ZM516.091 681.224C516.635 681.512 517.307 681.656 518.107 681.656C518.907 681.656 519.571 681.512 520.099 681.224C520.643 680.92 521.043 680.496 521.299 679.952C521.555 679.392 521.731 678.816 521.827 678.224C521.939 677.616 521.995 676.92 521.995 676.136C521.995 675.352 521.939 674.664 521.827 674.072C521.731 673.464 521.555 672.888 521.299 672.344C521.043 671.784 520.643 671.36 520.099 671.072C519.571 670.768 518.907 670.616 518.107 670.616C517.307 670.616 516.635 670.768 516.091 671.072C515.563 671.36 515.163 671.784 514.891 672.344C514.635 672.888 514.459 673.456 514.363 674.048C514.267 674.64 514.219 675.336 514.219 676.136C514.219 676.936 514.267 677.632 514.363 678.224C514.459 678.816 514.635 679.392 514.891 679.952C515.163 680.496 515.563 680.92 516.091 681.224ZM524.059 676.136C524.059 680.936 522.075 683.336 518.107 683.336C514.139 683.336 512.155 680.936 512.155 676.136C512.155 671.336 514.139 668.936 518.107 668.936C522.075 668.936 524.059 671.336 524.059 676.136ZM529.952 683H527.888V669.272H529.112L529.856 671.72C530.976 669.944 532.616 669.016 534.776 668.936V670.832C532.616 670.912 531.008 671.824 529.952 673.568V683ZM537.521 669.272H539.585V683H537.521V669.272ZM538.553 666.968C537.737 666.968 537.329 666.528 537.329 665.648C537.329 664.752 537.737 664.304 538.553 664.304C539.401 664.304 539.825 664.752 539.825 665.648C539.825 666.528 539.401 666.968 538.553 666.968ZM549.253 683.336C547.157 683.336 545.661 682.744 544.765 681.56C543.869 680.36 543.421 678.552 543.421 676.136C543.421 671.336 545.333 668.936 549.157 668.936C552.933 668.936 554.821 671.24 554.821 675.848V676.352H545.461C545.477 678.24 545.765 679.6 546.325 680.432C546.885 681.248 547.861 681.656 549.253 681.656C551.525 681.656 552.741 680.736 552.901 678.896L554.605 678.992C554.301 681.888 552.517 683.336 549.253 683.336ZM552.757 674.816C552.677 673.472 552.373 672.44 551.845 671.72C551.317 670.984 550.429 670.616 549.181 670.616C547.933 670.616 547.037 670.992 546.493 671.744C545.949 672.48 545.621 673.504 545.509 674.816H552.757ZM563.512 675.344C564.952 675.696 565.976 676.168 566.584 676.76C567.208 677.336 567.52 678.208 567.52 679.376C567.52 680.528 567.088 681.464 566.224 682.184C565.36 682.904 564.08 683.264 562.384 683.264C560.688 683.264 559.456 682.944 558.688 682.304C557.936 681.648 557.456 680.704 557.248 679.472L558.928 679.208C559.168 680.824 560.264 681.632 562.216 681.632C564.376 681.632 565.456 680.904 565.456 679.448C565.456 678.808 565.256 678.336 564.856 678.032C564.472 677.728 563.776 677.448 562.768 677.192L561.4 676.856C560.008 676.504 559.016 676.04 558.424 675.464C557.848 674.888 557.56 674.016 557.56 672.848C557.56 671.664 557.976 670.72 558.808 670.016C559.64 669.296 560.864 668.936 562.48 668.936C564.112 668.936 565.288 669.264 566.008 669.92C566.744 670.56 567.216 671.496 567.424 672.728L565.72 672.992C565.512 671.376 564.488 670.568 562.648 670.568C560.632 670.568 559.624 671.296 559.624 672.752C559.624 673.392 559.808 673.872 560.176 674.192C560.544 674.496 561.192 674.768 562.12 675.008L563.512 675.344ZM586.054 669.848C587.014 670.536 587.494 671.832 587.494 673.736V683H586.126L585.598 680.864C584.062 682.512 582.374 683.336 580.534 683.336C579.318 683.336 578.422 683.016 577.846 682.376C577.286 681.736 577.006 680.872 577.006 679.784C577.006 678.696 577.342 677.816 578.014 677.144C578.702 676.472 579.982 675.984 581.854 675.68L585.43 675.104V673.736C585.43 672.552 585.174 671.736 584.662 671.288C584.166 670.84 583.478 670.616 582.598 670.616C580.838 670.616 579.79 671.472 579.454 673.184L577.774 672.68C578.03 671.496 578.566 670.576 579.382 669.92C580.198 669.264 581.302 668.936 582.694 668.936C584.102 668.936 585.222 669.24 586.054 669.848ZM581.11 681.752C582.55 681.752 583.99 680.976 585.43 679.424V676.544L582.046 677.12C580.91 677.328 580.126 677.656 579.694 678.104C579.262 678.536 579.046 679.072 579.046 679.712C579.046 680.336 579.214 680.832 579.55 681.2C579.886 681.568 580.406 681.752 581.11 681.752ZM15.712 713.336C12.768 713.336 11.296 710.936 11.296 706.136C11.296 701.336 13.08 698.936 16.648 698.936C17.88 698.936 19.144 699.248 20.44 699.872V694.808L22.504 694.568V713H21.136L20.536 710.912C19.08 712.528 17.472 713.336 15.712 713.336ZM16.384 711.656C17.824 711.656 19.176 710.888 20.44 709.352V701.504C19.288 700.88 18.16 700.568 17.056 700.568C15.712 700.568 14.76 701.056 14.2 702.032C13.64 703.008 13.36 704.376 13.36 706.136C13.36 709.816 14.368 711.656 16.384 711.656ZM35.3669 699.848C36.3269 700.536 36.8069 701.832 36.8069 703.736V713H35.4389L34.9109 710.864C33.3749 712.512 31.6869 713.336 29.8469 713.336C28.6309 713.336 27.7349 713.016 27.1589 712.376C26.5989 711.736 26.3189 710.872 26.3189 709.784C26.3189 708.696 26.6549 707.816 27.3269 707.144C28.0149 706.472 29.2949 705.984 31.1669 705.68L34.7429 705.104V703.736C34.7429 702.552 34.4869 701.736 33.9749 701.288C33.4789 700.84 32.7909 700.616 31.9109 700.616C30.1509 700.616 29.1029 701.472 28.7669 703.184L27.0869 702.68C27.3429 701.496 27.8789 700.576 28.6949 699.92C29.5109 699.264 30.6149 698.936 32.0069 698.936C33.4149 698.936 34.5349 699.24 35.3669 699.848ZM30.4229 711.752C31.8629 711.752 33.3029 710.976 34.7429 709.424V706.544L31.3589 707.12C30.2229 707.328 29.4389 707.656 29.0069 708.104C28.5749 708.536 28.3589 709.072 28.3589 709.712C28.3589 710.336 28.5269 710.832 28.8629 711.2C29.1989 711.568 29.7189 711.752 30.4229 711.752ZM44.4374 718.88L42.5654 718.544L44.6774 713.096L39.4934 699.272H41.6294L45.6854 710.384L49.6214 699.272H51.7334L44.4374 718.88Z" fill="black"/>
</svg>
