<svg width="150" height="151" viewBox="0 0 150 151" fill="none" xmlns="http://www.w3.org/2000/svg">
<ellipse cx="74.6803" cy="75.2071" rx="74.5087" ry="75.2071" fill="#FF5E03"/>
<path d="M83.8877 112.267H64.8997C63.4944 112.267 62.36 111.08 62.36 109.629V102.808C59.7865 100.988 57.6109 98.6061 56.0025 95.8283C54.0808 92.523 53.0226 88.7255 52.9295 84.8489C52.8533 81.7195 53.4036 78.6779 54.5549 75.7946C55.6554 73.0256 57.2638 70.5467 59.3294 68.4281C61.395 66.3096 63.7992 64.6658 66.4742 63.5406C69.2594 62.3803 72.1969 61.844 75.2106 61.9495C80.8062 62.1429 86.0379 64.5603 89.9405 68.7446C93.8515 72.9377 96.0102 78.467 96.0102 84.3039C96.0102 88.3124 94.9774 92.2505 93.0134 95.6876C91.3711 98.5709 89.1109 101.041 86.4358 102.905V109.638C86.4273 111.08 85.2845 112.267 83.8877 112.267ZM81.348 106.992V101.437C81.348 100.487 81.839 99.617 82.6263 99.1423C87.7394 96.1008 90.914 90.4133 90.914 84.3039C90.914 75.0386 83.9385 67.5403 75.0243 67.2238C70.4615 67.0656 66.1526 68.8237 62.8934 72.1817C59.6342 75.5397 57.8903 79.9877 58.0003 84.7258C58.1358 90.6946 61.1918 96.0568 66.1695 99.0808H66.1779C66.9568 99.5555 67.4308 100.426 67.4308 101.358V106.992H81.348ZM49.3402 86.2642H40.8747C39.7488 86.2642 38.843 85.3236 38.843 84.1544C38.843 82.9853 39.7488 82.0447 40.8747 82.0447H49.3402C50.4661 82.0447 51.3719 82.9853 51.3719 84.1544C51.3719 85.3236 50.4576 86.2642 49.3402 86.2642ZM52.7602 73.1047C52.4131 73.1047 52.0576 73.008 51.7359 72.8146L44.4302 68.3754C43.4652 67.7864 43.135 66.4942 43.7022 65.4921C44.2694 64.49 45.5138 64.1472 46.4789 64.7361L53.7845 69.1753C54.7496 69.7643 55.0797 71.0565 54.5126 72.0586C54.1401 72.7267 53.4628 73.1047 52.7602 73.1047ZM61.7844 63.734C61.0902 63.734 60.4045 63.3648 60.032 62.6879L55.757 55.1017C55.1898 54.0996 55.5115 52.8073 56.485 52.2184C57.4501 51.6294 58.6945 51.9635 59.2617 52.9744L63.5367 60.5606C64.1039 61.5627 63.7822 62.8549 62.8087 63.4439C62.487 63.6461 62.1315 63.734 61.7844 63.734ZM74.4572 60.1738C73.3313 60.1738 72.4255 59.2332 72.4255 58.0641V49.2735C72.4255 48.1044 73.3313 47.1638 74.4572 47.1638C75.5831 47.1638 76.4889 48.1044 76.4889 49.2735V58.0641C76.4889 59.2332 75.5831 60.1738 74.4572 60.1738ZM87.1384 63.734C86.7913 63.734 86.4358 63.6373 86.1141 63.4439C85.149 62.8549 84.8189 61.5627 85.3861 60.5606L89.6611 52.9744C90.2283 51.9722 91.4727 51.6294 92.4378 52.2184C93.4028 52.8073 93.733 54.0996 93.1658 55.1017L88.8908 62.6879C88.5098 63.3648 87.8326 63.734 87.1384 63.734ZM96.1541 73.1047C95.4599 73.1047 94.7742 72.7355 94.4018 72.0586C93.8346 71.0565 94.1563 69.7643 95.1298 69.1753L102.435 64.7361C103.401 64.1472 104.645 64.4812 105.212 65.4921C105.779 66.4942 105.458 67.7864 104.484 68.3754L97.1784 72.8146C96.8567 73.008 96.5097 73.1047 96.1541 73.1047ZM108.048 86.2642H99.5826C98.4567 86.2642 97.5509 85.3236 97.5509 84.1544C97.5509 82.9853 98.4567 82.0447 99.5826 82.0447H108.048C109.174 82.0447 110.08 82.9853 110.08 84.1544C110.08 85.3236 109.174 86.2642 108.048 86.2642ZM78.6899 120.53H70.2244C68.8192 120.53 67.6848 119.352 67.6848 117.893C67.6848 116.433 68.8192 115.255 70.2244 115.255H78.6899C80.0951 115.255 81.2295 116.433 81.2295 117.893C81.2295 119.352 80.0951 120.53 78.6899 120.53Z" fill="white"/>
</svg>
